<svg height="496pt" viewBox="0 -52 496.16 496" width="496pt" xmlns="http://www.w3.org/2000/svg"><path d="m496.160156 32.078125v360h-496v-360zm0 0" fill="#e6e9ed"/><path d="m376.078125 304.078125h88v32h-88zm0 0" fill="#fff"/><path d="m496 16.078125v16h-496v-16c0-8.804687 7.191406-16 16-16h464c8.878906 0 16 7.195313 16 16zm0 0" fill="#ccd1d9"/><path d="m32.078125 328.078125h32v32h-32zm0 0" fill="#656d78"/><path d="m64.078125 328.078125h32v32h-32zm0 0" fill="#6f7984"/><path d="m288.078125 328.078125v32h-192v-32zm0 0" fill="#656d78"/><path d="m288.078125 328.078125h32v32h-32zm0 0" fill="#6f7984"/><path d="m320.078125 328.078125h32v32h-32zm0 0" fill="#656d78"/><path d="m32.078125 64.078125h320v264h-320zm0 0" fill="#5d9cec"/><path d="m264.078125 304.078125v24h-144v-24c0-13.277344 10.722656-24 24-24v.082031h24l8 7.917969 16-8 16 8 8-7.917969h24v-.082031c13.28125 0 24 10.722656 24 24zm0 0" fill="#e6e9ed"/><path d="m240.078125 280.078125v.082031h-24l-1.0625 1.054688c9.863281 2.984375 17.0625 12.015625 17.0625 22.863281v24h32v-24c0-13.277344-10.71875-24-24-24zm0 0" fill="#ccd1d9"/><path d="m216.078125 280.078125v.082031l-8 7.917969-16-8-16 8-8-7.917969v-21.519531c7.28125 3.511719 15.363281 5.4375 24 5.4375 8.640625 0 16.722656-1.917969 24-5.4375zm0 0" fill="#f5f7fa"/><path d="m248.078125 172.078125v11.042969c-13.757813-18-22.078125-21.28125-32-19.199219l16-32.480469c9.921875 10.636719 16 24.957032 16 40.636719zm0 0" fill="#edab37"/><path d="m232.078125 131.441406-16 32.480469c-14.957031 3.125-33.519531 18.726563-80 13.277344-2.558594-.320313-5.199219-.640625-8-1.121094v-4c0-33.117187 26.882813-60 60-60 17.441406 0 33.121094 7.441406 44 19.363281zm0 0" fill="#ffce54"/><path d="m188.078125 112.078125c-2.621094 0-5.191406.210937-7.726563.554687-.375.046876-.734374.109376-1.105468.167969-2.445313.375-4.847656.855469-7.183594 1.503907-.007812 0-.007812 0-.015625 0 10.921875 3.023437 20.609375 8.992187 28.03125 17.128906 8.195313 8.796875 13.714844 20.117187 15.402344 32.628906.191406-.046875.40625-.117188.597656-.160156l16-32.476563c-10.878906-11.90625-26.558594-19.347656-44-19.347656zm0 0" fill="#f6bb42"/><path d="m248.078125 183.121094v24.957031c0 22.320313-13.039063 41.601563-32 50.5625-7.277344 3.511719-15.359375 5.4375-24 5.4375-8.636719 0-16.71875-1.917969-24-5.4375-18.957031-8.960937-32-28.242187-32-50.5625v-30.878906c46.480469 5.449219 65.042969-10.160157 80-13.277344 9.921875-2.082031 18.242187 1.199219 32 19.199219zm0 0" fill="#eac6bb"/><path d="m216.078125 163.910156v44.167969c0 22.320313-13.039063 41.601563-32 50.5625-2.558594 1.230469-5.246094 2.191406-8 3.023437 5.066406 1.527344 10.402344 2.414063 16 2.414063 8.640625 0 16.722656-1.917969 24-5.4375 18.960937-8.960937 32-28.242187 32-50.5625v-24.957031c-13.757813-18-22.078125-21.28125-32-19.210938zm0 0" fill="#d3b1a9"/><path d="m384.320312 72.078125c-4.425781 0-8.039062-3.574219-8.039062-8 0-4.421875 3.535156-8 7.949219-8h.089843c4.414063 0 8 3.578125 8 8 0 4.425781-3.585937 8-8 8zm0 0" fill="#ccd1d9"/><path d="m384.320312 112.078125c-4.425781 0-8.039062-3.574219-8.039062-8 0-4.421875 3.535156-8 7.949219-8h.089843c4.414063 0 8 3.578125 8 8 0 4.425781-3.585937 8-8 8zm0 0" fill="#ccd1d9"/><path d="m384.320312 152.078125c-4.425781 0-8.039062-3.574219-8.039062-8 0-4.421875 3.535156-8 7.949219-8h.089843c4.414063 0 8 3.578125 8 8 0 4.425781-3.585937 8-8 8zm0 0" fill="#ccd1d9"/><path d="m384.320312 192.078125c-4.425781 0-8.039062-3.574219-8.039062-8 0-4.421875 3.535156-8 7.949219-8h.089843c4.414063 0 8 3.578125 8 8 0 4.425781-3.585937 8-8 8zm0 0" fill="#ccd1d9"/><path d="m384.320312 232.078125c-4.425781 0-8.039062-3.574219-8.039062-8 0-4.421875 3.535156-8 7.949219-8h.089843c4.414063 0 8 3.578125 8 8 0 4.425781-3.585937 8-8 8zm0 0" fill="#ccd1d9"/><path d="m24.246094 24.078125c-4.421875 0-8.039063-3.574219-8.039063-8 0-4.421875 3.535157-8 7.953125-8h.085938c4.417968 0 8 3.578125 8 8 0 4.425781-3.582032 8-8 8zm0 0" fill="#ed5565"/><path d="m48.246094 24.078125c-4.421875 0-8.039063-3.574219-8.039063-8 0-4.421875 3.535157-8 7.953125-8h.085938c4.417968 0 8 3.578125 8 8 0 4.425781-3.582032 8-8 8zm0 0" fill="#ffce54"/><path d="m72.246094 24.078125c-4.421875 0-8.039063-3.574219-8.039063-8 0-4.421875 3.535157-8 7.953125-8h.085938c4.417968 0 8 3.578125 8 8 0 4.425781-3.582032 8-8 8zm0 0" fill="#8cc152"/><g fill="#ccd1d9"><path d="m448.078125 72.078125h-40c-4.421875 0-8-3.574219-8-8 0-4.421875 3.578125-8 8-8h40c4.425781 0 8 3.578125 8 8 0 4.425781-3.574219 8-8 8zm0 0"/><path d="m464.078125 112.078125h-56c-4.421875 0-8-3.574219-8-8 0-4.421875 3.578125-8 8-8h56c4.425781 0 8 3.578125 8 8 0 4.425781-3.574219 8-8 8zm0 0"/><path d="m456.078125 152.078125h-48c-4.421875 0-8-3.574219-8-8 0-4.421875 3.578125-8 8-8h48c4.425781 0 8 3.578125 8 8 0 4.425781-3.574219 8-8 8zm0 0"/><path d="m432.078125 192.078125h-24c-4.421875 0-8-3.574219-8-8 0-4.421875 3.578125-8 8-8h24c4.425781 0 8 3.578125 8 8 0 4.425781-3.574219 8-8 8zm0 0"/><path d="m464.078125 232.078125h-56c-4.421875 0-8-3.574219-8-8 0-4.421875 3.578125-8 8-8h56c4.425781 0 8 3.578125 8 8 0 4.425781-3.574219 8-8 8zm0 0"/><path d="m384.320312 272.078125c-4.425781 0-8.039062-3.574219-8.039062-8 0-4.421875 3.535156-8 7.949219-8h.089843c4.414063 0 8 3.578125 8 8 0 4.425781-3.585937 8-8 8zm0 0"/><path d="m448.078125 272.078125h-40c-4.421875 0-8-3.574219-8-8 0-4.421875 3.578125-8 8-8h40c4.425781 0 8 3.578125 8 8 0 4.425781-3.574219 8-8 8zm0 0"/></g><path d="m456.078125 360.078125h-24c-4.421875 0-8-3.574219-8-8 0-4.421875 3.578125-8 8-8h24c4.425781 0 8 3.578125 8 8 0 4.425781-3.574219 8-8 8zm0 0" fill="#5d9cec"/></svg>