<svg height="496pt" viewBox="0 -40 496 496" width="496pt" xmlns="http://www.w3.org/2000/svg"><path d="m240.121094 277.199219v34.800781l-24 16-24-8-24 8-24-16v-34.800781c14.542968 6.953125 30.800781 10.800781 48 10.800781 17.183594 0 33.429687-3.839844 48-10.800781zm0 0" fill="#f5f7fa"/><path d="m304.121094 136v40c0 44.640625-26.167969 83.199219-64 101.199219-14.5625 6.953125-30.816406 10.800781-48 10.800781-17.199219 0-33.457032-3.839844-48-10.800781-37.839844-18-64-56.558594-64-101.199219v-40.152344l32-31.839844s36.542968 16 80 16c43.4375 0 80-16 80-16zm0 0" fill="#eac6bb"/><path d="m272.121094 104v72c0 44.640625-26.167969 83.199219-64 101.199219-9.953125 4.753906-20.722656 7.914062-32 9.527343 5.230468.746094 10.542968 1.265626 16 1.265626 17.183594 0 33.4375-3.839844 48-10.800782 37.832031-18 64-56.558594 64-101.199218v-40zm0 0" fill="#d3b1a9"/><path d="m304.121094 88v48l-32-32s-36.5625 16-80 16c-43.457032 0-80-16-80-16l-32 31.839844v-39.839844c0-53.113281 42.949218-96 96-96h80v40c26.542968 0 48 21.441406 48 48zm0 0" fill="#965353"/><path d="m256.121094 40v-40h-32v56c26.542968 0 48 13.441406 48 40v8l32 32v-48c0-26.558594-21.457032-48-48-48zm0 0" fill="#844646"/><path d="m496 0v176l-112-.160156-3.28125 1.679687-44.71875 22.480469v-200zm0 0" fill="#ffce54"/><path d="m336 112v32h-31.921875v-32zm0 0" fill="#ccd1d9"/><path d="m384 184 .078125 232h-48v-48c0-30.960938-25.039063-56-56-56h-40v-34.800781c37.84375-18 64-56.558594 64-101.199219v-32h31.921875v56l44.71875-22.480469zm0 0" fill="#e6e9ed"/><path d="m80.078125 135.921875v8.078125h-80.078125v-16c0-8.871094 7.121094-16 16-16h64.078125zm0 0" fill="#ccd1d9"/><path d="m144.078125 277.199219v34.800781h-40c-30.957031 0-56 25.039062-56 56v48h-48v-272h80v32c0 44.640625 26.160156 83.199219 64 101.199219zm0 0" fill="#e6e9ed"/><path d="m336.078125 369.121094v46.878906h-288v-48c0-30.960938 25.042969-56 56-56h40l24 16 24-8 24 8 24-16h40c30.960937 0 56 25.039062 56 56zm0 0" fill="#5d9cec"/><path d="m280.078125 312h-32c30.960937 0 56 25.039062 56 56v48h32v-48c0-30.960938-25.039063-56-56-56zm0 0" fill="#4a89dc"/><path d="m192.3125 368c-4.425781 0-8.039062-3.574219-8.039062-8s3.535156-8 7.949218-8h.089844c4.414062 0 8 3.574219 8 8s-3.585938 8-8 8zm0 0" fill="#4a89dc"/><path d="m192.3125 400c-4.425781 0-8.039062-3.574219-8.039062-8s3.535156-8 7.949218-8h.089844c4.414062 0 8 3.574219 8 8s-3.585938 8-8 8zm0 0" fill="#4a89dc"/><g fill="#f6bb42"><path d="m456 80h-48c-4.425781 0-8-3.574219-8-8s3.574219-8 8-8h48c4.425781 0 8 3.574219 8 8s-3.574219 8-8 8zm0 0"/><path d="m456 48h-80c-4.425781 0-8-3.574219-8-8s3.574219-8 8-8h80c4.425781 0 8 3.574219 8 8s-3.574219 8-8 8zm0 0"/><path d="m456 112h-72c-4.425781 0-8-3.574219-8-8s3.574219-8 8-8h72c4.425781 0 8 3.574219 8 8s-3.574219 8-8 8zm0 0"/><path d="m456 144.007812h-40c-4.425781 0-8-3.582031-8-8 0-4.414062 3.574219-8 8-8h40c4.425781 0 8 3.585938 8 8 0 4.417969-3.574219 8-8 8zm0 0"/></g></svg>