<svg height="496pt" viewBox="0 -88 496 496" width="496pt" xmlns="http://www.w3.org/2000/svg"><path d="m64 0h368v32h-368zm0 0" fill="#ccd1d9"/><path d="m464 32v40h-432v-40zm0 0" fill="#e6e9ed"/><path d="m64 288h368v32h-368zm0 0" fill="#ccd1d9"/><path d="m464 248v40h-432v-40zm0 0" fill="#e6e9ed"/><path d="m496 72v176h-496v-176zm-360 88c0-26.558594-21.519531-48-48-48s-48 21.441406-48 48c0 14.320312 6.238281 27.199219 16.238281 35.921875v.078125c8.402344 7.441406 19.523438 12 31.761719 12s23.359375-4.558594 31.761719-12v-.078125c10-8.722656 16.238281-21.601563 16.238281-35.921875zm0 0" fill="#f5f7fa"/><path d="m88 112c26.480469 0 48 21.441406 48 48 0 14.320312-6.238281 27.199219-16.238281 35.921875-2.082031-15.84375-15.441407-27.921875-31.761719-27.921875 8.800781 0 16-7.199219 16-16 0-8.878906-7.199219-16-16-16s-16 7.121094-16 16c0 8.800781 7.199219 16 16 16-16.320312 0-29.679688 12.078125-31.761719 27.921875-10-8.722656-16.238281-21.601563-16.238281-35.921875 0-26.558594 21.519531-48 48-48zm0 0" fill="#656d78"/><path d="m119.761719 195.921875v.078125c-8.402344 7.441406-19.523438 12-31.761719 12s-23.359375-4.558594-31.761719-12v-.078125c2.082031-15.84375 15.441407-27.921875 31.761719-27.921875s29.679688 12.078125 31.761719 27.921875zm0 0" fill="#a0d468"/><path d="m95.761719 195.921875v.078125c-5.53125 4.894531-12.320313 8.382812-19.761719 10.304688.015625 0 .023438.007812.03125.007812 1.65625.421875 3.34375.757812 5.046875 1.046875 2.273437.328125 4.554687.640625 6.921875.640625 12.238281 0 23.359375-4.558594 31.761719-12v-.078125c-1.042969-7.914063-4.890625-14.890625-10.523438-19.890625-2.75 7.753906-7.40625 14.59375-13.476562 19.890625zm0 0" fill="#8cc152"/><path d="m88 112c-2 0-3.960938.152344-5.886719.398438-.21875.027343-.433593.074218-.648437.105468-1.832032.257813-3.648438.609375-5.425782 1.0625-.007812 0-.023437.007813-.039062.007813 20.671875 5.320312 36 24.027343 36 46.425781 0 5.625-.992188 11.015625-2.769531 16.03125 5.632812 5 9.488281 11.976562 10.523437 19.890625 10.007813-8.722656 16.246094-21.601563 16.246094-35.921875 0-26.558594-21.519531-48-48-48zm0 0" fill="#434a54"/><path d="m112 152c0 13.199219-10.800781 24-24 24s-24-10.800781-24-24c0-13.320312 10.800781-24 24-24s24 10.679688 24 24zm0 0" fill="#eac6bb"/><g fill="#ccd1d9"><path d="m232 120h-56c-4.425781 0-8-3.574219-8-8s3.574219-8 8-8h56c4.425781 0 8 3.574219 8 8s-3.574219 8-8 8zm0 0"/><path d="m456 152h-280c-4.425781 0-8-3.574219-8-8s3.574219-8 8-8h280c4.425781 0 8 3.574219 8 8s-3.574219 8-8 8zm0 0"/><path d="m456 184h-280c-4.425781 0-8-3.574219-8-8s3.574219-8 8-8h280c4.425781 0 8 3.574219 8 8s-3.574219 8-8 8zm0 0"/><path d="m304 216h-128c-4.425781 0-8-3.574219-8-8s3.574219-8 8-8h128c4.425781 0 8 3.574219 8 8s-3.574219 8-8 8zm0 0"/></g></svg>