<svg height="496pt" viewBox="-8 0 496 496" width="496pt" xmlns="http://www.w3.org/2000/svg"><path d="m96 384h384v88h-384zm60 64c11.039062 0 20-8.960938 20-20s-8.960938-20-20-20-20 8.960938-20 20 8.960938 20 20 20zm0 0" fill="#5d9cec"/><path d="m48.078125 256h335.921875v88h-384v-88zm11.921875 64c11.039062 0 20-8.960938 20-20s-8.960938-20-20-20-20 8.960938-20 20 8.960938 20 20 20zm0 0" fill="#5d9cec"/><path d="m431.921875 16v16h-384v-16c0-8.878906 7.191406-16 16-16h352c8.878906 0 16 7.121094 16 16zm0 0" fill="#ccd1d9"/><path d="m96 472h336.078125v24h-384v-152h335.921875v-88h-335.921875v-224h384v352h-336.078125zm0 0" fill="#e6e9ed"/><g fill="#ccd1d9"><path d="m247.863281 184h-152c-4.421875 0-8-3.574219-8-8s3.578125-8 8-8h152c4.425781 0 8 3.574219 8 8s-3.574219 8-8 8zm0 0"/><path d="m167.863281 216h-72c-4.421875 0-8-3.574219-8-8s3.578125-8 8-8h72c4.425781 0 8 3.574219 8 8s-3.574219 8-8 8zm0 0"/><path d="m383.863281 216h-184c-4.421875 0-8-3.574219-8-8s3.578125-8 8-8h184c4.425781 0 8 3.574219 8 8s-3.574219 8-8 8zm0 0"/><path d="m383.863281 184h-104c-4.421875 0-8-3.574219-8-8s3.578125-8 8-8h104c4.425781 0 8 3.574219 8 8s-3.574219 8-8 8zm0 0"/><path d="m247.863281 88h-152c-4.421875 0-8-3.574219-8-8s3.578125-8 8-8h152c4.425781 0 8 3.574219 8 8s-3.574219 8-8 8zm0 0"/><path d="m167.863281 120h-72c-4.421875 0-8-3.574219-8-8s3.578125-8 8-8h72c4.425781 0 8 3.574219 8 8s-3.574219 8-8 8zm0 0"/><path d="m383.863281 120h-184c-4.421875 0-8-3.574219-8-8s3.578125-8 8-8h184c4.425781 0 8 3.574219 8 8s-3.574219 8-8 8zm0 0"/><path d="m303.863281 152h-208c-4.421875 0-8-3.574219-8-8s3.578125-8 8-8h208c4.425781 0 8 3.574219 8 8s-3.574219 8-8 8zm0 0"/><path d="m383.863281 152h-48c-4.421875 0-8-3.574219-8-8s3.578125-8 8-8h48c4.425781 0 8 3.574219 8 8s-3.574219 8-8 8zm0 0"/><path d="m383.863281 88h-104c-4.421875 0-8-3.574219-8-8s3.578125-8 8-8h104c4.425781 0 8 3.574219 8 8s-3.574219 8-8 8zm0 0"/></g><path d="m344 296h-232c-4.425781 0-8-3.574219-8-8s3.574219-8 8-8h232c4.425781 0 8 3.574219 8 8s-3.574219 8-8 8zm0 0" fill="#4a89dc"/><path d="m224 320h-112c-4.425781 0-8-3.574219-8-8s3.574219-8 8-8h112c4.425781 0 8 3.574219 8 8s-3.574219 8-8 8zm0 0" fill="#4a89dc"/><path d="m440 424h-232c-4.425781 0-8-3.574219-8-8s3.574219-8 8-8h232c4.425781 0 8 3.574219 8 8s-3.574219 8-8 8zm0 0" fill="#4a89dc"/><path d="m320 448h-112c-4.425781 0-8-3.574219-8-8s3.574219-8 8-8h112c4.425781 0 8 3.574219 8 8s-3.574219 8-8 8zm0 0" fill="#4a89dc"/><path d="m72.167969 24c-4.425781 0-8.039063-3.574219-8.039063-8s3.535156-8 7.949219-8h.089844c4.417969 0 8 3.574219 8 8s-3.582031 8-8 8zm0 0" fill="#ed5565"/><path d="m96.167969 24c-4.425781 0-8.039063-3.574219-8.039063-8s3.535156-8 7.949219-8h.089844c4.417969 0 8 3.574219 8 8s-3.582031 8-8 8zm0 0" fill="#ffce54"/><path d="m120.167969 24c-4.425781 0-8.039063-3.574219-8.039063-8s3.535156-8 7.949219-8h.089844c4.417969 0 8 3.574219 8 8s-3.582031 8-8 8zm0 0" fill="#8cc152"/><path d="m80 300c0 15.464844-12.535156 28-28 28s-28-12.535156-28-28 12.535156-28 28-28 28 12.535156 28 28zm0 0" fill="#fff"/><path d="m176 428c0 15.464844-12.535156 28-28 28s-28-12.535156-28-28 12.535156-28 28-28 28 12.535156 28 28zm0 0" fill="#fff"/></svg>