<svg height="496pt" viewBox="0 -15 496 495" width="496pt" xmlns="http://www.w3.org/2000/svg"><path d="m216 96.5h-215.839844v368h384v-368zm0 0" fill="#e6e9ed"/><path d="m216 96.5h-216v-16c0-8.800781 7.121094-16 16-16h200zm0 0" fill="#ccd1d9"/><path d="m47.910156 288.5h288v24h-288zm0 0" fill="#aab2bd"/><path d="m335.910156 160.5v88h-288v-104h168.089844v16h56v16l32-16zm0 0" fill="#ffce54"/><path d="m496 .5v160h-192l-32 16v-16h-56v-160zm0 0" fill="#ed5565"/><path d="m464 76.261719-12 11.757812 2.800781 16.480469-14.800781-7.761719-14.878906 7.761719 2.878906-16.480469-12-11.757812 16.550781-2.402344 7.449219-15.039063 7.441406 15.039063zm0 0" fill="#ffce54"/><path d="m384 76.261719-12 11.757812 2.800781 16.480469-14.800781-7.761719-14.878906 7.761719 2.878906-16.480469-12-11.757812 16.550781-2.402344 7.449219-15.039063 7.441406 15.039063zm0 0" fill="#ffce54"/><path d="m304 76.261719-12 11.757812 2.800781 16.480469-14.800781-7.761719-14.878906 7.761719 2.878906-16.480469-12-11.757812 16.550781-2.402344 7.449219-15.039063 7.441406 15.039063zm0 0" fill="#ffce54"/><path d="m151.910156 208.5 23.769532 29.679688-7.769532 10.320312h-48zm0 0" fill="#434a54"/><path d="m175.679688 238.179688 40.230468-53.679688 48 64h-96zm0 0" fill="#656d78"/><g fill="#ccd1d9"><path d="m199.9375 360.5h-144c-4.425781 0-8-3.574219-8-8s3.574219-8 8-8h144c4.421875 0 8 3.574219 8 8s-3.578125 8-8 8zm0 0"/><path d="m119.9375 392.5h-64c-4.425781 0-8-3.574219-8-8s3.574219-8 8-8h64c4.421875 0 8 3.574219 8 8s-3.578125 8-8 8zm0 0"/><path d="m327.9375 392.5h-176c-4.425781 0-8-3.574219-8-8s3.574219-8 8-8h176c4.421875 0 8 3.574219 8 8s-3.578125 8-8 8zm0 0"/><path d="m255.9375 424.5h-200c-4.425781 0-8-3.574219-8-8s3.574219-8 8-8h200c4.421875 0 8 3.574219 8 8s-3.578125 8-8 8zm0 0"/><path d="m327.9375 424.5h-40c-4.425781 0-8-3.574219-8-8s3.574219-8 8-8h40c4.421875 0 8 3.574219 8 8s-3.578125 8-8 8zm0 0"/><path d="m327.9375 360.5h-96c-4.425781 0-8-3.574219-8-8s3.574219-8 8-8h96c4.421875 0 8 3.574219 8 8s-3.578125 8-8 8zm0 0"/></g><path d="m104.191406 200.460938c-8.824218 0-16.039062-7.144532-16.039062-15.960938s7.0625-15.960938 15.871094-15.960938h.167968c8.816406 0 15.960938 7.144532 15.960938 15.960938s-7.144532 15.960938-15.960938 15.960938zm0 0" fill="#ed5565"/><path d="m24.238281 88.5c-4.421875 0-8.039062-3.574219-8.039062-8s3.535156-8 7.953125-8h.085937c4.417969 0 8 3.574219 8 8s-3.582031 8-8 8zm0 0" fill="#ed5565"/><path d="m48.238281 88.5c-4.421875 0-8.039062-3.574219-8.039062-8s3.535156-8 7.953125-8h.085937c4.417969 0 8 3.574219 8 8s-3.582031 8-8 8zm0 0" fill="#ffce54"/><path d="m72.238281 88.5c-4.421875 0-8.039062-3.574219-8.039062-8s3.535156-8 7.953125-8h.085937c4.417969 0 8 3.574219 8 8s-3.582031 8-8 8zm0 0" fill="#8cc152"/></svg>