<svg height="495pt" viewBox="0 -21 495.96 495" width="495pt" xmlns="http://www.w3.org/2000/svg"><path d="m453.421875 43.027344c56.71875 56.730468 56.71875 148.730468 0 205.449218l-37.441406 37.429688v-160h-336v160l-37.441407-37.4375c-56.71875-56.722656-56.71875-148.722656 0-205.449219 56.722657-56.71875 148.722657-56.71875 205.441407 0 56.71875-56.710937 148.71875-56.710937 205.441406.007813zm0 0" fill="#ed5565"/><path d="m453.421875 43.027344c-32.441406-32.4375-76.410156-46.238282-118.722656-41.574219 31.679687 3.496094 62.441406 17.292969 86.722656 41.574219 56.71875 56.730468 56.71875 148.730468 0 205.449218l-37.441406 37.429688-152 152 16 16 168-168 37.441406-37.4375c56.71875-56.722656 56.71875-148.722656 0-205.441406zm0 0" fill="#da4453"/><path d="m79.980469 125.90625v160l168 168 168-168v-160zm288 104h-240v-64h240zm0 0" fill="#e6e9ed"/><g fill="#ccd1d9"><path d="m383.980469 285.90625-152 152 16 16 168-168v-32zm0 0"/><path d="m415.980469 117.90625v16h-336v-16c0-8.796875 7.121093-16 16-16h304c8.878906 0 16 7.203125 16 16zm0 0"/><path d="m231.980469 357.925781h-79.984375l16 16h63.984375c4.421875 0 8-3.578125 8-8 0-4.425781-3.578125-8-8-8zm0 0"/><path d="m263.980469 357.925781c-4.425781 0-8 3.574219-8 8 0 4.421875 3.574219 8 8 8h63.984375l8.015625-8.019531 7.984375-7.980469zm0 0"/><path d="m311.980469 325.925781h-191.984375l7.984375 7.980469 8.015625 8.019531h175.984375c4.421875 0 8-3.578125 8-8 0-4.425781-3.578125-8-8-8zm0 0"/><path d="m183.996094 389.925781 7.984375 7.980469 8.015625 8.019531h95.96875l8.015625-8.019531 7.984375-7.980469zm0 0"/><path d="m343.980469 325.925781c-4.425781 0-8 3.574219-8 8 0 4.421875 3.574219 8 8 8h15.984375l8.015625-8.019531 7.984375-7.980469zm0 0"/></g><path d="m303.980469 365.90625-8.015625 8.019531h32l8.015625-8.019531 7.984375-7.980469h-32zm0 0" fill="#aab2bd"/><path d="m271.980469 397.90625-8.015625 8.019531h32l8.015625-8.019531 7.984375-7.980469h-32zm0 0" fill="#aab2bd"/><path d="m343.964844 325.933594-7.984375 7.964844v.027343c0 4.421875 3.574219 8 8 8h15.984375l8.015625-8.019531 7.984375-7.980469h-31.984375zm0 0" fill="#aab2bd"/><path d="m263.980469 277.925781h-144c-4.425781 0-8-3.578125-8-8 0-4.425781 3.574219-8 8-8h144c4.421875 0 8 3.574219 8 8 0 4.421875-3.578125 8-8 8zm0 0" fill="#ccd1d9"/><path d="m175.980469 309.925781h-56c-4.425781 0-8-3.578125-8-8 0-4.425781 3.574219-8 8-8h56c4.421875 0 8 3.574219 8 8 0 4.421875-3.578125 8-8 8zm0 0" fill="#ccd1d9"/><path d="m375.980469 309.925781h-168c-4.425781 0-8-3.578125-8-8 0-4.425781 3.574219-8 8-8h168c4.421875 0 8 3.574219 8 8 0 4.421875-3.578125 8-8 8zm0 0" fill="#ccd1d9"/><path d="m375.980469 277.925781h-80c-4.425781 0-8-3.578125-8-8 0-4.425781 3.574219-8 8-8h80c4.421875 0 8 3.574219 8 8 0 4.421875-3.578125 8-8 8zm0 0" fill="#ccd1d9"/><path d="m119.980469 165.90625h256v64h-256zm0 0" fill="#ed5565"/><path d="m320.125 205.925781h-144c-4.425781 0-8-3.578125-8-8 0-4.425781 3.574219-8 8-8h144c4.421875 0 8 3.574219 8 8 0 4.421875-3.585938 8-8 8zm0 0" fill="#da4453"/></svg>