<svg height="496pt" viewBox="0 -52 496.16 496" width="496pt" xmlns="http://www.w3.org/2000/svg"><path d="m496 16.078125v16h-496v-16c0-8.878906 7.121094-16 16-16h464c8.800781 0 16 7.121094 16 16zm0 0" fill="#ccd1d9"/><path d="m496.160156 32.078125v360h-496v-360zm-32.082031 304v-32h-80v32zm-112 24v-296h-320v296zm0 0" fill="#e6e9ed"/><path d="m376.078125 304.078125h88v32h-88zm0 0" fill="#fff"/><path d="m320.078125 328.078125h32v32h-32zm0 0" fill="#656d78"/><path d="m352.078125 295.761719v32.316406h-128.078125v-32l-5.28125-24-5.359375-24h98.800781zm0 0" fill="#434a54"/><path d="m352.078125 64.078125v231.683594l-39.917969-47.683594v-184zm0 0" fill="#ccd1d9"/><path d="m288.078125 328.078125h32v32h-32zm0 0" fill="#6f7984"/><path d="m192 224.078125h-16l-5.367188 24h-98.632812v-184h240.160156v184h-98.800781l-5.28125-24zm40-88c0-22.078125-17.921875-40-40-40-22.089844 0-40 17.921875-40 40 0 13.042969 6.230469 24.640625 15.910156 32h.089844v16h48v-16c9.679688-7.277344 16-18.878906 16-32zm0 0" fill="#aab2bd"/><path d="m152.007812 120.078125h-8c-.007812 0-.015624 0-.023437 0-4.398437-.007813-7.976563-3.589844-7.976563-8v-16c0-4.421875-3.574218-8-8-8-4.421874 0-8 3.578125-8 8v16c0 13.234375 10.769532 24.011719 24 24.011719.015626 0 .023438-.011719.039063-.011719h7.960937c4.425782 0 8-3.574219 8-8 0-4.421875-3.574218-8-8-8zm0 0" fill="#ed5565"/><path d="m256.007812 88.078125c-4.421874 0-8 3.578125-8 8v16c0 4.410156-3.574218 7.992187-7.976562 8h-8.023438c-4.421874 0-8 3.578125-8 8 0 4.425781 3.578126 8 8 8h7.960938c.015625 0 .023438.011719.039062.011719 13.230469 0 24-10.777344 24-24.011719v-16c0-4.421875-3.574218-8-8-8zm0 0" fill="#ed5565"/><path d="m288.078125 328.078125v32h-192v-32zm0 0" fill="#656d78"/><path d="m160.078125 296.078125h64v32h-64zm0 0" fill="#da4453"/><path d="m192 184.078125h-24v-16h-.089844c-9.679687-7.359375-15.910156-18.957031-15.910156-32 0-22.078125 17.910156-40 40-40 22.078125 0 40 17.921875 40 40 0 13.121094-6.320312 24.722656-16 32v16zm0 0" fill="#ffce54"/><path d="m218.71875 272.078125-5.359375-24-5.28125-24h-32.078125l-5.367188 24-5.273437 24-5.359375 24h64zm0 0" fill="#ed5565"/><path d="m165.359375 272.078125-5.359375 24v32h-127.921875v-32.316406l39.921875-47.683594h98.632812zm0 0" fill="#434a54"/><path d="m64.078125 328.078125h32v32h-32zm0 0" fill="#6f7984"/><path d="m72 64.078125v184l-39.921875 47.683594v-231.683594zm0 0" fill="#ccd1d9"/><path d="m32.078125 328.078125h32v32h-32zm0 0" fill="#656d78"/><path d="m384.320312 72.078125c-4.425781 0-8.039062-3.574219-8.039062-8 0-4.421875 3.535156-8 7.949219-8h.089843c4.414063 0 8 3.578125 8 8 0 4.425781-3.585937 8-8 8zm0 0" fill="#ccd1d9"/><path d="m384.320312 112.078125c-4.425781 0-8.039062-3.574219-8.039062-8 0-4.421875 3.535156-8 7.949219-8h.089843c4.414063 0 8 3.578125 8 8 0 4.425781-3.585937 8-8 8zm0 0" fill="#ccd1d9"/><path d="m384.320312 152.078125c-4.425781 0-8.039062-3.574219-8.039062-8 0-4.421875 3.535156-8 7.949219-8h.089843c4.414063 0 8 3.578125 8 8 0 4.425781-3.585937 8-8 8zm0 0" fill="#ccd1d9"/><path d="m384.320312 192.078125c-4.425781 0-8.039062-3.574219-8.039062-8 0-4.421875 3.535156-8 7.949219-8h.089843c4.414063 0 8 3.578125 8 8 0 4.425781-3.585937 8-8 8zm0 0" fill="#ccd1d9"/><path d="m384.320312 232.078125c-4.425781 0-8.039062-3.574219-8.039062-8 0-4.421875 3.535156-8 7.949219-8h.089843c4.414063 0 8 3.578125 8 8 0 4.425781-3.585937 8-8 8zm0 0" fill="#ccd1d9"/><path d="m208.246094 144.078125c-4.421875 0-8.039063-3.574219-8.039063-8 0-4.421875 3.535157-8 7.953125-8h.085938c4.417968 0 8 3.578125 8 8 0 4.425781-3.582032 8-8 8zm0 0" fill="#656d78"/><path d="m176.246094 144.078125c-4.421875 0-8.039063-3.574219-8.039063-8 0-4.421875 3.535157-8 7.953125-8h.085938c4.417968 0 8 3.578125 8 8 0 4.425781-3.582032 8-8 8zm0 0" fill="#656d78"/><g fill="#ccd1d9"><path d="m448.078125 72.078125h-40c-4.421875 0-8-3.574219-8-8 0-4.421875 3.578125-8 8-8h40c4.425781 0 8 3.578125 8 8 0 4.425781-3.574219 8-8 8zm0 0"/><path d="m464.078125 112.078125h-56c-4.421875 0-8-3.574219-8-8 0-4.421875 3.578125-8 8-8h56c4.425781 0 8 3.578125 8 8 0 4.425781-3.574219 8-8 8zm0 0"/><path d="m456.078125 152.078125h-48c-4.421875 0-8-3.574219-8-8 0-4.421875 3.578125-8 8-8h48c4.425781 0 8 3.578125 8 8 0 4.425781-3.574219 8-8 8zm0 0"/><path d="m432.078125 192.078125h-24c-4.421875 0-8-3.574219-8-8 0-4.421875 3.578125-8 8-8h24c4.425781 0 8 3.578125 8 8 0 4.425781-3.574219 8-8 8zm0 0"/><path d="m464.078125 232.078125h-56c-4.421875 0-8-3.574219-8-8 0-4.421875 3.578125-8 8-8h56c4.425781 0 8 3.578125 8 8 0 4.425781-3.574219 8-8 8zm0 0"/><path d="m384.320312 272.078125c-4.425781 0-8.039062-3.574219-8.039062-8 0-4.421875 3.535156-8 7.949219-8h.089843c4.414063 0 8 3.578125 8 8 0 4.425781-3.585937 8-8 8zm0 0"/><path d="m448.078125 272.078125h-40c-4.421875 0-8-3.574219-8-8 0-4.421875 3.578125-8 8-8h40c4.425781 0 8 3.578125 8 8 0 4.425781-3.574219 8-8 8zm0 0"/></g><path d="m456.078125 368.078125h-24c-4.421875 0-8-3.574219-8-8 0-4.421875 3.578125-8 8-8h24c4.425781 0 8 3.578125 8 8 0 4.425781-3.574219 8-8 8zm0 0" fill="#ed5565"/><path d="m192.007812 176.078125c-4.421874 0-8 3.578125-8 8h16c0-4.421875-3.574218-8-8-8zm0 0" fill="#f6bb42"/><path d="m24.246094 24.078125c-4.421875 0-8.039063-3.574219-8.039063-8 0-4.421875 3.535157-8 7.953125-8h.085938c4.417968 0 8 3.578125 8 8 0 4.425781-3.582032 8-8 8zm0 0" fill="#ed5565"/><path d="m48.246094 24.078125c-4.421875 0-8.039063-3.574219-8.039063-8 0-4.421875 3.535157-8 7.953125-8h.085938c4.417968 0 8 3.578125 8 8 0 4.425781-3.582032 8-8 8zm0 0" fill="#ffce54"/><path d="m72.246094 24.078125c-4.421875 0-8.039063-3.574219-8.039063-8 0-4.421875 3.535157-8 7.953125-8h.085938c4.417968 0 8 3.578125 8 8 0 4.425781-3.582032 8-8 8zm0 0" fill="#8cc152"/><path d="m200.007812 276.078125v4c0 4.425781-3.574218 8-8 8-4.421874 0-8-3.574219-8-8v-4h-19.535156l-4.472656 20h64l-4.398438-20zm0 0" fill="#d3374e"/><path d="m200.007812 224.078125c0-4.421875-3.574218-8-8-8-4.421874 0-8 3.578125-8 8v8h16zm0 0" fill="#da4453"/></svg>