<svg height="512pt" viewBox="-112 0 512 512" width="512pt" xmlns="http://www.w3.org/2000/svg"><path d="m288 48.007812c-.007812-26.433593-21.480469-47.929687-47.894531-47.9843745-.035157 0-.066407-.0234375-.105469-.0234375h-192c-26.472656 0-48 21.527344-48 48v.007812 407.992188c0 30.871094 25.128906 56 56 56h176c30.871094 0 56-25.128906 56-56zm0 0" fill="#656d78"/><path d="m272 320v-271.984375c0-17.648437-14.351562-32-32-32-.03125 0-.046875-.015625-.078125-.015625h-191.921875c-17.648438 0-32 14.351562-32 32v.007812 271.992188zm0 0" fill="#ac92ec"/><path d="m16 320h256v111.992188h-256zm0 0" fill="#e6e9ed"/><path d="m144 456c8.800781 0 16 7.199219 16 16s-7.199219 16-16 16-16-7.199219-16-16 7.199219-16 16-16zm0 0" fill="#aab2bd"/><path d="m218.238281 357.121094c6.800781 6.808594 6.800781 17.839844 0 24.640625l-26.238281 26.238281-24.640625-24.71875-1.597656-1.519531c-6.800781-6.800781-6.800781-17.832031 0-24.640625 6.804687-6.800782 17.917969-6.800782 24.71875 0l1.519531 1.519531 1.519531-1.519531c6.800781-6.800782 17.921875-6.800782 24.71875 0zm0 0" fill="#ed5565"/><path d="m103.199219 352 16.800781 16.878906-11.199219 11.121094 11.199219 11.199219-16.800781 16.800781-11.199219-11.199219-11.121094 11.199219-16.878906-16.800781 11.199219-11.199219-11.199219-11.199219 16.800781-16.800781 11.199219 11.199219zm0 0" fill="#656d78"/><path d="m224 280.078125v39.921875h-160v-39.921875c0-13.277344 10.800781-24 24.078125-24h15.921875v32h80v-32h16c13.199219 0 24 10.722656 24 24zm0 0" fill="#a0d468"/><path d="m224 152v128.078125c0-13.277344-10.800781-24-24-24h-32v-20.796875c23.441406-9.441406 40-32.402344 40-59.28125h-.078125l.078125-24zm0 0" fill="#773e3e"/><path d="m192 152h-128v-8c0-44.160156 35.839844-80 80-80s80 35.839844 80 80v8zm0 0" fill="#965353"/><path d="m144 64c-4.089844 0-8.078125.40625-12 1 38.457031 5.808594 68 38.929688 68 79v8h24v-8c0-44.160156-35.839844-80-80-80zm0 0" fill="#844646"/><path d="m208 152-.078125 24h.078125c0 26.878906-16.558594 49.839844-40 59.28125-7.359375 3.039062-15.519531 4.71875-24 4.71875s-16.558594-1.679688-23.921875-4.640625c-23.519531-9.4375-40.078125-32.480469-40.078125-59.359375h.078125l-.078125-24zm0 0" fill="#eac6bb"/><path d="m208 152h-24l-.078125 24h.078125c0 26.878906-16.558594 49.839844-40 59.28125-3.816406 1.566406-7.839844 2.765625-12.015625 3.558594 3.886719.746094 7.902344 1.160156 12.015625 1.160156 8.480469 0 16.640625-1.679688 24-4.71875 23.441406-9.441406 40-32.402344 40-59.28125h-.078125zm0 0" fill="#d3b1a9"/><path d="m119.921875 256 .15625-20.640625c7.363281 2.960937 15.441406 4.640625 23.921875 4.640625s16.640625-1.679688 24-4.71875v20.796875h16v32h-80v-32zm0 0" fill="#eac6bb"/><path d="m200 256.078125h-16v1.472656c9.28125 3.3125 16 12.089844 16 22.527344v39.921875h24v-39.921875c0-13.277344-10.800781-24-24-24zm0 0" fill="#8cc152"/><path d="m184 256.078125h-8c2.816406 0 5.488281.578125 8 1.472656zm0 0" fill="#d3b1a9"/><path d="m120.078125 235.359375-.15625 20.640625-15.921875.078125h-15.921875c-13.277344 0-24.078125 10.722656-24.078125 24v-128.078125h16l.078125 24h-.078125c0 26.878906 16.558594 49.921875 40.078125 59.359375zm0 0" fill="#773e3e"/><g fill="#844646"><path d="m192 136c-4.425781 0-8 3.574219-8 8v8h16v-8c0-4.425781-3.574219-8-8-8zm0 0"/><path d="m160 136c-4.425781 0-8 3.574219-8 8v8h16v-8c0-4.425781-3.574219-8-8-8zm0 0"/><path d="m128 136c-4.425781 0-8 3.574219-8 8v8h16v-8c0-4.425781-3.574219-8-8-8zm0 0"/><path d="m96 136c-4.425781 0-8 3.574219-8 8v8h16v-8c0-4.425781-3.574219-8-8-8zm0 0"/></g></svg>