<svg height="496pt" viewBox="0 -12 496.08 496" width="496pt" xmlns="http://www.w3.org/2000/svg"><path d="m248.078125 408.039062v24h-208v-96h208v24l-8 8h-8v8l-8 8 8 8v8h8zm0 0" fill="#fff"/><path d="m272.078125 384.039062-8 8v8h-8l-8 8-8-8h-8v-8l-8-8 8-8v-8h8l8-8 8 8h8v8zm0 0" fill="#ed5565"/><path d="m456.078125 336.039062v96h-208v-24l8-8h8v-8l8-8-8-8v-8h-8l-8-8v-24zm0 0" fill="#fff"/><path d="m392.078125 136.039062-48 32v-64zm0 0" fill="#fff"/><path d="m456.078125 72.039062v128h-184v-128zm-112 96 48-32-48-32zm0 0" fill="#ed5565"/><path d="m495.921875 16.039062v16h-495.921875v-16c0-8.878906 7.191406-15.9999995 16-15.9999995h463.921875c8.878906 0 16 7.1210935 16 15.9999995zm0 0" fill="#ccd1d9"/><path d="m224.078125 200.039062v-128h-184v128zm272-168v440h-495.917969v-440zm-40 400v-96h-416v96zm0-232v-128h-184v128zm0 0" fill="#e6e9ed"/><path d="m96.078125 160.039062 23.761719 29.679688-7.761719 10.320312h-48zm0 0" fill="#434a54"/><path d="m119.839844 189.71875 40.238281-53.679688 48 64h-96zm0 0" fill="#656d78"/><path d="m224.078125 72.039062v128h-16l-48-64-40.238281 53.679688-23.761719-29.679688-32 40h-24v-128zm0 0" fill="#a0d468"/><path d="m96.328125 128c-8.824219 0-16.039063-7.144531-16.039063-15.960938 0-8.816406 7.0625-15.960937 15.871094-15.960937h.167969c8.816406 0 15.960937 7.144531 15.960937 15.960937 0 8.816407-7.144531 15.960938-15.960937 15.960938zm0 0" fill="#ffce54"/><g fill="#ccd1d9"><path d="m216.070312 240.039062h-168c-4.421874 0-8-3.574218-8-8 0-4.421874 3.578126-8 8-8h168c4.425782 0 8 3.578126 8 8 0 4.425782-3.574218 8-8 8zm0 0"/><path d="m216.070312 272.039062h-168c-4.421874 0-8-3.574218-8-8 0-4.421874 3.578126-8 8-8h168c4.425782 0 8 3.578126 8 8 0 4.425782-3.574218 8-8 8zm0 0"/><path d="m128.070312 304.039062h-80c-4.421874 0-8-3.574218-8-8 0-4.421874 3.578126-8 8-8h80c4.425782 0 8 3.578126 8 8 0 4.425782-3.574218 8-8 8zm0 0"/><path d="m448.070312 240.039062h-168c-4.421874 0-8-3.574218-8-8 0-4.421874 3.578126-8 8-8h168c4.425782 0 8 3.578126 8 8 0 4.425782-3.574218 8-8 8zm0 0"/><path d="m448.070312 272.039062h-168c-4.421874 0-8-3.574218-8-8 0-4.421874 3.578126-8 8-8h168c4.425782 0 8 3.578126 8 8 0 4.425782-3.574218 8-8 8zm0 0"/><path d="m352.070312 304.039062h-72c-4.421874 0-8-3.574218-8-8 0-4.421874 3.578126-8 8-8h72c4.425782 0 8 3.578126 8 8 0 4.425782-3.574218 8-8 8zm0 0"/></g><path d="m184.070312 376.039062h-112c-4.421874 0-8-3.574218-8-8 0-4.421874 3.578126-8 8-8h112c4.425782 0 8 3.578126 8 8 0 4.425782-3.574218 8-8 8zm0 0" fill="#e6e9ed"/><path d="m152.070312 408.039062h-48c-4.421874 0-8-3.574218-8-8 0-4.421874 3.578126-8 8-8h48c4.425782 0 8 3.578126 8 8 0 4.425782-3.574218 8-8 8zm0 0" fill="#e6e9ed"/><path d="m424.070312 376.039062h-112c-4.421874 0-8-3.574218-8-8 0-4.421874 3.578126-8 8-8h112c4.425782 0 8 3.578126 8 8 0 4.425782-3.574218 8-8 8zm0 0" fill="#e6e9ed"/><path d="m392.070312 408.039062h-48c-4.421874 0-8-3.574218-8-8 0-4.421874 3.578126-8 8-8h48c4.425782 0 8 3.578126 8 8 0 4.425782-3.574218 8-8 8zm0 0" fill="#e6e9ed"/><path d="m24.246094 24.039062c-4.421875 0-8.039063-3.574218-8.039063-8 0-4.421874 3.535157-8 7.953125-8h.085938c4.417968 0 8 3.578126 8 8 0 4.425782-3.582032 8-8 8zm0 0" fill="#ed5565"/><path d="m48.246094 24.039062c-4.421875 0-8.039063-3.574218-8.039063-8 0-4.421874 3.535157-8 7.953125-8h.085938c4.417968 0 8 3.578126 8 8 0 4.425782-3.582032 8-8 8zm0 0" fill="#ffce54"/><path d="m72.246094 24.039062c-4.421875 0-8.039063-3.574218-8.039063-8 0-4.421874 3.535157-8 7.953125-8h.085938c4.417968 0 8 3.578126 8 8 0 4.425782-3.582032 8-8 8zm0 0" fill="#8cc152"/></svg>