<svg height="496pt" viewBox="-24 0 496 496" width="496pt" xmlns="http://www.w3.org/2000/svg"><path d="m447.839844 16v16h-447.839844v-16c0-8.878906 7.121094-16 16-16h415.839844c8.878906 0 16 7.121094 16 16zm0 0" fill="#ccd1d9"/><path d="m448 32v464h-447.839844v-464zm0 0" fill="#e6e9ed"/><path d="m112 352h32v80c0 8.878906-7.121094 16-16 16h-64c-8.800781 0-16-7.121094-16-16v-80zm0 0" fill="#ed5565"/><path d="m48 80h352v80h-352zm0 0" fill="#a0d468"/><g fill="#ccd1d9"><path d="m208.015625 208h-152c-4.421875 0-8-3.574219-8-8s3.578125-8 8-8h152c4.425781 0 8 3.574219 8 8s-3.574219 8-8 8zm0 0"/><path d="m120.015625 240h-64c-4.421875 0-8-3.574219-8-8s3.578125-8 8-8h64c4.425781 0 8 3.574219 8 8s-3.574219 8-8 8zm0 0"/><path d="m391.984375 240h-239.96875c-4.421875 0-8-3.574219-8-8s3.578125-8 8-8h239.96875c4.421875 0 8 3.574219 8 8s-3.578125 8-8 8zm0 0"/><path d="m144.015625 304h-88c-4.421875 0-8-3.574219-8-8s3.578125-8 8-8h88c4.425781 0 8 3.574219 8 8s-3.574219 8-8 8zm0 0"/><path d="m391.984375 304h-215.96875c-4.421875 0-8-3.574219-8-8s3.578125-8 8-8h215.96875c4.421875 0 8 3.574219 8 8s-3.578125 8-8 8zm0 0"/><path d="m255.984375 272h-199.96875c-4.421875 0-8-3.574219-8-8s3.578125-8 8-8h199.96875c4.421875 0 8 3.574219 8 8s-3.578125 8-8 8zm0 0"/><path d="m391.984375 272h-104c-4.425781 0-8-3.574219-8-8s3.574219-8 8-8h104c4.421875 0 8 3.574219 8 8s-3.578125 8-8 8zm0 0"/><path d="m391.984375 208h-151.96875c-4.421875 0-8-3.574219-8-8s3.578125-8 8-8h151.96875c4.421875 0 8 3.574219 8 8s-3.578125 8-8 8zm0 0"/><path d="m295.984375 360.007812h-103.96875c-4.421875 0-8-3.574218-8-8 0-4.421874 3.578125-8 8-8h103.96875c4.421875 0 8 3.578126 8 8 0 4.425782-3.578125 8-8 8zm0 0"/><path d="m232.015625 392.007812h-40c-4.421875 0-8-3.574218-8-8 0-4.421874 3.578125-8 8-8h40c4.425781 0 8 3.578126 8 8 0 4.425782-3.574219 8-8 8zm0 0"/><path d="m391.984375 392.007812h-128c-4.425781 0-8-3.574218-8-8 0-4.421874 3.574219-8 8-8h128c4.421875 0 8 3.578126 8 8 0 4.425782-3.578125 8-8 8zm0 0"/><path d="m263.984375 456.007812h-71.96875c-4.421875 0-8-3.574218-8-8 0-4.421874 3.578125-8 8-8h71.96875c4.421875 0 8 3.578126 8 8 0 4.425782-3.578125 8-8 8zm0 0"/><path d="m391.984375 456.007812h-96c-4.425781 0-8-3.574218-8-8 0-4.421874 3.574219-8 8-8h96c4.421875 0 8 3.578126 8 8 0 4.425782-3.578125 8-8 8zm0 0"/><path d="m335.984375 424.007812h-143.96875c-4.421875 0-8-3.574218-8-8 0-4.421874 3.578125-8 8-8h143.96875c4.421875 0 8 3.578126 8 8 0 4.425782-3.578125 8-8 8zm0 0"/><path d="m391.984375 424.007812h-24c-4.425781 0-8-3.574218-8-8 0-4.421874 3.574219-8 8-8h24c4.421875 0 8 3.578126 8 8 0 4.425782-3.578125 8-8 8zm0 0"/><path d="m391.984375 360.007812h-64c-4.425781 0-8-3.574218-8-8 0-4.421874 3.574219-8 8-8h64c4.421875 0 8 3.578126 8 8 0 4.425782-3.578125 8-8 8zm0 0"/></g><path d="m96.015625 320.007812c-13.230469 0-24 10.769532-24 24v24c0 4.425782 3.578125 8 8 8 4.425781 0 8-3.574218 8-8v-24c0-4.414062 3.585937-8 8-8 4.417969 0 8 3.585938 8 8v24c0 4.425782 3.578125 8 8 8 4.425781 0 8-3.574218 8-8v-24c0-13.230468-10.769531-24-24-24zm0 0" fill="#656d78"/><path d="m343.984375 128h-239.96875c-4.421875 0-8-3.574219-8-8s3.578125-8 8-8h239.96875c4.421875 0 8 3.574219 8 8s-3.578125 8-8 8zm0 0" fill="#8cc152"/><path d="m24.222656 24c-4.414062 0-8.039062-3.574219-8.039062-8s3.535156-8 7.953125-8h.085937c4.417969 0 8 3.574219 8 8s-3.582031 8-8 8zm0 0" fill="#ed5565"/><path d="m48.222656 24c-4.414062 0-8.039062-3.574219-8.039062-8s3.535156-8 7.953125-8h.085937c4.417969 0 8 3.574219 8 8s-3.582031 8-8 8zm0 0" fill="#ffce54"/><path d="m72.222656 24c-4.421875 0-8.039062-3.574219-8.039062-8s3.535156-8 7.953125-8h.085937c4.417969 0 8 3.574219 8 8s-3.582031 8-8 8zm0 0" fill="#8cc152"/></svg>