<svg height="504pt" viewBox="-36 0 504 504" width="504pt" xmlns="http://www.w3.org/2000/svg"><path d="m120 16v17.359375c-5.199219-.878906-10.558594-1.359375-16-1.359375s-10.800781.480469-16 1.359375v-17.359375c0-8.878906 7.199219-16 16-16s16 7.121094 16 16zm0 0" fill="#edab37"/><path d="m72 248h64c0 17.679688-14.320312 32-32 32s-32-14.320312-32-32zm0 0" fill="#f6bb42"/><path d="m112 248c0 13.433594-8.28125 24.871094-20 29.625 3.710938 1.503906 7.753906 2.375 12 2.375 17.679688 0 32-14.320312 32-32zm0 0" fill="#edab37"/><path d="m208 216v32h-208v-32zm0 0" fill="#ffce54"/><path d="m200 216h-16v32h24v-32zm0 0" fill="#f6bb42"/><path d="m200 128v88h-192v-88c0-47.601562 34.558594-87.039062 80-94.640625 5.199219-.878906 10.558594-1.359375 16-1.359375s10.800781.480469 16 1.359375c45.441406 7.601563 80 47.039063 80 94.640625zm0 0" fill="#f6bb42"/><path d="m120 33.359375c-5.199219-.878906-10.558594-1.359375-16-1.359375-4.0625 0-8.054688.34375-12 .847656 1.335938.167969 2.6875.28125 4 .503906 45.441406 7.601563 80 47.039063 80 94.640626v88h24v-88c0-47.59375-34.558594-87.03125-80-94.632813zm0 0" fill="#edab37"/><path d="m104 319.96875c-18.441406 0-36.871094-7.015625-50.910156-21.046875-3.128906-3.128906-3.128906-8.1875 0-11.3125 3.125-3.128906 8.183594-3.128906 11.308594 0 21.839843 21.832031 57.363281 21.832031 79.203124 0 3.125-3.128906 8.183594-3.128906 11.308594 0 3.128906 3.125 3.128906 8.183594 0 11.3125-14.039062 14.03125-32.46875 21.046875-50.910156 21.046875zm0 0" fill="#ffce54"/><path d="m104 351.953125c-26.632812 0-53.265625-10.136719-73.535156-30.410156-3.128906-3.128907-3.128906-8.183594 0-11.3125 3.128906-3.125 8.183594-3.125 11.3125 0 34.3125 34.296875 90.144531 34.296875 124.453125 0 3.128906-3.125 8.183593-3.125 11.3125 0 3.128906 3.128906 3.128906 8.183593 0 11.3125-20.277344 20.28125-46.910157 30.410156-73.542969 30.410156zm0 0" fill="#ffce54"/><path d="m392 292c0-11.039062 8.960938-20 20-20s20 8.960938 20 20v132l-16 40h-144l-32-56v-120c17.679688 0 32 14.320312 32 32v-140c0-11.039062 8.960938-20 20-20s20 8.960938 20 20v96c0-11.039062 8.960938-20 20-20s20 8.960938 20 20v8c0-11.039062 8.960938-20 20-20s20 8.960938 20 20zm0 0" fill="#eac6bb"/><path d="m412 272c-4.519531 0-8.648438 1.558594-12 4.097656 4.832031 3.65625 8 9.390625 8 15.902344v132l-16 40h24l16-40v-132c0-11.039062-8.960938-20-20-20zm0 0" fill="#d3b1a9"/><path d="m256 464h176v40h-176zm0 0" fill="#656d78"/><path d="m408 464h24v40h-24zm0 0" fill="#434a54"/><path d="m288.238281 496c-4.421875 0-8.039062-3.574219-8.039062-8s3.535156-8 7.953125-8h.085937c4.417969 0 8 3.574219 8 8s-3.582031 8-8 8zm0 0" fill="#ffce54"/><g fill="#d3b1a9"><path d="m352 304.007812c4.425781 0 8-3.574218 8-8v-27.910156c-4.832031 3.65625-8 9.390625-8 15.902344v-8c0-6.511719-3.167969-12.246094-8-15.902344v35.910156c0 4.425782 3.574219 8 8 8zm0 0"/><path d="m392 304c4.425781 0 8-3.574219 8-8v-19.902344c-4.832031 3.65625-8 9.390625-8 15.902344v-8c0-6.511719-3.167969-12.246094-8-15.902344v27.902344c0 4.425781 3.574219 8 8 8zm0 0"/><path d="m312 276v28.007812c4.425781 0 8-3.574218 8-8v-35.910156c-4.832031 3.65625-8 9.390625-8 15.902344zm0 0"/><path d="m272 320c0-8.0625-3.078125-15.34375-8-20.96875v44.96875c0 4.425781 3.574219 8 8 8zm0 0"/></g></svg>