<svg height="496pt" viewBox="0 -84 496 496" width="496pt" xmlns="http://www.w3.org/2000/svg"><path d="m440 280-8 16 20 32 20-32-8-16v-8h-24zm0 0" fill="#ffce54"/><path d="m452 0c11.039062 0 20 8.960938 20 20v252h-40v-252c0-11.039062 8.960938-20 20-20zm0 0" fill="#656d78"/><path d="m392 16v264c0 8.800781-7.199219 16-16 16h-272l-64 32v-32h-24c-8.800781 0-16-7.199219-16-16v-264c0-8.800781 7.199219-16 16-16h360c8.800781 0 16 7.199219 16 16zm0 0" fill="#ffce54"/><path d="m464 272v8l8 16-20 32v-56zm0 0" fill="#f6bb42"/><path d="m472 20v252h-20v-272c11.039062 0 20 8.960938 20 20zm0 0" fill="#434a54"/><path d="m472 128h-40v16h40zm0 0" fill="#434a54"/><path d="m472 240h-40v16h40zm0 0" fill="#434a54"/><g fill="#f6bb42"><path d="m160 56h-112c-4.425781 0-8-3.574219-8-8s3.574219-8 8-8h112c4.425781 0 8 3.574219 8 8s-3.574219 8-8 8zm0 0"/><path d="m232 56h-40c-4.425781 0-8-3.574219-8-8s3.574219-8 8-8h40c4.425781 0 8 3.574219 8 8s-3.574219 8-8 8zm0 0"/><path d="m104 96h-56c-4.425781 0-8-3.574219-8-8s3.574219-8 8-8h56c4.425781 0 8 3.574219 8 8s-3.574219 8-8 8zm0 0"/><path d="m344 96h-208c-4.425781 0-8-3.574219-8-8s3.574219-8 8-8h208c4.425781 0 8 3.574219 8 8s-3.574219 8-8 8zm0 0"/><path d="m184 176h-136c-4.425781 0-8-3.574219-8-8s3.574219-8 8-8h136c4.425781 0 8 3.574219 8 8s-3.574219 8-8 8zm0 0"/><path d="m344 176h-128c-4.425781 0-8-3.574219-8-8s3.574219-8 8-8h128c4.425781 0 8 3.574219 8 8s-3.574219 8-8 8zm0 0"/><path d="m304 256h-256c-4.425781 0-8-3.574219-8-8s3.574219-8 8-8h256c4.425781 0 8 3.574219 8 8s-3.574219 8-8 8zm0 0"/><path d="m344 256h-8c-4.425781 0-8-3.574219-8-8s3.574219-8 8-8h8c4.425781 0 8 3.574219 8 8s-3.574219 8-8 8zm0 0"/><path d="m344 56h-80c-4.425781 0-8-3.574219-8-8s3.574219-8 8-8h80c4.425781 0 8 3.574219 8 8s-3.574219 8-8 8zm0 0"/><path d="m80 136h-32c-4.425781 0-8-3.574219-8-8s3.574219-8 8-8h32c4.425781 0 8 3.574219 8 8s-3.574219 8-8 8zm0 0"/><path d="m296 136h-184c-4.425781 0-8-3.574219-8-8s3.574219-8 8-8h184c4.425781 0 8 3.574219 8 8s-3.574219 8-8 8zm0 0"/><path d="m344 136h-16c-4.425781 0-8-3.574219-8-8s3.574219-8 8-8h16c4.425781 0 8 3.574219 8 8s-3.574219 8-8 8zm0 0"/><path d="m104 216h-56c-4.425781 0-8-3.574219-8-8s3.574219-8 8-8h56c4.425781 0 8 3.574219 8 8s-3.574219 8-8 8zm0 0"/><path d="m264 216h-128c-4.425781 0-8-3.574219-8-8s3.574219-8 8-8h128c4.425781 0 8 3.574219 8 8s-3.574219 8-8 8zm0 0"/><path d="m344 216h-48c-4.425781 0-8-3.574219-8-8s3.574219-8 8-8h48c4.425781 0 8 3.574219 8 8s-3.574219 8-8 8zm0 0"/></g><path d="m480 24h-48v16h48v112c0 4.425781 3.574219 8 8 8s8-3.574219 8-8v-112c0-8.832031-7.175781-16-16-16zm0 0" fill="#ffce54"/><path d="m452 240h20v16h-20zm0 0" fill="#353b44"/><path d="m452 128h20v16h-20zm0 0" fill="#353b44"/></svg>