<svg height="496pt" viewBox="-32 0 496 496" width="496pt" xmlns="http://www.w3.org/2000/svg"><path d="m368 197.359375v85.28125l-128 85.359375-24 16-24-16-128-85.359375v-282.640625h304zm0 0" fill="#e6e9ed"/><path d="m207.679688 189.679688-7.679688 10.320312h-48l32-40zm0 0" fill="#434a54"/><path d="m248 136 48 64h-96l7.679688-10.320312zm0 0" fill="#656d78"/><path d="m312 56v144h-16l-48-64-40.320312 53.679688-23.679688-29.679688-32 40h-32v-144zm0 0" fill="#5d9cec"/><path d="m64 197.359375v85.28125l-64-42.640625zm0 0" fill="#edab37"/><path d="m196 108c0 8.835938-7.164062 16-16 16s-16-7.164062-16-16 7.164062-16 16-16 16 7.164062 16 16zm0 0" fill="#ffce54"/><path d="m432 240-64 42.640625v-85.28125zm0 0" fill="#edab37"/><path d="m432 240v256l-192-128 128-85.359375zm0 0" fill="#f6bb42"/><path d="m192 368-192 128v-256l64 42.640625zm0 0" fill="#f6bb42"/><path d="m432 496h-432l192-128 24 16 24-16zm0 0" fill="#ffce54"/><g fill="#ccd1d9"><path d="m304 248h-176c-4.425781 0-8-3.574219-8-8s3.574219-8 8-8h176c4.425781 0 8 3.574219 8 8s-3.574219 8-8 8zm0 0"/><path d="m304 280h-176c-4.425781 0-8-3.574219-8-8s3.574219-8 8-8h176c4.425781 0 8 3.574219 8 8s-3.574219 8-8 8zm0 0"/><path d="m264 312h-96c-4.425781 0-8-3.574219-8-8s3.574219-8 8-8h96c4.425781 0 8 3.574219 8 8s-3.574219 8-8 8zm0 0"/></g></svg>