<svg height="512pt" viewBox="0 -104 512 512" width="512pt" xmlns="http://www.w3.org/2000/svg"><path d="m88 72c-4.425781 0-8-3.574219-8-8v-56c0-4.425781 3.574219-8 8-8s8 3.574219 8 8v56c0 4.425781-3.574219 8-8 8zm0 0" fill="#ccd1d9"/><path d="m424 72c-4.425781 0-8-3.574219-8-8v-56c0-4.425781 3.574219-8 8-8s8 3.574219 8 8v56c0 4.425781-3.574219 8-8 8zm0 0" fill="#ccd1d9"/><g fill="#434a54"><path d="m200 208c-4.425781 0-8-3.574219-8-8v-8c0-4.425781 3.574219-8 8-8s8 3.574219 8 8v8c0 4.425781-3.574219 8-8 8zm0 0"/><path d="m312 208c-4.425781 0-8-3.574219-8-8v-8c0-4.425781 3.574219-8 8-8s8 3.574219 8 8v8c0 4.425781-3.574219 8-8 8zm0 0"/><path d="m176 240h-16v-136c0-4.425781-3.574219-8-8-8s-8 3.574219-8 8v144c0 4.425781 3.574219 8 8 8h24c4.425781 0 8-3.574219 8-8s-3.574219-8-8-8zm0 0"/><path d="m360 96c-4.425781 0-8 3.574219-8 8v136h-16c-4.425781 0-8 3.574219-8 8s3.574219 8 8 8h24c4.425781 0 8-3.574219 8-8v-144c0-4.425781-3.574219-8-8-8zm0 0"/></g><path d="m456 64v56h-64v-56zm0 0" fill="#ed5565"/><path d="m328 104v8c0 8.800781-7.199219 16-16 16h-112c-8.800781 0-16-7.199219-16-16v-8h-64v-40h64c0-8.800781 7.199219-16 16-16h112c8.800781 0 16 7.199219 16 16h64v40zm0 0" fill="#da4453"/><path d="m120 104v16h-64v-56h64zm0 0" fill="#ed5565"/><path d="m312 48h-112c-8.800781 0-16 7.199219-16 16v48c0 8.800781 7.199219 16 16 16h112c8.800781 0 16-7.199219 16-16v-48c0-8.800781-7.199219-16-16-16zm0 0" fill="#ed5565"/><path d="m288 248c0 17.671875-14.328125 32-32 32s-32-14.328125-32-32 14.328125-32 32-32 32 14.328125 32 32zm0 0" fill="#5d9cec"/><path d="m256 216c-4.246094 0-8.289062.863281-12 2.375 11.71875 4.753906 20 16.191406 20 29.625s-8.28125 24.871094-20 29.625c3.710938 1.511719 7.753906 2.375 12 2.375 17.679688 0 32-14.320312 32-32s-14.320312-32-32-32zm0 0" fill="#4a89dc"/><path d="m336 304h-160v-112h40l8-16h64l8 16h40zm-80-24c17.679688 0 32-14.320312 32-32s-14.320312-32-32-32-32 14.320312-32 32 14.320312 32 32 32zm0 0" fill="#656d78"/><path d="m168 24h-160c-4.425781 0-8-3.574219-8-8s3.574219-8 8-8h160c4.425781 0 8 3.574219 8 8s-3.574219 8-8 8zm0 0" fill="#e6e9ed"/><path d="m504 24h-160c-4.425781 0-8-3.574219-8-8s3.574219-8 8-8h160c4.425781 0 8 3.574219 8 8s-3.574219 8-8 8zm0 0" fill="#e6e9ed"/><path d="m288 104h-62.753906c-4.421875 0-8-3.574219-8-8s3.578125-8 8-8h62.753906c4.425781 0 8 3.574219 8 8s-3.574219 8-8 8zm0 0" fill="#da4453"/><path d="m288 48h-8c0 4.425781 3.574219 8 8 8s8-3.574219 8-8zm0 0" fill="#da4453"/><path d="m256 48h-8c0 4.425781 3.574219 8 8 8s8-3.574219 8-8zm0 0" fill="#da4453"/><path d="m224 48h-8c0 4.425781 3.574219 8 8 8s8-3.574219 8-8zm0 0" fill="#da4453"/></svg>