<svg height="495pt" viewBox="0 -15 495.92 495" width="495pt" xmlns="http://www.w3.org/2000/svg"><path d="m495.769531 16.460938v16h-495.769531v-16c0-8.800782 7.128906-16 16-16h463.769531c8.871094 0 16 7.199218 16 16zm0 0" fill="#ccd1d9"/><path d="m48 80.460938h399.921875v80h-399.921875zm0 0" fill="#48cfad"/><path d="m495.921875 32.460938v384h-344l-104 48v-48h-47.761719v-384zm-48 128v-80h-399.921875v80zm0 0" fill="#e6e9ed"/><g fill="#ccd1d9"><path d="m216.023438 208.460938h-160c-4.421876 0-8-3.578126-8-8 0-4.425782 3.578124-8 8-8h160c4.425781 0 8 3.574218 8 8 0 4.421874-3.574219 8-8 8zm0 0"/><path d="m120.023438 240.460938h-64c-4.421876 0-8-3.578126-8-8 0-4.425782 3.578124-8 8-8h64c4.425781 0 8 3.574218 8 8 0 4.421874-3.574219 8-8 8zm0 0"/><path d="m439.894531 240.460938h-287.871093c-4.421876 0-8-3.578126-8-8 0-4.425782 3.578124-8 8-8h287.871093c4.425781 0 8 3.574218 8 8 0 4.421874-3.574219 8-8 8zm0 0"/><path d="m144.023438 304.460938h-88c-4.421876 0-8-3.578126-8-8 0-4.425782 3.578124-8 8-8h88c4.425781 0 8 3.574218 8 8 0 4.421874-3.574219 8-8 8zm0 0"/><path d="m439.894531 304.460938h-263.871093c-4.421876 0-8-3.578126-8-8 0-4.425782 3.578124-8 8-8h263.871093c4.425781 0 8 3.574218 8 8 0 4.421874-3.574219 8-8 8zm0 0"/><path d="m279.992188 272.460938h-223.96875c-4.421876 0-8-3.578126-8-8 0-4.425782 3.578124-8 8-8h223.96875c4.421874 0 8 3.574218 8 8 0 4.421874-3.578126 8-8 8zm0 0"/><path d="m439.894531 272.460938h-127.902343c-4.425782 0-8-3.578126-8-8 0-4.425782 3.574218-8 8-8h127.902343c4.425781 0 8 3.574218 8 8 0 4.421874-3.574219 8-8 8zm0 0"/><path d="m439.894531 208.460938h-191.871093c-4.421876 0-8-3.578126-8-8 0-4.425782 3.578124-8 8-8h191.871093c4.425781 0 8 3.574218 8 8 0 4.421874-3.574219 8-8 8zm0 0"/><path d="m216.023438 336.460938h-160c-4.421876 0-8-3.578126-8-8 0-4.425782 3.578124-8 8-8h160c4.425781 0 8 3.574218 8 8 0 4.421874-3.574219 8-8 8zm0 0"/><path d="m120.023438 368.460938h-64c-4.421876 0-8-3.578126-8-8 0-4.425782 3.578124-8 8-8h64c4.425781 0 8 3.574218 8 8 0 4.421874-3.574219 8-8 8zm0 0"/><path d="m439.894531 368.460938h-287.871093c-4.421876 0-8-3.578126-8-8 0-4.425782 3.578124-8 8-8h287.871093c4.425781 0 8 3.574218 8 8 0 4.421874-3.574219 8-8 8zm0 0"/><path d="m439.894531 336.460938h-191.871093c-4.421876 0-8-3.578126-8-8 0-4.425782 3.578124-8 8-8h191.871093c4.425781 0 8 3.574218 8 8 0 4.421874-3.574219 8-8 8zm0 0"/></g><path d="m391.894531 128.460938h-287.871093c-4.421876 0-8-3.578126-8-8 0-4.425782 3.578124-8 8-8h287.871093c4.425781 0 8 3.574218 8 8 0 4.421874-3.574219 8-8 8zm0 0" fill="#37bc9b"/><path d="m24.230469 24.460938c-4.421875 0-8.039063-3.578126-8.039063-8 0-4.425782 3.535156-8 7.953125-8h.085938c4.417969 0 8 3.574218 8 8 0 4.421874-3.582031 8-8 8zm0 0" fill="#ed5565"/><path d="m48.230469 24.460938c-4.421875 0-8.039063-3.578126-8.039063-8 0-4.425782 3.535156-8 7.953125-8h.085938c4.417969 0 8 3.574218 8 8 0 4.421874-3.582031 8-8 8zm0 0" fill="#ffce54"/><path d="m72.230469 24.460938c-4.421875 0-8.039063-3.578126-8.039063-8 0-4.425782 3.535156-8 7.953125-8h.085938c4.417969 0 8 3.574218 8 8 0 4.421874-3.582031 8-8 8zm0 0" fill="#8cc152"/></svg>