<svg height="512pt" viewBox="-32 0 512 512" width="512pt" xmlns="http://www.w3.org/2000/svg"><path d="m368 80c-.015625-26.425781-21.488281-47.921875-47.894531-47.976562-.035157 0-.066407-.023438-.105469-.023438h-192c-26.472656 0-48 21.527344-48 48v376c0 30.871094 25.128906 56 56 56h176c30.871094 0 56-25.128906 56-56zm0 0" fill="#434a54"/><path d="m368 48c-.015625-26.425781-21.488281-47.921875-47.894531-47.9765625-.035157 0-.066407-.0234375-.105469-.0234375h-192c-26.472656 0-48 21.527344-48 48v376c0 30.871094 25.128906 56 56 56h176c30.871094 0 56-25.128906 56-56zm0 0" fill="#656d78"/><path d="m96 64.015625h256v335.984375h-256zm0 0" fill="#ac92ec"/><path d="m224 424c8.878906 0 16 7.199219 16 16 0 8.871094-7.121094 16-16 16-8.800781 0-16-7.128906-16-16 0-8.800781 7.199219-16 16-16zm0 0" fill="#aab2bd"/><path d="m200.238281 40c-4.421875 0-8.039062-3.585938-8.039062-8 0-4.425781 3.535156-8 7.953125-8h.085937c4.417969 0 8 3.574219 8 8 0 4.414062-3.582031 8-8 8zm0 0" fill="#5d9cec"/><path d="m248 40h-24c-4.425781 0-8-3.585938-8-8 0-4.425781 3.574219-8 8-8h24c4.425781 0 8 3.574219 8 8 0 4.414062-3.574219 8-8 8zm0 0" fill="#434a54"/><path d="m448 104v144h-152l-40 24v-168zm0 0" fill="#ffce54"/><path d="m192 192v168l-40-24h-152v-144zm0 0" fill="#ffce54"/><g fill="#f6bb42"><path d="m408 152h-112c-4.425781 0-8-3.574219-8-8s3.574219-8 8-8h112c4.425781 0 8 3.574219 8 8s-3.574219 8-8 8zm0 0"/><path d="m408 184h-112c-4.425781 0-8-3.574219-8-8s3.574219-8 8-8h112c4.425781 0 8 3.574219 8 8s-3.574219 8-8 8zm0 0"/><path d="m352 216h-56c-4.425781 0-8-3.574219-8-8s3.574219-8 8-8h56c4.425781 0 8 3.574219 8 8s-3.574219 8-8 8zm0 0"/><path d="m152 240h-112c-4.425781 0-8-3.574219-8-8s3.574219-8 8-8h112c4.425781 0 8 3.574219 8 8s-3.574219 8-8 8zm0 0"/><path d="m152 272h-112c-4.425781 0-8-3.574219-8-8s3.574219-8 8-8h112c4.425781 0 8 3.574219 8 8s-3.574219 8-8 8zm0 0"/><path d="m96 304h-56c-4.425781 0-8-3.574219-8-8s3.574219-8 8-8h56c4.425781 0 8 3.574219 8 8s-3.574219 8-8 8zm0 0"/></g></svg>