<svg height="496pt" viewBox="-104 0 496 496" width="496pt" xmlns="http://www.w3.org/2000/svg"><path d="m256 192h32v48h-32zm0 0" fill="#aab2bd"/><path d="m256 144h32v48h-32zm0 0" fill="#aab2bd"/><path d="m256 80h32v64h-32zm0 0" fill="#aab2bd"/><path d="m256 32h32v48h-32zm0 0" fill="#aab2bd"/><path d="m120 80c0 13.28125-10.71875 24-24 24s-24-10.71875-24-24 10.71875-24 24-24 24 10.71875 24 24zm0 0" fill="#ccd1d9"/><path d="m120 80v80c0-13.28125-10.71875-24-24-24s-24 10.71875-24 24v-80c0 13.28125 10.71875 24 24 24s24-10.71875 24-24zm0 0" fill="#656d78"/><path d="m96 136c13.28125 0 24 10.71875 24 24s-10.71875 24-24 24-24-10.71875-24-24 10.71875-24 24-24zm0 0" fill="#ccd1d9"/><path d="m152 200h-112v-160h112zm-56-16c13.28125 0 24-10.71875 24-24v-80c0-13.28125-10.71875-24-24-24s-24 10.71875-24 24v80c0 13.28125 10.71875 24 24 24zm0 0" fill="#e6e9ed"/><path d="m192 0v240h-192v-208c0-17.601562 14.398438-32 32-32zm-40 200v-160h-112v160zm0 0" fill="#656d78"/><path d="m224 272v224h-192c-17.601562 0-32-14.398438-32-32v-224h192zm0 0" fill="#5d9cec"/><path d="m224 496v-224l-32-32v-240h32c17.601562 0 32 14.398438 32 32v432c0 17.601562-14.398438 32-32 32zm0 0" fill="#434a54"/><g fill="#4a89dc"><path d="m32 280c-4.425781 0-8.039062-3.574219-8.039062-8s3.535156-8 7.949218-8h.089844c4.414062 0 8 3.574219 8 8s-3.585938 8-8 8zm0 0"/><path d="m96 280c-4.425781 0-8.039062-3.574219-8.039062-8s3.535156-8 7.949218-8h.089844c4.414062 0 8 3.574219 8 8s-3.585938 8-8 8zm0 0"/><path d="m64 312c-4.425781 0-8.039062-3.574219-8.039062-8s3.535156-8 7.949218-8h.089844c4.414062 0 8 3.574219 8 8s-3.585938 8-8 8zm0 0"/><path d="m32 344c-4.425781 0-8.039062-3.574219-8.039062-8s3.535156-8 7.949218-8h.089844c4.414062 0 8 3.574219 8 8s-3.585938 8-8 8zm0 0"/><path d="m160 280c-4.425781 0-8.039062-3.574219-8.039062-8s3.535156-8 7.949218-8h.089844c4.414062 0 8 3.574219 8 8s-3.585938 8-8 8zm0 0"/><path d="m128 312c-4.425781 0-8.039062-3.574219-8.039062-8s3.535156-8 7.949218-8h.089844c4.414062 0 8 3.574219 8 8s-3.585938 8-8 8zm0 0"/><path d="m96 344c-4.425781 0-8.039062-3.574219-8.039062-8s3.535156-8 7.949218-8h.089844c4.414062 0 8 3.574219 8 8s-3.585938 8-8 8zm0 0"/><path d="m64 376c-4.425781 0-8.039062-3.574219-8.039062-8s3.535156-8 7.949218-8h.089844c4.414062 0 8 3.574219 8 8s-3.585938 8-8 8zm0 0"/><path d="m32 408c-4.425781 0-8.039062-3.574219-8.039062-8s3.535156-8 7.949218-8h.089844c4.414062 0 8 3.574219 8 8s-3.585938 8-8 8zm0 0"/><path d="m192 312c-4.425781 0-8.039062-3.574219-8.039062-8s3.535156-8 7.949218-8h.089844c4.414062 0 8 3.574219 8 8s-3.585938 8-8 8zm0 0"/><path d="m160 344c-4.425781 0-8.039062-3.574219-8.039062-8s3.535156-8 7.949218-8h.089844c4.414062 0 8 3.574219 8 8s-3.585938 8-8 8zm0 0"/><path d="m128 376c-4.425781 0-8.039062-3.574219-8.039062-8s3.535156-8 7.949218-8h.089844c4.414062 0 8 3.574219 8 8s-3.585938 8-8 8zm0 0"/><path d="m96 408c-4.425781 0-8.039062-3.574219-8.039062-8s3.535156-8 7.949218-8h.089844c4.414062 0 8 3.574219 8 8s-3.585938 8-8 8zm0 0"/><path d="m64 440c-4.425781 0-8.039062-3.574219-8.039062-8s3.535156-8 7.949218-8h.089844c4.414062 0 8 3.574219 8 8s-3.585938 8-8 8zm0 0"/><path d="m32 472c-4.425781 0-8.039062-3.574219-8.039062-8s3.535156-8 7.949218-8h.089844c4.414062 0 8 3.574219 8 8s-3.585938 8-8 8zm0 0"/><path d="m192 376c-4.425781 0-8.039062-3.574219-8.039062-8s3.535156-8 7.949218-8h.089844c4.414062 0 8 3.574219 8 8s-3.585938 8-8 8zm0 0"/><path d="m160 408c-4.425781 0-8.039062-3.574219-8.039062-8s3.535156-8 7.949218-8h.089844c4.414062 0 8 3.574219 8 8s-3.585938 8-8 8zm0 0"/><path d="m128 440c-4.425781 0-8.039062-3.574219-8.039062-8s3.535156-8 7.949218-8h.089844c4.414062 0 8 3.574219 8 8s-3.585938 8-8 8zm0 0"/><path d="m96 472c-4.425781 0-8.039062-3.574219-8.039062-8s3.535156-8 7.949218-8h.089844c4.414062 0 8 3.574219 8 8s-3.585938 8-8 8zm0 0"/><path d="m192 440c-4.425781 0-8.039062-3.574219-8.039062-8s3.535156-8 7.949218-8h.089844c4.414062 0 8 3.574219 8 8s-3.585938 8-8 8zm0 0"/><path d="m160 472c-4.425781 0-8.039062-3.574219-8.039062-8s3.535156-8 7.949218-8h.089844c4.414062 0 8 3.574219 8 8s-3.585938 8-8 8zm0 0"/></g><path d="m96.238281 88c-4.421875 0-8.039062-3.574219-8.039062-8s3.535156-8 7.953125-8h.085937c4.417969 0 8 3.574219 8 8s-3.582031 8-8 8zm0 0" fill="#aab2bd"/><path d="m96.238281 168c-4.421875 0-8.039062-3.574219-8.039062-8s3.535156-8 7.953125-8h.085937c4.417969 0 8 3.574219 8 8s-3.582031 8-8 8zm0 0" fill="#aab2bd"/><path d="m96 112c-17.648438 0-32-14.351562-32-32s14.351562-32 32-32 32 14.351562 32 32-14.351562 32-32 32zm0-48c-8.824219 0-16 7.175781-16 16s7.175781 16 16 16 16-7.175781 16-16-7.175781-16-16-16zm0 0" fill="#434a54"/><path d="m96 192c-17.648438 0-32-14.351562-32-32s14.351562-32 32-32 32 14.351562 32 32-14.351562 32-32 32zm0-48c-8.824219 0-16 7.175781-16 16s7.175781 16 16 16 16-7.175781 16-16-7.175781-16-16-16zm0 0" fill="#434a54"/><path d="m120 168c-4.425781 0-8-3.574219-8-8v-80c0-4.425781 3.574219-8 8-8s8 3.574219 8 8v80c0 4.425781-3.574219 8-8 8zm0 0" fill="#434a54"/><path d="m72 168c-4.425781 0-8-3.574219-8-8v-80c0-4.425781 3.574219-8 8-8s8 3.574219 8 8v80c0 4.425781-3.574219 8-8 8zm0 0" fill="#434a54"/></svg>