<svg height="496pt" viewBox="-112 0 496 496" width="496pt" xmlns="http://www.w3.org/2000/svg"><path d="m88 160h96v-44.320312c33.273438 17.359374 56 52.167968 56 92.320312v24l-24-24s-36.558594 16-80 16c-43.449219 0-80-16-80-16l-24 24v-24c0-40.160156 22.71875-74.960938 56-92.320312zm0 0" fill="#965353"/><path d="m272 448v40c0 4.398438-3.519531 8-8 8h-256c-4.40625 0-8-3.601562-8-8v-40c0-30.960938 25.039062-56 56-56h32l24 16 24-8 24 8 24-16h32c30.953125 0 56 25.039062 56 56zm0 0" fill="#5d9cec"/><path d="m216 392h-32c30.953125 0 56 25.039062 56 56v40c0 4.398438-3.519531 8-8 8h32c4.480469 0 8-3.601562 8-8v-40c0-30.960938-25.046875-56-56-56zm0 0" fill="#4a89dc"/><path d="m184 348.320312v43.679688l-24 16-24-8-24 8-24-16v-43.679688c14.398438 7.441407 30.71875 11.679688 48 11.679688 17.273438 0 33.59375-4.238281 48-11.679688zm0 0" fill="#e6e9ed"/><path d="m240 256c0 40.160156-22.726562 74.960938-56 92.320312-14.40625 7.441407-30.726562 11.679688-48 11.679688-17.28125 0-33.601562-4.238281-48-11.679688-33.28125-17.359374-56-52.167968-56-92.320312v-24l24-24s36.550781 16 80 16c43.441406 0 80-16 80-16l24 24zm0 0" fill="#eac6bb"/><path d="m184 115.679688v25.863281c14.976562 18.015625 24 41.167969 24 66.457031v3.070312c5.0625-1.804687 8-3.070312 8-3.070312l24 24v-24c0-40.160156-22.726562-74.960938-56-92.320312zm0 0" fill="#844646"/><path d="m208 211.070312v44.929688c0 40.160156-22.726562 74.960938-56 92.320312-9.855469 5.085938-20.65625 8.535157-32 10.304688h.007812c2.046876.320312 4.121094.550781 6.183594.773438 3.25.304687 6.488282.601562 9.808594.601562 17.273438 0 33.59375-4.238281 48-11.679688 33.273438-17.359374 56-52.167968 56-92.320312v-24l-24-24s-2.9375 1.265625-8 3.070312zm0 0" fill="#d3b1a9"/><path d="m136.238281 440c-4.421875 0-8.039062-3.574219-8.039062-8s3.535156-8 7.953125-8h.085937c4.417969 0 8 3.574219 8 8s-3.582031 8-8 8zm0 0" fill="#4a89dc"/><path d="m136.238281 472c-4.421875 0-8.039062-3.574219-8.039062-8s3.535156-8 7.953125-8h.085937c4.417969 0 8 3.574219 8 8s-3.582031 8-8 8zm0 0" fill="#4a89dc"/><path d="m184 168h-96c-4.425781 0-8-3.574219-8-8s3.574219-8 8-8h96c4.425781 0 8 3.574219 8 8s-3.574219 8-8 8zm0 0" fill="#844646"/><path d="m248 40v16c0 8.878906-7.128906 16-16 16-8.808594 0-16-7.121094-16-16v-16zm0 0" fill="#aab2bd"/><path d="m216 56c0 8.878906 7.191406 16 16 16h-48v-56c0-8.878906 7.191406-16 16-16 8.871094 0 16 7.121094 16 16zm0 0" fill="#ccd1d9"/><path d="m184 16v144h-96v-144c0-8.878906 7.191406-16 16-16h96c-8.808594 0-16 7.121094-16 16zm0 0" fill="#e6e9ed"/><g fill="#ccd1d9"><path d="m152 40h-32c-4.425781 0-8-3.574219-8-8s3.574219-8 8-8h32c4.425781 0 8 3.574219 8 8s-3.574219 8-8 8zm0 0"/><path d="m152 72h-32c-4.425781 0-8-3.574219-8-8s3.574219-8 8-8h32c4.425781 0 8 3.574219 8 8s-3.574219 8-8 8zm0 0"/><path d="m152 104h-32c-4.425781 0-8-3.574219-8-8s3.574219-8 8-8h32c4.425781 0 8 3.574219 8 8s-3.574219 8-8 8zm0 0"/><path d="m152 136h-32c-4.425781 0-8-3.574219-8-8s3.574219-8 8-8h32c4.425781 0 8 3.574219 8 8s-3.574219 8-8 8zm0 0"/></g></svg>