<svg height="496pt" viewBox="0 -15 496 495" width="496pt" xmlns="http://www.w3.org/2000/svg"><path d="m346.960938 288.5c-12.320313 8.160156-22.722657 19.199219-30.082032 32-8.238281 14.078125-12.878906 30.480469-12.878906 48h-303.839844v-336h399.839844v240c-19.601562 0-37.839844 5.839844-53.039062 16zm5.039062-136v-80h-304v80zm0 0" fill="#e6e9ed"/><g fill="#ccd1d9"><path d="m176.03125 232.5h-128c-4.421875 0-8-3.574219-8-8s3.578125-8 8-8h128c4.425781 0 8 3.574219 8 8s-3.574219 8-8 8zm0 0"/><path d="m104.03125 264.5h-56c-4.421875 0-8-3.574219-8-8s3.578125-8 8-8h56c4.425781 0 8 3.574219 8 8s-3.574219 8-8 8zm0 0"/><path d="m352 264.5h-215.96875c-4.421875 0-8-3.574219-8-8s3.578125-8 8-8h215.96875c4.425781 0 8 3.574219 8 8s-3.574219 8-8 8zm0 0"/><path d="m128.03125 328.5h-80c-4.421875 0-8-3.574219-8-8s3.578125-8 8-8h80c4.425781 0 8 3.574219 8 8s-3.574219 8-8 8zm0 0"/><path d="m332.878906 328.5h-172.847656c-4.421875 0-8-3.574219-8-8s3.578125-8 8-8h172.847656c4.425782 0 8 3.574219 8 8s-3.574218 8-8 8zm0 0"/><path d="m248.03125 200.5h-200c-4.421875 0-8-3.574219-8-8s3.578125-8 8-8h200c4.425781 0 8 3.574219 8 8s-3.574219 8-8 8zm0 0"/><path d="m348.878906 200.5h-68.847656c-4.421875 0-8-3.574219-8-8s3.578125-8 8-8h68.847656c4.425782 0 8 3.574219 8 8s-3.574218 8-8 8zm0 0"/><path d="m248 296.5h-199.96875c-4.421875 0-8-3.574219-8-8s3.578125-8 8-8h199.96875c4.425781 0 8 3.574219 8 8s-3.574219 8-8 8zm0 0"/><path d="m351.96875 296.5h-71.96875c-4.425781 0-8-3.574219-8-8s3.574219-8 8-8h71.96875c4.421875 0 8 3.574219 8 8s-3.578125 8-8 8zm0 0"/><path d="m352 232.5h-143.96875c-4.421875 0-8-3.574219-8-8s3.578125-8 8-8h143.96875c4.425781 0 8 3.574219 8 8s-3.574219 8-8 8zm0 0"/></g><path d="m409.679688 393.378906c-1.121094 2.160156-1.679688 4.5625-1.679688 7.121094 0 8.800781 7.199219 16 16 16 8.878906 0 16-7.199219 16-16s-7.121094-16-16-16c-6.238281 0-11.679688 3.601562-14.320312 8.878906zm.800781-56.398437c2.800781 4.480469 7.839843 7.519531 13.519531 7.519531 8.878906 0 16-7.199219 16-16s-7.121094-16-16-16c-8.800781 0-16 7.199219-16 16 0 3.121094.878906 6 2.480469 8.480469zm-36.878907 23.039062c-2.882812-4.480469-7.839843-7.519531-13.601562-7.519531-8.800781 0-16 7.199219-16 16s7.199219 16 16 16c6.320312 0 11.679688-3.601562 14.320312-8.878906 1.121094-2.160156 1.679688-4.5625 1.679688-7.121094 0-3.121094-.878906-6-2.398438-8.480469zm26.398438-87.519531c53.039062 0 96 42.960938 96 96s-42.960938 96-96 96c-52.960938 0-96-42.960938-96-96 0-17.519531 4.640625-33.921875 12.878906-48 7.359375-12.800781 17.761719-23.839844 30.082032-32 15.199218-10.160156 33.4375-16 53.039062-16zm0 0" fill="#ac92ec"/><path d="m399.921875 32.5h-399.921875v-16c0-8.878906 7.121094-16 16-16h367.921875c8.796875 0 16 7.121094 16 16zm0 0" fill="#ccd1d9"/><path d="m40 72.5h320v80h-320zm0 0" fill="#ac92ec"/><path d="m296 120.5h-191.96875c-4.421875 0-8-3.574219-8-8s3.578125-8 8-8h191.96875c4.425781 0 8 3.574219 8 8s-3.574219 8-8 8zm0 0" fill="#967adc"/><path d="m409.710938 401.355469c-1.199219 0-2.421876-.269531-3.566407-.839844l-35.433593-17.726563c-3.949219-1.976562-5.550782-6.785156-3.574219-10.738281 1.976562-3.949219 6.785156-5.542969 10.734375-3.574219l35.433594 17.726563c3.953124 1.976563 5.550781 6.785156 3.574218 10.738281-1.40625 2.796875-4.230468 4.414063-7.167968 4.414063zm0 0" fill="#656d78"/><path d="m373.558594 368.027344c-2.664063 0-5.269532-1.328125-6.789063-3.757813-2.34375-3.753906-1.203125-8.691406 2.535157-11.027343l36.894531-23.0625c3.761719-2.359376 8.6875-1.207032 11.023437 2.535156 2.34375 3.753906 1.203125 8.6875-2.535156 11.023437l-36.894531 23.066407c-1.3125.839843-2.785157 1.222656-4.234375 1.222656zm0 0" fill="#656d78"/><path d="m24.023438 24.5c-4.421876 0-8.039063-3.574219-8.039063-8s3.535156-8 7.953125-8h.085938c4.417968 0 8 3.574219 8 8s-3.582032 8-8 8zm0 0" fill="#ed5565"/><path d="m48.023438 24.5c-4.421876 0-8.039063-3.574219-8.039063-8s3.535156-8 7.953125-8h.085938c4.417968 0 8 3.574219 8 8s-3.582032 8-8 8zm0 0" fill="#ffce54"/><path d="m72.023438 24.5c-4.421876 0-8.039063-3.574219-8.039063-8s3.535156-8 7.953125-8h.085938c4.417968 0 8 3.574219 8 8s-3.582032 8-8 8zm0 0" fill="#8cc152"/><path d="m377.894531 377.394531c-3.292969 6.609375-10 11.105469-17.894531 11.105469-11 0-20-9-20-20s9-20 20-20c7.191406 0 13.398438 3.800781 17 9.40625 1.894531 3.097656 3 6.699219 3 10.59375 0 3.199219-.703125 6.199219-2.105469 8.894531zm0 0" fill="#e6e9ed"/><path d="m406.105469 391.605469c3.292969-6.601563 10.085937-11.105469 17.894531-11.105469 11.105469 0 20 9 20 20s-8.894531 20-20 20c-11 0-20-9-20-20 0-3.199219.703125-6.199219 2.105469-8.894531zm0 0" fill="#e6e9ed"/><path d="m424 308.5c11.105469 0 20 9 20 20s-8.894531 20-20 20c-7.105469 0-13.398438-3.800781-16.902344-9.40625-1.992187-3.089844-3.097656-6.699219-3.097656-10.59375 0-11 9-20 20-20zm0 0" fill="#e6e9ed"/></svg>