<svg height="496pt" viewBox="0 0 496 496" width="496pt" xmlns="http://www.w3.org/2000/svg"><path d="m408 0v136h-24v16l-40-16h-80v-104h-32v-32zm0 0" fill="#da4453"/><path d="m264 136v32h-112l-40 16v-16h-24v-136h176zm0 0" fill="#ed5565"/><path d="m400 400c11.441406 0 22.398438-2.71875 32-7.519531v31.519531l-16 8-16-8-16 8-16-8v-31.519531c9.601562 4.800781 20.558594 7.519531 32 7.519531zm0 0" fill="#f5f7fa"/><path d="m496 488c0 4.398438-3.601562 8-8 8h-176c-4.398438 0-8-3.601562-8-8v-24c0-22.078125 17.921875-40 40-40h24l16 8 16-8 16 8 16-8h24c22.078125 0 40 17.921875 40 40zm0 0" fill="#5d9cec"/><path d="m456 424h-24l-1.34375.671875c18.894531 3.183594 33.34375 19.527344 33.34375 39.328125v24c0 4.398438-3.601562 8-8 8h32c4.398438 0 8-3.601562 8-8v-24c0-22.078125-17.921875-40-40-40zm0 0" fill="#4a89dc"/><path d="m472 304.238281v23.761719c0 28.238281-16.320312 52.71875-40 64.480469-9.601562 4.800781-20.558594 7.519531-32 7.519531s-22.398438-2.71875-32-7.519531c-23.601562-11.679688-39.839844-36-40-64.082031v-24.160157l24-16.238281s24.078125 8 52 8 44-8 44-8zm0 0" fill="#eac6bb"/><path d="m448 288s-2.855469 1.367188-8 2.960938v37.039062c0 28.238281-16.320312 52.71875-40 64.480469-5 2.503906-10.382812 4.40625-16 5.6875 5.167969 1.175781 10.519531 1.832031 16 1.832031 11.441406 0 22.398438-2.71875 32-7.519531 23.679688-11.761719 40-36.234375 40-64.480469v-23.761719zm0 0" fill="#d3b1a9"/><path d="m472 280v24.238281l-24-16.238281s-16.078125 8-44 8-52-8-52-8l-24 16.238281v-24.238281c0-35.359375 28.640625-64 64-64h48v32c17.679688 0 32 14.320312 32 32zm0 0" fill="#965353"/><path d="m440 248v-32h-32v48c17.679688 0 32 6.320312 32 24v2.960938c5.144531-1.59375 8-2.960938 8-2.960938l24 16.238281v-24.238281c0-17.679688-14.320312-32-32-32zm0 0" fill="#844646"/><path d="m264 248h32l-72 72 16-56h-24l32-56h40zm0 0" fill="#ffce54"/><path d="m96 400c11.441406 0 22.398438-2.71875 32-7.519531v31.519531l-16 8-16-8-16 8-16-8v-31.519531c9.601562 4.800781 20.558594 7.519531 32 7.519531zm0 0" fill="#f5f7fa"/><path d="m112 432 16-8h24c22.078125 0 40 17.921875 40 40v24c0 4.398438-3.601562 8-8 8h-176c-4.398438 0-8-3.601562-8-8v-24c0-22.078125 17.921875-40 40-40h24l16 8 16-8zm0 0" fill="#e6e9ed"/><path d="m152 424h-24l-1.34375.671875c18.894531 3.183594 33.34375 19.527344 33.34375 39.328125v24c0 4.398438-3.601562 8-8 8h32c4.398438 0 8-3.601562 8-8v-24c0-22.078125-17.921875-40-40-40zm0 0" fill="#ccd1d9"/><path d="m168 292v12c-15.519531-20.238281-26.71875-24.960938-39.839844-23.761719l23.839844-34.878906c10.078125 12.878906 16 29.121094 16 46.640625zm0 0" fill="#f6bb42"/><path d="m152 245.359375-23.839844 34.878906c-21.28125 2-47.28125 20-104.160156 12.882813-2.558594-.320313-5.28125-.722656-8-1.121094 0-42 34-76 76-76 24.398438 0 46.160156 11.519531 60 29.359375zm0 0" fill="#ffce54"/><path d="m83.566406 216.496094c-2.605468.296875-5.167968.710937-7.695312 1.257812h-.007813c17.832031 3.796875 33.382813 13.757813 44.136719 27.605469 6.214844 7.953125 10.742188 17.226563 13.375 27.25l18.625-27.25c-13.839844-17.839844-35.601562-29.359375-60-29.359375-2.761719 0-5.488281.160156-8.167969.457031-.089843.007813-.175781.03125-.265625.039063zm0 0" fill="#f6bb42"/><path d="m152 245.359375-18.625 27.25c.664062 2.527344 1.289062 5.078125 1.695312 7.703125 4.785157.472656 9.472657 2.070312 14.355469 5.238281.550781.351563 1.101563.6875 1.652344 1.089844.800781.574219 1.617187 1.222656 2.433594 1.886719.777343.625 1.542969 1.289062 2.335937 2 .71875.648437 1.449219 1.320312 2.175782 2.039062.992187.976563 2.007812 2.066406 3.03125 3.175782.59375.640624 1.175781 1.25 1.785156 1.945312 1.671875 1.929688 3.375 3.992188 5.160156 6.3125v-12c0-17.519531-5.921875-33.761719-16-46.640625zm0 0" fill="#edab37"/><path d="m168 304v24c0 28.238281-16.320312 52.71875-40 64.480469-9.601562 4.800781-20.558594 7.519531-32 7.519531s-22.398438-2.71875-32-7.519531c-23.679688-11.761719-40-36.242188-40-64.480469v-34.878906c56.878906 7.125 82.878906-10.875 104.160156-12.875 13.121094-1.207032 24.320313 3.515625 39.839844 23.753906zm0 0" fill="#eac6bb"/><path d="m136 280.414062v47.585938c0 28.238281-16.320312 52.71875-40 64.480469-5 2.503906-10.382812 4.40625-16 5.6875 5.167969 1.175781 10.519531 1.832031 16 1.832031 11.441406 0 22.398438-2.71875 32-7.519531 23.679688-11.761719 40-36.234375 40-64.480469v-24c-12.351562-16.113281-21.976562-22.304688-32-23.585938zm0 0" fill="#d3b1a9"/><path d="m176 120c-4.425781 0-8-3.574219-8-8v-48c0-4.425781 3.574219-8 8-8s8 3.574219 8 8v48c0 4.425781-3.574219 8-8 8zm0 0" fill="#f5f7fa"/><path d="m176.238281 144c-4.421875 0-8.039062-3.574219-8.039062-8s3.535156-8 7.953125-8h.085937c4.417969 0 8 3.574219 8 8s-3.582031 8-8 8zm0 0" fill="#f5f7fa"/><g fill="#e6e9ed"><path d="m320 88c-4.425781 0-8-3.574219-8-8v-48c0-4.425781 3.574219-8 8-8s8 3.574219 8 8v48c0 4.425781-3.574219 8-8 8zm0 0"/><path d="m320.238281 112c-4.421875 0-8.039062-3.574219-8.039062-8s3.535156-8 7.953125-8h.085937c4.417969 0 8 3.574219 8 8s-3.582031 8-8 8zm0 0"/></g></svg>