<svg height="496pt" viewBox="-24 0 496 496" width="496pt" xmlns="http://www.w3.org/2000/svg"><path d="m0 160h24v40h-24zm0 0" fill="#aab2bd"/><path d="m56.078125 160v48h-32.078125v-56h32zm0 0" fill="#434a54"/><path d="m424 160h24v40h-24zm0 0" fill="#aab2bd"/><path d="m424 200v8h-32v-56h32zm0 0" fill="#434a54"/><path d="m391.839844 16v16h-335.839844v-16c0-8.878906 7.121094-16 16-16h303.839844c8.878906 0 16 7.121094 16 16zm0 0" fill="#ccd1d9"/><path d="m256 208h-16v-24h-31.921875v24h-152v-176h335.921875v176zm0 0" fill="#e6e9ed"/><path d="m224 192c-4.425781 0-8-3.574219-8-8v-8c0-4.425781 3.574219-8 8-8s8 3.574219 8 8v8c0 4.425781-3.574219 8-8 8zm0 0" fill="#aab2bd"/><path d="m240 207.519531v.480469h-31.921875v-24h31.921875zm0 0" fill="#ccd1d9"/><path d="m240 208h16c0 17.679688-14.320312 32-32 32s-32-14.320312-32-32zm0 0" fill="#aab2bd"/><path d="m279.441406 240c-5.59375 9.761719-13.679687 17.839844-23.441406 23.441406-9.359375 5.4375-20.320312 8.558594-32 8.558594s-22.640625-3.121094-32-8.558594c-9.761719-5.59375-17.839844-13.679687-23.441406-23.441406-5.4375-9.359375-8.558594-20.320312-8.558594-32h32c0 17.679688 14.320312 32 32 32s32-14.320312 32-32h32c0 11.679688-3.121094 22.640625-8.558594 32zm0 0" fill="#ccd1d9"/><path d="m288 208h92.960938c-32.320313 52.800781-90.5625 88-156.960938 88s-124.640625-35.199219-156.960938-88h92.960938c0 11.679688 3.121094 22.640625 8.558594 32 5.59375 9.761719 13.679687 17.839844 23.441406 23.441406 9.359375 5.4375 20.320312 8.558594 32 8.558594s22.640625-3.121094 32-8.558594c9.761719-5.59375 17.839844-13.679687 23.441406-23.441406 5.4375-9.359375 8.558594-20.320312 8.558594-32zm0 0" fill="#434a54"/><path d="m0 432c0 17.679688 14.320312 32 32 32h384c17.679688 0 32-14.320312 32-32v32c0 17.679688-14.320312 32-32 32h-384c-17.679688 0-32-14.320312-32-32zm0 0" fill="#434a54"/><path d="m380.960938 208h27.039062l40 224c0 17.679688-14.320312 32-32 32h-384c-17.679688 0-32-14.320312-32-32l40-224h27.039062c32.320313 52.800781 90.5625 88 156.960938 88s124.640625-35.199219 156.960938-88zm0 0" fill="#656d78"/><path d="m224 272c2.710938 0 5.375-.199219 8-.527344v-7.472656c0-4.425781-3.574219-8-8-8s-8 3.574219-8 8v7.472656c2.625.328125 5.289062.527344 8 .527344zm0 0" fill="#aab2bd"/><path d="m262.679688 258.992188-3.75-6.496094c-2.210938-3.832032-7.121094-5.144532-10.929688-2.929688-3.832031 2.210938-5.144531 7.113282-2.929688 10.929688l3.761719 6.503906c2.480469-1.046875 4.871094-2.230469 7.167969-3.566406 2.328125-1.328125 4.550781-2.832032 6.679688-4.441406zm0 0" fill="#aab2bd"/><path d="m265.566406 232c-2.207031 3.824219-.894531 8.71875 2.929688 10.929688l6.496094 3.75c1.609374-2.128907 3.113281-4.351563 4.449218-6.679688 1.335938-2.296875 2.519532-4.695312 3.566406-7.167969l-6.503906-3.761719c-3.832031-2.214843-8.710937-.902343-10.9375 2.929688zm0 0" fill="#aab2bd"/><path d="m171.503906 229.070312-6.503906 3.761719c1.046875 2.480469 2.230469 4.871094 3.566406 7.167969 1.335938 2.328125 2.832032 4.550781 4.449219 6.679688l6.496094-3.75c3.832031-2.210938 5.144531-7.113282 2.929687-10.929688-2.226562-3.832031-7.128906-5.144531-10.9375-2.929688zm0 0" fill="#aab2bd"/><path d="m200 249.566406c-3.832031-2.207031-8.71875-.902344-10.929688 2.929688l-3.75 6.496094c2.128907 1.609374 4.351563 3.113281 6.679688 4.449218 2.296875 1.335938 4.695312 2.519532 7.167969 3.566406l3.761719-6.503906c2.214843-3.824218.902343-8.71875-2.929688-10.9375zm0 0" fill="#aab2bd"/><g fill="#ccd1d9"><path d="m256.015625 80h-160c-4.421875 0-8-3.574219-8-8s3.578125-8 8-8h160c4.425781 0 8 3.574219 8 8s-3.574219 8-8 8zm0 0"/><path d="m168.015625 112h-72c-4.421875 0-8-3.574219-8-8s3.578125-8 8-8h72c4.425781 0 8 3.574219 8 8s-3.574219 8-8 8zm0 0"/><path d="m351.984375 112h-151.96875c-4.421875 0-8-3.574219-8-8s3.578125-8 8-8h151.96875c4.421875 0 8 3.574219 8 8s-3.578125 8-8 8zm0 0"/><path d="m176.015625 176h-80c-4.421875 0-8-3.574219-8-8s3.578125-8 8-8h80c4.425781 0 8 3.574219 8 8s-3.574219 8-8 8zm0 0"/><path d="m207.984375 144h-111.96875c-4.421875 0-8-3.574219-8-8s3.578125-8 8-8h111.96875c4.421875 0 8 3.574219 8 8s-3.578125 8-8 8zm0 0"/><path d="m351.984375 144h-112c-4.425781 0-8-3.574219-8-8s3.574219-8 8-8h112c4.421875 0 8 3.574219 8 8s-3.578125 8-8 8zm0 0"/><path d="m351.984375 80h-63.96875c-4.421875 0-8-3.574219-8-8s3.578125-8 8-8h63.96875c4.421875 0 8 3.574219 8 8s-3.578125 8-8 8zm0 0"/></g><path d="m64 352c-4.425781 0-8-3.574219-8-8s3.574219-8 8-8 8 3.574219 8 8-3.574219 8-8 8zm0 0" fill="#aab2bd"/><path d="m64 312c-13.464844 0-24 7.023438-24 16s10.535156 16 24 16 24-7.023438 24-16-10.535156-16-24-16zm0 0" fill="#ccd1d9"/><path d="m144 352c-4.425781 0-8-3.574219-8-8s3.574219-8 8-8 8 3.574219 8 8-3.574219 8-8 8zm0 0" fill="#aab2bd"/><path d="m144 312c-13.464844 0-24 7.023438-24 16s10.535156 16 24 16 24-7.023438 24-16-10.535156-16-24-16zm0 0" fill="#ccd1d9"/><path d="m224 352c-4.425781 0-8-3.574219-8-8s3.574219-8 8-8 8 3.574219 8 8-3.574219 8-8 8zm0 0" fill="#aab2bd"/><path d="m224 312c-13.464844 0-24 7.023438-24 16s10.535156 16 24 16 24-7.023438 24-16-10.535156-16-24-16zm0 0" fill="#ccd1d9"/><path d="m304 352c-4.425781 0-8-3.574219-8-8s3.574219-8 8-8 8 3.574219 8 8-3.574219 8-8 8zm0 0" fill="#aab2bd"/><path d="m304 312c-13.464844 0-24 7.023438-24 16s10.535156 16 24 16 24-7.023438 24-16-10.535156-16-24-16zm0 0" fill="#ccd1d9"/><path d="m384 352c-4.425781 0-8-3.574219-8-8s3.574219-8 8-8 8 3.574219 8 8-3.574219 8-8 8zm0 0" fill="#aab2bd"/><path d="m384 312c-13.464844 0-24 7.023438-24 16s10.535156 16 24 16 24-7.023438 24-16-10.535156-16-24-16zm0 0" fill="#ccd1d9"/><path d="m64 432c-4.425781 0-8-3.574219-8-8s3.574219-8 8-8 8 3.574219 8 8-3.574219 8-8 8zm0 0" fill="#aab2bd"/><path d="m64 392c-13.464844 0-24 7.023438-24 16s10.535156 16 24 16 24-7.023438 24-16-10.535156-16-24-16zm0 0" fill="#ccd1d9"/><path d="m144 432c-4.425781 0-8-3.574219-8-8s3.574219-8 8-8 8 3.574219 8 8-3.574219 8-8 8zm0 0" fill="#aab2bd"/><path d="m144 392c-13.464844 0-24 7.023438-24 16s10.535156 16 24 16 24-7.023438 24-16-10.535156-16-24-16zm0 0" fill="#ccd1d9"/><path d="m224 432c-4.425781 0-8-3.574219-8-8s3.574219-8 8-8 8 3.574219 8 8-3.574219 8-8 8zm0 0" fill="#aab2bd"/><path d="m224 392c-13.464844 0-24 7.023438-24 16s10.535156 16 24 16 24-7.023438 24-16-10.535156-16-24-16zm0 0" fill="#ccd1d9"/><path d="m304 432c-4.425781 0-8-3.574219-8-8s3.574219-8 8-8 8 3.574219 8 8-3.574219 8-8 8zm0 0" fill="#aab2bd"/><path d="m304 392c-13.464844 0-24 7.023438-24 16s10.535156 16 24 16 24-7.023438 24-16-10.535156-16-24-16zm0 0" fill="#ccd1d9"/><path d="m384 432c-4.425781 0-8-3.574219-8-8s3.574219-8 8-8 8 3.574219 8 8-3.574219 8-8 8zm0 0" fill="#aab2bd"/><path d="m384 392c-13.464844 0-24 7.023438-24 16s10.535156 16 24 16 24-7.023438 24-16-10.535156-16-24-16zm0 0" fill="#ccd1d9"/><path d="m104 392c-4.425781 0-8-3.574219-8-8s3.574219-8 8-8 8 3.574219 8 8-3.574219 8-8 8zm0 0" fill="#aab2bd"/><path d="m104 352c-13.464844 0-24 7.023438-24 16s10.535156 16 24 16 24-7.023438 24-16-10.535156-16-24-16zm0 0" fill="#ccd1d9"/><path d="m184 392c-4.425781 0-8-3.574219-8-8s3.574219-8 8-8 8 3.574219 8 8-3.574219 8-8 8zm0 0" fill="#aab2bd"/><path d="m184 352c-13.464844 0-24 7.023438-24 16s10.535156 16 24 16 24-7.023438 24-16-10.535156-16-24-16zm0 0" fill="#ccd1d9"/><path d="m264 392c-4.425781 0-8-3.574219-8-8s3.574219-8 8-8 8 3.574219 8 8-3.574219 8-8 8zm0 0" fill="#aab2bd"/><path d="m264 352c-13.464844 0-24 7.023438-24 16s10.535156 16 24 16 24-7.023438 24-16-10.535156-16-24-16zm0 0" fill="#ccd1d9"/><path d="m344 392c-4.425781 0-8-3.574219-8-8s3.574219-8 8-8 8 3.574219 8 8-3.574219 8-8 8zm0 0" fill="#aab2bd"/><path d="m344 352c-13.464844 0-24 7.023438-24 16s10.535156 16 24 16 24-7.023438 24-16-10.535156-16-24-16zm0 0" fill="#ccd1d9"/><path d="m80.214844 24c-4.421875 0-8.039063-3.574219-8.039063-8s3.535157-8 7.953125-8h.085938c4.417968 0 8 3.574219 8 8s-3.582032 8-8 8zm0 0" fill="#ed5565"/><path d="m104.214844 24c-4.421875 0-8.039063-3.574219-8.039063-8s3.535157-8 7.953125-8h.085938c4.417968 0 8 3.574219 8 8s-3.582032 8-8 8zm0 0" fill="#ffce54"/><path d="m128.214844 24c-4.421875 0-8.039063-3.574219-8.039063-8s3.535157-8 7.953125-8h.085938c4.417968 0 8 3.574219 8 8s-3.582032 8-8 8zm0 0" fill="#8cc152"/></svg>