<svg height="496pt" viewBox="-32 0 496 496" width="496pt" xmlns="http://www.w3.org/2000/svg"><path d="m260 408-52-32v-49.199219c18.800781 10.878907 40.640625 17.121094 64 17.121094 14 0 27.441406-2.234375 40-6.402344v38.480469zm0 0" fill="#eac6bb"/><path d="m368 376-108 72-52-34.71875v-37.28125l52 32 52-32zm0 0" fill="#f5f7fa"/><path d="m416 248v88c-.078125 8.871094-7.121094 15.910156-16 15.910156v.089844h-88v-14.488281c43.441406-14.230469 76.640625-51.191407 85.601562-96.871094zm0 0" fill="#773e3e"/><path d="m176 28.078125v99.921875h-62.078125c6.476563-41.199219 29.519531-76.878906 62.078125-99.921875zm0 0" fill="#844646"/><path d="m416 153.679688v94.320312l-18.398438-7.359375-189.601562-75.839844v-4.800781c0-17.601562-14.398438-32-32-32v-99.921875c24.878906-17.757813 55.199219-28.078125 88-28.078125 83.921875 0 152 68.078125 152 152zm0 0" fill="#965353"/><path d="m264 0c-5.320312 0-10.542969.367188-15.71875.894531 76.261719 8.136719 135.71875 72.679688 135.71875 151.105469v83.199219l13.601562 5.441406 18.398438 7.359375v-96c0-83.921875-68.078125-152-152-152zm0 0" fill="#844646"/><path d="m208 164.800781 189.601562 75.839844c-8.960937 45.679687-42.160156 82.640625-85.601562 96.871094-12.558594 4.167969-26 6.398437-40 6.398437-23.359375 0-45.199219-6.230468-64-17.117187zm0 0" fill="#eac6bb"/><path d="m48 160c8.800781 0 16 7.121094 16 16 0 8.800781-7.199219 16-16 16-8.878906 0-16-7.199219-16-16 0-8.878906 7.121094-16 16-16zm0 0" fill="#5d9cec"/><path d="m136 320c0 17.671875-14.328125 32-32 32s-32-14.328125-32-32 14.328125-32 32-32 32 14.328125 32 32zm0 0" fill="#aab2bd"/><path d="m208 413.28125v50.71875c0 17.59375-14.398438 32-32 32h-144c-17.601562 0-32-14.40625-32-32v-304c0-17.601562 14.398438-32 32-32h144c17.601562 0 32 14.398438 32 32zm-72-93.28125c0-17.679688-14.320312-32-32-32s-32 14.320312-32 32 14.320312 32 32 32 32-14.320312 32-32zm-72-144c0-8.878906-7.199219-16-16-16-8.878906 0-16 7.121094-16 16 0 8.800781 7.121094 16 16 16 8.800781 0 16-7.199219 16-16zm0 0" fill="#656d78"/><path d="m384 376c26.558594 0 48 21.441406 48 48v72h-256c17.601562 0 32-14.40625 32-32v-50.71875l52 34.71875 108-72zm0 0" fill="#5d9cec"/><path d="m384 376c26.558594 0 48 21.441406 48 48v72h-256c17.601562 0 32-14.40625 32-32v-50.71875l52 34.71875 108-72zm0 0" fill="#48cfad"/><path d="m384 376h-32c26.558594 0 48 21.441406 48 48v72h32v-72c0-26.558594-21.441406-48-48-48zm0 0" fill="#37bc9b"/><path d="m368 376h-16c4.585938 0 9 .679688 13.191406 1.871094zm0 0" fill="#e6e9ed"/><path d="m366.9375 228.375c-6.265625 53.695312-42.859375 97.960938-92.25 115.433594 13.023438-.265625 25.558594-2.394532 37.3125-6.289063 24.007812-7.863281 44.855469-22.703125 60.246094-42.085937 1.226562-1.640625 2.53125-3.226563 3.683594-4.921875.0625-.085938.125-.167969.191406-.265625 10-14.820313 17.230468-31.671875 20.976562-49.804688zm0 0" fill="#d3b1a9"/><g fill="#434a54"><path d="m88.238281 184c-4.421875 0-8.039062-3.574219-8.039062-8s3.535156-8 7.953125-8h.085937c4.417969 0 8 3.574219 8 8s-3.582031 8-8 8zm0 0"/><path d="m160 472h-112c-4.425781 0-8-3.574219-8-8s3.574219-8 8-8h112c4.425781 0 8 3.574219 8 8s-3.574219 8-8 8zm0 0"/></g></svg>