<svg height="512pt" viewBox="-32 0 512 512" width="512pt" xmlns="http://www.w3.org/2000/svg"><path d="m368 80c-.015625-26.425781-21.488281-47.921875-47.894531-47.976562-.035157 0-.066407-.023438-.105469-.023438h-192c-26.472656 0-48 21.527344-48 48v376c0 30.871094 25.128906 56 56 56h176c30.871094 0 56-25.128906 56-56zm0 0" fill="#434a54"/><path d="m368 48c-.015625-26.425781-21.488281-47.921875-47.894531-47.9765625-.035157 0-.066407-.0234375-.105469-.0234375h-192c-26.472656 0-48 21.527344-48 48v376c0 30.871094 25.128906 56 56 56h176c30.871094 0 56-25.128906 56-56zm0 0" fill="#656d78"/><path d="m96 64.015625h256v335.984375h-256zm0 0" fill="#e6e9ed"/><path d="m224 424c8.878906 0 16 7.199219 16 16 0 8.871094-7.121094 16-16 16-8.800781 0-16-7.128906-16-16 0-8.800781 7.199219-16 16-16zm0 0" fill="#aab2bd"/><path d="m200.238281 40c-4.421875 0-8.039062-3.585938-8.039062-8 0-4.425781 3.535156-8 7.953125-8h.085937c4.417969 0 8 3.574219 8 8 0 4.414062-3.582031 8-8 8zm0 0" fill="#5d9cec"/><path d="m248 40h-24c-4.425781 0-8-3.585938-8-8 0-4.425781 3.574219-8 8-8h24c4.425781 0 8 3.574219 8 8 0 4.414062-3.574219 8-8 8zm0 0" fill="#434a54"/><path d="m392 184-56 32v-64zm0 0" fill="#fff"/><path d="m448 112v144h-192v-144zm-112 104 56-32-56-32zm0 0" fill="#ed5565"/><path d="m64 304 23.761719 29.679688-7.761719 10.320312h-48zm0 0" fill="#434a54"/><path d="m87.761719 333.679688 40.238281-53.679688 48 64h-96zm0 0" fill="#656d78"/><path d="m192 200v144h-16l-48-64-40.238281 53.679688-23.761719-29.679688-32 40h-32v-144zm0 0" fill="#5d9cec"/><path d="m64.257812 271.960938c-8.824218 0-16.042968-7.144532-16.042968-15.960938s7.066406-15.960938 15.875-15.960938h.167968c8.8125 0 15.957032 7.144532 15.957032 15.960938s-7.144532 15.960938-15.957032 15.960938zm0 0" fill="#ffce54"/></svg>