<svg height="512pt" viewBox="-112 0 512 512" width="512pt" xmlns="http://www.w3.org/2000/svg"><path d="m288 48.007812c-.007812-26.433593-21.480469-47.929687-47.894531-47.9843745-.035157 0-.066407-.0234375-.105469-.0234375h-192c-26.472656 0-48 21.527344-48 48v.007812 407.992188c0 30.871094 25.128906 56 56 56h176c30.871094 0 56-25.128906 56-56zm0 0" fill="#656d78"/><path d="m16 104h256v328h-256zm0 0" fill="#5d9cec"/><path d="m144 456c8.800781 0 16 7.199219 16 16s-7.199219 16-16 16-16-7.199219-16-16 7.199219-16 16-16zm0 0" fill="#aab2bd"/><path d="m144 456c8.800781 0 16 7.199219 16 16 0 8.878906-7.199219 16-16 16s-16-7.121094-16-16c0-8.800781 7.199219-16 16-16zm0 0" fill="#aab2bd"/><path d="m74.71875 187.679688c4.882812 4.800781 4.882812 12.71875 0 17.601562l-18.71875 18.71875-17.601562-17.679688-1.117188-1.039062c-4.882812-4.882812-4.882812-12.808594 0-17.601562 4.796875-4.878907 12.71875-4.878907 17.597656 0l1.121094 1.039062 1.121094-1.039062c4.878906-4.878907 12.800781-4.878907 17.597656 0zm0 0" fill="#da4453"/><path d="m250.71875 171.679688c4.882812 4.800781 4.882812 12.71875 0 17.601562l-18.71875 18.71875-17.601562-17.679688-1.117188-1.039062c-4.882812-4.882812-4.882812-12.808594 0-17.601562 4.796875-4.878907 12.71875-4.878907 17.597656 0l1.121094 1.039062 1.121094-1.039062c4.878906-4.878907 12.800781-4.878907 17.597656 0zm0 0" fill="#da4453"/><path d="m162.71875 139.679688c4.882812 4.800781 4.882812 12.71875 0 17.601562l-18.71875 18.71875-17.601562-17.679688-1.117188-1.039062c-4.882812-4.882812-4.882812-12.808594 0-17.601562 4.796875-4.878907 12.71875-4.878907 17.597656 0l1.121094 1.039062 1.121094-1.039062c4.878906-4.878907 12.800781-4.878907 17.597656 0zm0 0" fill="#da4453"/><path d="m240 16.015625c-.03125 0-.046875-.015625-.078125-.015625h-191.921875c-17.648438 0-32 14.351562-32 32v64h256v-63.984375c0-17.648437-14.351562-32-32-32zm0 0" fill="#e6e9ed"/><g fill="#5d9cec"><path d="m72 40c13.28125 0 24 10.71875 24 24s-10.71875 24-24 24-24-10.71875-24-24 10.71875-24 24-24zm0 0"/><path d="m216 40c13.28125 0 24 10.71875 24 24s-10.71875 24-24 24-24-10.71875-24-24 10.71875-24 24-24zm0 0"/><path d="m144 40c13.28125 0 24 10.71875 24 24s-10.71875 24-24 24-24-10.71875-24-24 10.71875-24 24-24zm0 0"/></g><path d="m216 408v24h-144v-24c0-13.28125 10.71875-24 24-24h24l24 16 24-16h24c13.28125 0 24 10.71875 24 24zm0 0" fill="#e6e9ed"/><path d="m192 384h-24c13.28125 0 24 10.71875 24 24v24h24v-24c0-13.28125-10.71875-24-24-24zm0 0" fill="#ccd1d9"/><path d="m168 362.558594v21.441406l-24 16-24-16v-21.519531c7.28125 3.519531 15.359375 5.449219 24 5.449219s16.71875-1.921876 24-5.449219zm0 0" fill="#eac6bb"/><path d="m136 288h16c19.121094 0 36.320312 8.398438 48 21.679688v2.320312c0 22.320312-13.039062 41.601562-32 50.480469-7.28125 3.519531-15.359375 5.449219-24 5.449219s-16.71875-1.921876-24-5.449219c-18.960938-8.871094-32-28.160157-32-50.480469v-24c13.28125 0 24-10.71875 24-24 0 13.28125 10.71875 24 24 24zm0 0" fill="#eac6bb"/><path d="m176 292.753906v19.246094c0 22.320312-13.039062 41.601562-32 50.480469-3.792969 1.832031-7.816406 3.207031-12 4.136719 3.855469.839843 7.855469 1.3125 12 1.3125 8.640625 0 16.71875-1.921876 24-5.449219 18.960938-8.871094 32-28.160157 32-50.480469v-2.320312c-6.488281-7.375-14.71875-13.175782-24-16.925782zm0 0" fill="#d3b1a9"/><path d="m112 224v40c0 13.28125-10.71875 24-24 24v-40c0-13.28125 10.71875-24 24-24zm0 0" fill="#da4453"/><path d="m152 208c-15.121094 0-29.039062 7.199219-40 16v40c0 13.28125 10.71875 24 24 24h16c19.121094 0 36.320312 8.398438 48 21.679688 3.167969 3.566406 5.929688 7.496093 8.230469 11.695312l.050781-.007812c.566406 1.503906 2.007812 2.59375 3.71875 2.59375 2.207031 0 3.992188-1.785157 4-3.992188v-47.96875c0-35.359375-28.640625-64-64-64zm0 0" fill="#ed5565"/><path d="m152 208c-5.167969 0-10.183594.886719-15 2.351562 27.089844 7.457032 47 32.183594 47 61.648438v24.601562c6.023438 3.496094 11.449219 7.894532 16 13.078126 3.167969 3.566406 5.929688 7.496093 8.230469 11.695312l.050781-.007812c.566406 1.503906 2.007812 2.59375 3.71875 2.59375 2.207031 0 3.992188-1.785157 4-3.992188v-47.96875c0-35.359375-28.640625-64-64-64zm0 0" fill="#da4453"/></svg>