<svg height="496pt" viewBox="-64 0 496 496" width="496pt" xmlns="http://www.w3.org/2000/svg"><path d="m336 328v8c0 8.808594-7.199219 16-16 16h-192c-8.800781 0-16-7.191406-16-16v-320c0-8.800781 7.199219-16 16-16h192c8.800781 0 16 7.199219 16 16v120c-13.28125 0-24 10.808594-24 24 0 13.28125 10.71875 24 24 24-13.28125 0-24 10.808594-24 24 0 13.28125 10.71875 24 24 24-13.28125 0-24 10.808594-24 24 0 13.28125 10.71875 24 24 24-13.28125 0-24 10.808594-24 24 0 13.28125 10.71875 24 24 24zm0 0" fill="#5d9cec"/><g fill="#eac6bb"><path d="m344 280c13.28125 0 24 10.808594 24 24 0 13.28125-10.71875 24-24 24h-8c-13.28125 0-24-10.71875-24-24 0-13.191406 10.71875-24 24-24zm0 0"/><path d="m344 232c13.28125 0 24 10.808594 24 24 0 13.28125-10.71875 24-24 24h-8c-13.28125 0-24-10.71875-24-24 0-13.191406 10.71875-24 24-24zm0 0"/><path d="m344 184c13.28125 0 24 10.808594 24 24 0 13.28125-10.71875 24-24 24h-8c-13.28125 0-24-10.71875-24-24 0-13.191406 10.71875-24 24-24zm0 0"/><path d="m344 136c13.28125 0 24 10.808594 24 24 0 13.28125-10.71875 24-24 24h-8c-13.28125 0-24-10.71875-24-24 0-13.191406 10.71875-24 24-24zm0 0"/><path d="m344 280c13.28125 0 24 10.808594 24 24 0 13.28125-10.71875 24-24 24h-8c-13.28125 0-24-10.71875-24-24 0-13.191406 10.71875-24 24-24zm0 0"/><path d="m344 184c13.28125 0 24 10.808594 24 24 0 13.28125-10.71875 24-24 24h-8c-13.28125 0-24-10.71875-24-24 0-13.191406 10.71875-24 24-24zm0 0"/><path d="m344 136c13.28125 0 24 10.808594 24 24 0 13.28125-10.71875 24-24 24h-8c-13.28125 0-24-10.71875-24-24 0-13.191406 10.71875-24 24-24zm0 0"/></g><path d="m344 232h-8c-2.824219 0-5.488281.574219-8 1.480469 9.3125 3.3125 16 12.136719 16 22.519531 0 10.464844-6.6875 19.238281-16 22.535156 2.511719.898438 5.175781 1.464844 8 1.464844h8c13.28125 0 24-10.71875 24-24 0-13.191406-10.71875-24-24-24zm0 0" fill="#d3b1a9"/><path d="m344 280h-8c-2.824219 0-5.488281.574219-8 1.480469 9.3125 3.3125 16 12.136719 16 22.519531 0 10.464844-6.6875 19.238281-16 22.535156 2.511719.898438 5.175781 1.464844 8 1.464844h8c13.28125 0 24-10.71875 24-24 0-13.191406-10.71875-24-24-24zm0 0" fill="#d3b1a9"/><path d="m344 136h-8c-2.824219 0-5.488281.574219-8 1.480469 9.3125 3.3125 16 12.136719 16 22.519531 0 10.464844-6.6875 19.238281-16 22.535156 2.511719.898438 5.175781 1.464844 8 1.464844h8c13.28125 0 24-10.71875 24-24 0-13.191406-10.71875-24-24-24zm0 0" fill="#d3b1a9"/><path d="m344 184h-8c-2.824219 0-5.488281.574219-8 1.480469 9.3125 3.3125 16 12.136719 16 22.519531 0 10.464844-6.6875 19.238281-16 22.535156 2.511719.898438 5.175781 1.464844 8 1.464844h8c13.28125 0 24-10.71875 24-24 0-13.191406-10.71875-24-24-24zm0 0" fill="#d3b1a9"/><path d="m280 136v80l-40-45.679688zm0 0" fill="#edab37"/><path d="m280 136-40 34.320312-16 13.679688-16-13.679688-40-34.320312zm0 0" fill="#ffce54"/><path d="m168 136 40 34.320312-40 45.679688zm0 0" fill="#edab37"/><path d="m224 184 16-13.679688 40 45.679688h-112l40-45.679688zm0 0" fill="#f6bb42"/><path d="m224 296c8.800781 0 16 7.199219 16 16 0 8.878906-7.199219 16-16 16s-16-7.121094-16-16c0-8.800781 7.199219-16 16-16zm0 0" fill="#4a89dc"/><path d="m312 352-96 106.488281-152-52.886719v-261.601562c26.558594 0 48 21.519531 48 48v144c0 8.808594 7.199219 16 16 16zm0 0" fill="#eac6bb"/><path d="m216 458.488281 16 5.511719-16 32h-216l48-96 16 5.601562zm0 0" fill="#656d78"/><path d="m64.238281 464c-4.421875 0-8.039062-3.574219-8.039062-8s3.535156-8 7.953125-8h.085937c4.417969 0 8 3.574219 8 8s-3.582031 8-8 8zm0 0" fill="#ffce54"/><path d="m200.238281 40c-4.421875 0-8.039062-3.574219-8.039062-8s3.535156-8 7.953125-8h.085937c4.417969 0 8 3.574219 8 8s-3.582031 8-8 8zm0 0" fill="#4a89dc"/><path d="m248 40h-24c-4.425781 0-8-3.574219-8-8s3.574219-8 8-8h24c4.425781 0 8 3.574219 8 8s-3.574219 8-8 8zm0 0" fill="#4a89dc"/></svg>