<svg height="496pt" viewBox="-64 0 496 496" width="496pt" xmlns="http://www.w3.org/2000/svg"><path d="m296 184v8h-224v-51.679688c52.800781-12.082031 94.558594-53.199218 107.601562-105.601562 66.238282 12.882812 116.398438 79.28125 116.398438 149.28125zm0 0" fill="#ffce54"/><path d="m179.601562 34.71875c-.816406 3.273438-1.746093 6.503906-2.777343 9.6875 51.191406 23.824219 87.175781 80.355469 87.175781 139.59375v8h32v-8c0-70-50.160156-136.398438-116.398438-149.28125zm0 0" fill="#f6bb42"/><path d="m328 184v8h-32v-8c0-70-50.160156-136.398438-116.398438-149.28125-13.042968 52.402344-54.800781 93.519531-107.601562 105.601562v51.679688h-32v-80c61.921875 0 112-50.078125 112-112 97.28125 0 176 86.71875 176 184zm0 0" fill="#fc6e51"/><path d="m368 192v272h-264l-64 32v-32h-40v-272zm0 0" fill="#e6e9ed"/><g fill="#ccd1d9"><path d="m208.128906 256h-152c-4.425781 0-8-3.574219-8-8s3.574219-8 8-8h152c4.421875 0 8 3.574219 8 8s-3.585937 8-8 8zm0 0"/><path d="m112.128906 288h-56c-4.425781 0-8-3.574219-8-8s3.574219-8 8-8h56c4.421875 0 8 3.574219 8 8s-3.585937 8-8 8zm0 0"/><path d="m312 288h-167.871094c-4.425781 0-8-3.574219-8-8s3.574219-8 8-8h167.871094c4.425781 0 8 3.574219 8 8s-3.574219 8-8 8zm0 0"/><path d="m136.128906 352h-80c-4.425781 0-8-3.574219-8-8s3.574219-8 8-8h80c4.421875 0 8 3.574219 8 8s-3.585937 8-8 8zm0 0"/><path d="m312 352h-143.871094c-4.425781 0-8-3.574219-8-8s3.574219-8 8-8h143.871094c4.425781 0 8 3.574219 8 8s-3.574219 8-8 8zm0 0"/><path d="m232.097656 320h-175.96875c-4.425781 0-8-3.574219-8-8s3.574219-8 8-8h175.96875c4.421875 0 8 3.574219 8 8s-3.585937 8-8 8zm0 0"/><path d="m312 320h-47.902344c-4.425781 0-8-3.574219-8-8s3.574219-8 8-8h47.902344c4.425781 0 8 3.574219 8 8s-3.574219 8-8 8zm0 0"/><path d="m312 256h-71.871094c-4.425781 0-8-3.574219-8-8s3.574219-8 8-8h71.871094c4.425781 0 8 3.574219 8 8s-3.574219 8-8 8zm0 0"/><path d="m208.128906 384h-152c-4.425781 0-8-3.574219-8-8s3.574219-8 8-8h152c4.421875 0 8 3.574219 8 8s-3.585937 8-8 8zm0 0"/><path d="m112.128906 416h-56c-4.425781 0-8-3.574219-8-8s3.574219-8 8-8h56c4.421875 0 8 3.574219 8 8s-3.585937 8-8 8zm0 0"/><path d="m312 416h-167.871094c-4.425781 0-8-3.574219-8-8s3.574219-8 8-8h167.871094c4.425781 0 8 3.574219 8 8s-3.574219 8-8 8zm0 0"/><path d="m312 384h-71.871094c-4.425781 0-8-3.574219-8-8s3.574219-8 8-8h71.871094c4.425781 0 8 3.574219 8 8s-3.574219 8-8 8zm0 0"/></g></svg>