<svg height="512pt" viewBox="-8 0 512 512" width="512pt" xmlns="http://www.w3.org/2000/svg"><path d="m392 80c-.015625-26.425781-21.488281-47.921875-47.894531-47.976562-.035157 0-.066407-.023438-.105469-.023438h-192c-26.472656 0-48 21.527344-48 48v376c0 30.871094 25.128906 56 56 56h176c30.871094 0 56-25.128906 56-56zm0 0" fill="#434a54"/><path d="m392 48c-.015625-26.425781-21.488281-47.921875-47.894531-47.9765625-.035157 0-.066407-.0234375-.105469-.0234375h-192c-26.472656 0-48 21.527344-48 48v376c0 30.871094 25.128906 56 56 56h176c30.871094 0 56-25.128906 56-56zm0 0" fill="#656d78"/><path d="m120 64.015625h256v335.984375h-256zm0 0" fill="#e6e9ed"/><path d="m248 424c8.878906 0 16 7.199219 16 16 0 8.871094-7.121094 16-16 16-8.800781 0-16-7.128906-16-16 0-8.800781 7.199219-16 16-16zm0 0" fill="#aab2bd"/><path d="m224.238281 40c-4.421875 0-8.039062-3.585938-8.039062-8 0-4.425781 3.535156-8 7.953125-8h.085937c4.417969 0 8 3.574219 8 8 0 4.414062-3.582031 8-8 8zm0 0" fill="#5d9cec"/><path d="m272 40h-24c-4.425781 0-8-3.585938-8-8 0-4.425781 3.574219-8 8-8h24c4.425781 0 8 3.574219 8 8 0 4.414062-3.574219 8-8 8zm0 0" fill="#434a54"/><path d="m433.359375 236.390625c5.839844-5.832031 15.28125-5.832031 21.121094 0 5.839843 5.839844 5.839843 15.28125 0 21.128906l-1.273438 1.273438-21.207031 21.199219-21.121094-21.199219-1.359375-1.273438c-5.839843-5.839843-5.839843-15.28125 0-21.128906 5.832031-5.832031 15.273438-5.832031 21.121094 0l1.359375 1.28125zm0 0" fill="#e6e9ed"/><path d="m454.480469 236.390625c-5.832031-5.832031-15.273438-5.832031-21.121094 0l-1.359375 1.28125-1.359375-1.28125c-5.839844-5.832031-15.28125-5.832031-21.121094 0-5.839843 5.839844-5.839843 15.28125 0 21.128906l1.359375 1.273438 21.121094 21.199219 22.472656-22.472657c5.847656-5.847656 5.847656-15.289062.007813-21.128906zm41.519531-44.398437v128h-128v-48l-8-16 8-16v-48zm0 0" fill="#ed5565"/><path d="m65.359375 188.390625c5.839844-5.832031 15.28125-5.832031 21.121094 0 5.839843 5.839844 5.839843 15.28125 0 21.128906l-1.359375 1.273438-21.121094 21.199219-22.480469-22.480469c-5.839843-5.839844-5.839843-15.28125 0-21.128907 5.832031-5.832031 15.273438-5.832031 21.121094 0l1.359375 1.289063zm0 0" fill="#e6e9ed"/><path d="m86.480469 188.390625c-5.832031-5.832031-15.273438-5.832031-21.121094 0l-1.359375 1.28125-1.359375-1.28125c-5.839844-5.832031-15.28125-5.832031-21.121094 0-5.839843 5.839844-5.839843 15.28125 0 21.128906l1.273438 1.273438 21.207031 21.199219 21.121094-21.199219 1.359375-1.273438c5.839843-5.847656 5.839843-15.289062 0-21.128906zm41.519531 3.601563 8 16-8 16v48h-128v-128h128zm0 0" fill="#ed5565"/><path d="m239.441406 309.671875-7.679687 10.320313h-48l32-40zm0 0" fill="#434a54"/><path d="m279.761719 255.992188 48 64h-96l7.679687-10.320313zm0 0" fill="#656d78"/><g fill="#5d9cec"><path d="m336 255.992188v64h-8.238281l-48-64-40.320313 53.679687-23.679687-29.679687-32 40h-23.761719v-176h176zm-104-44c0-6.640626-5.359375-12-12-12s-12 5.359374-12 12c0 6.640624 5.359375 12 12 12s12-5.359376 12-12zm0 0"/><path d="m160 64.015625h176v31.976563h-176zm0 0"/><path d="m336 367.992188v32.007812h-176v-32.007812zm0 0"/></g><path d="m236 211.992188c0 8.835937-7.164062 16-16 16s-16-7.164063-16-16c0-8.835938 7.164062-16 16-16s16 7.164062 16 16zm0 0" fill="#ffce54"/></svg>