<svg height="496pt" viewBox="-8 0 496 496" width="496pt" xmlns="http://www.w3.org/2000/svg"><path d="m198.878906 29.039062c12.160156 12.167969 12.160156 31.921876 0 44.082032l-2.800781 2.71875-44.078125 44.160156-46.878906-46.878906c-12.160156-12.160156-12.160156-31.914063 0-44.082032 12.085937-12.160156 31.917968-12.160156 44.167968 0l2.710938 2.800782 2.71875-2.808594c12.242188-12.152344 32.082031-12.152344 44.160156.007812zm0 0" fill="#ed5565"/><path d="m360 112h-40v-80h40zm0 0" fill="#656d78"/><path d="m424 40c8.878906 0 16 7.121094 16 16v40c0 8.878906-7.121094 16-16 16h-48l-8-8h-8v-64h16l8-28c2.320312-8.078125 5.359375-12 12-12s12 5.359375 12 12v28zm0 0" fill="#eac6bb"/><path d="m432 192c26.480469 0 48 21.519531 48 48s-21.519531 48-48 48-48-21.519531-48-48 21.519531-48 48-48zm0 0" fill="#a0d468"/><path d="m184 240-24 24v-40c0-39.761719 32.238281-72 72-72h64v32c22.078125 0 40 17.921875 40 40v40l-24-24s-29.679688 16-64 16-64-16-64-16zm0 0" fill="#965353"/><path d="m296 184v-32h-32v48c22.078125 0 40 9.921875 40 32v11.742188c5.070312-2.167969 8-3.742188 8-3.742188l24 24v-40c0-22.078125-17.921875-40-40-40zm0 0" fill="#844646"/><path d="m336 264v32c0 34.160156-19.519531 63.839844-48 78.398438-12 6.167968-25.601562 9.601562-40 9.601562s-28-3.441406-40-9.601562c-28.480469-14.550782-48-44.238282-48-78.398438v-32l24-24s29.679688 16 64 16 64-16 64-16zm0 0" fill="#eac6bb"/><path d="m312 240s-2.929688 1.574219-8 3.742188v52.257812c0 34.160156-19.519531 63.839844-48 78.398438-7.433594 3.824218-15.527344 6.449218-24 8 5.199219.953124 10.511719 1.601562 16 1.601562 14.398438 0 28-3.441406 40-9.601562 28.480469-14.550782 48-44.238282 48-78.398438v-32zm0 0" fill="#d3b1a9"/><path d="m248 408-24 8-16-16v-25.601562c12 6.167968 25.601562 9.601562 40 9.601562s28-3.441406 40-9.601562v25.601562l-16 16zm0 0" fill="#e6e9ed"/><path d="m224 416 24-8 24 8 16-16h24c26.558594 0 48 21.441406 48 48v32c0 8.878906-7.121094 16-16 16h-192c-8.878906 0-16-7.121094-16-16v-32c0-26.558594 21.441406-48 48-48h24zm0 0" fill="#5d9cec"/><path d="m312 400h-24l-.625.625c23.039062 3.542969 40.625 23.328125 40.625 47.375v32c0 8.878906-7.121094 16-16 16h32c8.878906 0 16-7.121094 16-16v-32c0-26.558594-21.441406-48-48-48zm0 0" fill="#4a89dc"/><path d="m448 232h-8v-8c0-4.425781-3.574219-8-8-8s-8 3.574219-8 8v8h-8c-4.425781 0-8 3.574219-8 8s3.574219 8 8 8h8v8c0 4.425781 3.574219 8 8 8s8-3.574219 8-8v-8h8c4.425781 0 8-3.574219 8-8s-3.574219-8-8-8zm0 0" fill="#434a54"/><path d="m82.007812 272.230469c-1.3125 0-2.648437-.320313-3.871093-1.007813l-44.046875-24.46875c-3.867188-2.144531-5.257813-7.019531-3.113282-10.875 2.144532-3.855468 7.023438-5.269531 10.871094-3.109375l44.046875 24.46875c3.867188 2.144531 5.257813 7.019531 3.113281 10.875-1.464843 2.640625-4.183593 4.117188-7 4.117188zm0 0" fill="#656d78"/><path d="m37.992188 232.230469c-2.816407 0-5.535157-1.488281-7-4.117188-2.152344-3.855469-.761719-8.738281 3.113281-10.875l44.046875-24.46875c3.855468-2.167969 8.734375-.753906 10.871094 3.109375 2.152343 3.855469.761718 8.738282-3.113282 10.875l-44.046875 24.46875c-1.222656.6875-2.558593 1.007813-3.871093 1.007813zm0 0" fill="#656d78"/><path d="m248.238281 480c-4.421875 0-8.039062-3.574219-8.039062-8s3.535156-8 7.953125-8h.085937c4.417969 0 8 3.574219 8 8s-3.582031 8-8 8zm0 0" fill="#4a89dc"/><path d="m248.238281 448c-4.421875 0-8.039062-3.574219-8.039062-8s3.535156-8 7.953125-8h.085937c4.417969 0 8 3.574219 8 8s-3.582031 8-8 8zm0 0" fill="#4a89dc"/><g fill="#ac92ec"><path d="m45 220.367188c1.921875 3.472656 3 7.433593 3 11.632812s-1.078125 8.160156-3 11.632812c-4.078125 7.320313-12 12.367188-21 12.367188-13.320312 0-24-10.679688-24-24 0-13.199219 10.679688-24 24-24 9 0 16.800781 5.046875 21 12.367188zm0 0"/><path d="m96 248c13.199219 0 24 10.800781 24 24 0 13.320312-10.800781 24-24 24-13.320312 0-24-10.679688-24-24 0-4.199219 1.078125-8.160156 3-11.632812 4.078125-7.320313 12-12.367188 21-12.367188zm0 0"/><path d="m96 168c13.199219 0 24 10.800781 24 24 0 13.320312-10.800781 24-24 24-9.113281 0-16.921875-5.046875-21-12.367188-1.921875-3.472656-3-7.433593-3-11.632812 0-13.199219 10.679688-24 24-24zm0 0"/></g></svg>