<svg height="511pt" viewBox="-19 0 511 511.984" width="511pt" xmlns="http://www.w3.org/2000/svg"><path d="m432.492188 299.984375c0-11.039063 8.953124-20 20-20 11.03125 0 20 8.960937 20 20v132l-16 40h-144l-32-56v-120c17.671874 0 32 14.320313 32 32v-140c0-11.039063 8.953124-20 20-20 11.03125 0 20 8.960937 20 20v96c0-11.039063 8.953124-20 20-20 11.03125 0 20 8.960937 20 20v8c0-11.039063 8.953124-20 20-20 11.03125 0 20 8.960937 20 20zm0 0" fill="#eac6bb"/><path d="m452.492188 279.984375c-4.527344 0-8.65625 1.558594-12 4.09375 4.832031 3.65625 8 9.394531 8 15.90625v132l-16 40h24l16-40v-132c0-11.039063-8.96875-20-20-20zm0 0" fill="#d3b1a9"/><path d="m296.492188 471.984375h176v40h-176zm0 0" fill="#656d78"/><path d="m448.492188 471.984375h24v40h-24zm0 0" fill="#434a54"/><path d="m328.722656 503.984375c-4.421875 0-8.03125-3.578125-8.03125-8 0-4.425781 3.527344-8 7.953125-8h.078125c4.425782 0 8 3.574219 8 8 0 4.421875-3.574218 8-8 8zm0 0" fill="#ffce54"/><g fill="#d3b1a9"><path d="m392.492188 311.992188c4.421874 0 8-3.578126 8-8v-27.914063c-4.832032 3.65625-8 9.394531-8 15.90625v-8c0-6.511719-3.167969-12.25-8-15.90625v35.914063c0 4.421874 3.574218 8 8 8zm0 0"/><path d="m432.492188 311.984375c4.421874 0 8-3.578125 8-8v-19.90625c-4.832032 3.65625-8 9.394531-8 15.90625v-8c0-6.511719-3.167969-12.25-8-15.90625v27.90625c0 4.421875 3.574218 8 8 8zm0 0"/><path d="m352.492188 283.984375v28.007813c4.421874 0 8-3.578126 8-8v-35.914063c-4.832032 3.65625-8 9.394531-8 15.90625zm0 0"/><path d="m312.492188 327.984375c0-8.0625-3.082032-15.34375-8-20.96875v44.96875c0 4.421875 3.574218 8 8 8zm0 0"/></g><path d="m262.652344 89.824219c23.769531 23.832031 23.769531 62.398437 0 86.160156l-86.160156 86.167969-86.160157-86.167969c-23.769531-23.761719-23.769531-62.320313 0-86.160156 23.753907-23.761719 62.390625-23.761719 86.160157 0 23.75-23.753907 62.3125-23.753907 86.160156 0zm0 0" fill="#ed5565"/><path d="m262.652344 89.824219c-15-14.945313-35.816406-20.472657-55.113282-16.617188 11.394532 2.273438 22.265626 7.808594 31.113282 16.617188 23.769531 23.832031 23.769531 62.398437 0 86.160156l-74.160156 74.167969 12 12 86.160156-86.167969c23.757812-23.761719 23.757812-62.320313 0-86.160156zm0 0" fill="#da4453"/><path d="m40.492188 136c-4.425782 0-8-3.574219-8-8 0-52.929688 43.0625-95.992188 96-96 4.421874 0 8 3.574219 8 8 0 4.414062-3.578126 8-8 8-44.113282.007812-80 35.894531-80 80 0 4.425781-3.578126 8-8 8zm0 0" fill="#ed5565"/><path d="m8.492188 136c-4.425782 0-8-3.574219-8-8 0-70.566406 57.421874-127.9921875 128-128 4.421874 0 8 3.574219 8 8 0 4.414062-3.578126 8-8 8-61.753907.007812-112 50.246094-112 112 0 4.425781-3.578126 8-8 8zm0 0" fill="#ed5565"/><path d="m312.492188 136c-4.425782 0-8-3.574219-8-8 0-44.105469-35.886719-79.992188-80-80-4.425782 0-8-3.585938-8-8 0-4.425781 3.59375-8 8-8 52.9375.007812 96 43.070312 96 96 0 4.425781-3.578126 8-8 8zm0 0" fill="#ed5565"/><path d="m344.492188 136c-4.425782 0-8-3.574219-8-8 0-61.753906-50.230469-111.992188-112-112-4.425782 0-8-3.585938-8-8 0-4.425781 3.59375-8 8-8 70.574218.0078125 128 57.433594 128 128 0 4.425781-3.578126 8-8 8zm0 0" fill="#ed5565"/></svg>