<svg height="496pt" viewBox="0 0 496 496" width="496pt" xmlns="http://www.w3.org/2000/svg"><path d="m87.59375 416.40625c-2.050781 0-4.097656-.78125-5.65625-2.34375-3.128906-3.125-3.128906-8.183594 0-11.308594l49.605469-49.609375c3.128906-3.128906 8.183593-3.128906 11.3125 0 3.128906 3.128907 3.128906 8.183594 0 11.3125l-49.609375 49.605469c-1.558594 1.5625-3.605469 2.34375-5.652344 2.34375zm0 0" fill="#967adc"/><path d="m408.40625 416.40625c-2.046875 0-4.09375-.78125-5.652344-2.34375l-49.609375-49.605469c-3.128906-3.128906-3.128906-8.183593 0-11.3125 3.128907-3.128906 8.183594-3.128906 11.3125 0l49.605469 49.609375c3.128906 3.125 3.128906 8.183594 0 11.308594-1.558594 1.5625-3.605469 2.34375-5.65625 2.34375zm0 0" fill="#856cd3"/><path d="m358.785156 145.183594c-2.050781 0-4.097656-.785156-5.65625-2.34375-3.128906-3.128906-3.128906-8.183594 0-11.3125l49.625-49.625c3.125-3.125 8.183594-3.125 11.308594 0 3.128906 3.128906 3.128906 8.1875 0 11.3125l-49.621094 49.625c-1.570312 1.566406-3.609375 2.34375-5.65625 2.34375zm0 0" fill="#856cd3"/><path d="m137.199219 145.167969c-2.046875 0-4.09375-.785157-5.65625-2.34375l-49.605469-49.609375c-3.128906-3.125-3.128906-8.183594 0-11.3125 3.125-3.125 8.183594-3.125 11.308594 0l49.609375 49.609375c3.128906 3.128906 3.128906 8.183593 0 11.3125-1.558594 1.566406-3.609375 2.34375-5.65625 2.34375zm0 0" fill="#967adc"/><path d="m344 384c0-22.078125-17.921875-40-40-40h-112c-22.160156 0-40 17.921875-40 40v1.839844c-8.160156-5.6875-15.761719-12-22.800781-19.046875-30.398438-30.394531-49.199219-72.394531-49.199219-118.792969s18.800781-88.398438 49.199219-118.800781c30.402343-30.398438 72.402343-49.199219 118.800781-49.199219s88.398438 18.800781 118.800781 49.199219c30.398438 30.402343 49.199219 72.402343 49.199219 118.800781s-18.800781 88.398438-49.199219 118.800781c-7.039062 7.046875-14.640625 13.359375-22.800781 19.046875zm0 0" fill="#ac92ec"/><path d="m366.800781 129.199219c-30.402343-30.398438-72.402343-49.199219-118.800781-49.199219-5.398438 0-10.726562.3125-16 .808594 40.007812 3.785156 75.9375 21.527344 102.800781 48.398437 30.398438 30.394531 49.199219 72.394531 49.199219 118.792969 0 44.671875-17.535156 85.152344-45.96875 115.230469 3.710938 6.074219 5.96875 13.136719 5.96875 20.769531v1.839844c8.160156-5.6875 15.761719-12 22.800781-19.046875 30.398438-30.394531 49.199219-72.394531 49.199219-118.792969s-18.800781-88.398438-49.199219-118.800781zm0 0" fill="#967adc"/><path d="m95.601562 95.601562c-2.402343 2.398438-4.960937 4.476563-7.679687 6.398438-1.042969-16.71875-14.960937-30-31.921875-30 8.800781 0 16-7.199219 16-16s-7.199219-16-16-16-16 7.199219-16 16 7.199219 16 16 16c-17.039062 0-30.960938 13.28125-31.921875 30-14.558594-10.078125-24.078125-26.878906-24.078125-46 0-30.960938 25.039062-56 56-56s56 25.039062 56 56c0 15.519531-6.238281 29.441406-16.398438 39.601562zm0 0" fill="#656d78"/><path d="m56 72c16.960938 0 30.878906 13.28125 31.921875 30-9.042969 6.320312-20 10-31.921875 10s-22.878906-3.679688-31.921875-10c.960937-16.71875 14.882813-30 31.921875-30zm0 0" fill="#ffce54"/><path d="m80 56c0 13.199219-10.800781 24-24 24s-24-10.800781-24-24 10.800781-24 24-24 24 10.800781 24 24zm0 0" fill="#eac6bb"/><path d="m56 0c-2.0625 0-4.097656.121094-6.097656.34375-.015625 0-.03125.007812-.046875.007812-1.984375.222657-3.933594.542969-5.855469.96875 25.167969 5.488282 44 27.847657 44 54.679688 0 10.152344-2.710938 19.585938-7.398438 27.769531 4.160157 5.046875 6.886719 11.300781 7.320313 18.230469 2.71875-1.921875 5.277344-4 7.679687-6.398438 10.160157-10.160156 16.398438-24.082031 16.398438-39.601562 0-30.960938-25.039062-56-56-56zm0 0" fill="#434a54"/><path d="m71.601562 95.601562c-2.402343 2.398438-4.960937 4.476563-7.679687 6.398438-5.890625 4.121094-12.65625 6.96875-19.914063 8.558594.015626 0 .03125.007812.054688.007812 1.691406.371094 3.410156.664063 5.152344.90625 2.234375.28125 4.472656.527344 6.785156.527344 11.921875 0 22.878906-3.679688 31.921875-10-.433594-6.929688-3.167969-13.183594-7.320313-18.230469-2.472656 4.328125-5.480468 8.320313-9 11.832031zm0 0" fill="#f6bb42"/><path d="m479.601562 95.601562c-2.402343 2.398438-4.960937 4.476563-7.679687 6.398438-1.042969-16.71875-14.960937-30-31.921875-30 8.800781 0 16-7.199219 16-16s-7.199219-16-16-16-16 7.199219-16 16 7.199219 16 16 16c-17.039062 0-30.960938 13.28125-31.921875 30-14.558594-10.078125-24.078125-26.878906-24.078125-46 0-30.960938 25.039062-56 56-56s56 25.039062 56 56c0 15.519531-6.238281 29.441406-16.398438 39.601562zm0 0" fill="#656d78"/><path d="m440 72c16.960938 0 30.878906 13.28125 31.921875 30-9.042969 6.320312-20 10-31.921875 10s-22.878906-3.679688-31.921875-10c.960937-16.71875 14.882813-30 31.921875-30zm0 0" fill="#48cfad"/><path d="m464 56c0 13.199219-10.800781 24-24 24s-24-10.800781-24-24 10.800781-24 24-24 24 10.800781 24 24zm0 0" fill="#eac6bb"/><path d="m440 0c-2.0625 0-4.097656.121094-6.097656.34375-.015625 0-.03125.007812-.046875.007812-1.984375.222657-3.933594.542969-5.855469.96875 25.167969 5.488282 44 27.847657 44 54.679688 0 10.152344-2.710938 19.585938-7.398438 27.769531 4.160157 5.046875 6.886719 11.300781 7.320313 18.230469 2.71875-1.921875 5.277344-4 7.679687-6.398438 10.160157-10.160156 16.398438-24.082031 16.398438-39.601562 0-30.960938-25.039062-56-56-56zm0 0" fill="#434a54"/><path d="m455.601562 95.601562c-2.402343 2.398438-4.960937 4.476563-7.679687 6.398438-5.890625 4.121094-12.65625 6.96875-19.914063 8.558594.015626 0 .03125.007812.054688.007812 1.691406.371094 3.410156.664063 5.152344.90625 2.234375.28125 4.472656.527344 6.785156.527344 11.921875 0 22.878906-3.679688 31.921875-10-.433594-6.929688-3.167969-13.183594-7.320313-18.230469-2.472656 4.328125-5.480468 8.320313-9 11.832031zm0 0" fill="#37bc9b"/><path d="m95.601562 479.601562c-2.402343 2.398438-4.960937 4.476563-7.679687 6.398438-1.042969-16.71875-14.960937-30-31.921875-30 8.800781 0 16-7.199219 16-16s-7.199219-16-16-16-16 7.199219-16 16 7.199219 16 16 16c-17.039062 0-30.960938 13.28125-31.921875 30-14.558594-10.078125-24.078125-26.878906-24.078125-46 0-30.960938 25.039062-56 56-56s56 25.039062 56 56c0 15.519531-6.238281 29.441406-16.398438 39.601562zm0 0" fill="#656d78"/><path d="m56 456c16.960938 0 30.878906 13.28125 31.921875 30-9.042969 6.320312-20 10-31.921875 10s-22.878906-3.679688-31.921875-10c.960937-16.71875 14.882813-30 31.921875-30zm0 0" fill="#5d9cec"/><path d="m80 440c0 13.199219-10.800781 24-24 24s-24-10.800781-24-24 10.800781-24 24-24 24 10.800781 24 24zm0 0" fill="#eac6bb"/><path d="m56 384c-2.0625 0-4.097656.121094-6.097656.34375-.015625 0-.03125.007812-.046875.007812-1.984375.222657-3.933594.542969-5.855469.96875 25.167969 5.488282 44 27.847657 44 54.679688 0 10.152344-2.710938 19.585938-7.398438 27.769531 4.160157 5.046875 6.886719 11.300781 7.320313 18.230469 2.71875-1.921875 5.277344-4 7.679687-6.398438 10.160157-10.160156 16.398438-24.082031 16.398438-39.601562 0-30.960938-25.039062-56-56-56zm0 0" fill="#434a54"/><path d="m71.601562 479.601562c-2.402343 2.398438-4.960937 4.476563-7.679687 6.398438-5.890625 4.121094-12.65625 6.96875-19.914063 8.558594.015626 0 .03125.007812.054688.007812 1.691406.371094 3.410156.664063 5.152344.90625 2.234375.28125 4.472656.527344 6.785156.527344 11.921875 0 22.878906-3.679688 31.921875-10-.433594-6.929688-3.167969-13.183594-7.320313-18.230469-2.472656 4.328125-5.480468 8.320313-9 11.832031zm0 0" fill="#4a89dc"/><path d="m479.601562 479.601562c-2.402343 2.398438-4.960937 4.476563-7.679687 6.398438-1.042969-16.71875-14.960937-30-31.921875-30 8.800781 0 16-7.199219 16-16s-7.199219-16-16-16-16 7.199219-16 16 7.199219 16 16 16c-17.039062 0-30.960938 13.28125-31.921875 30-14.558594-10.078125-24.078125-26.878906-24.078125-46 0-30.960938 25.039062-56 56-56s56 25.039062 56 56c0 15.519531-6.238281 29.441406-16.398438 39.601562zm0 0" fill="#656d78"/><path d="m440 456c16.960938 0 30.878906 13.28125 31.921875 30-9.042969 6.320312-20 10-31.921875 10s-22.878906-3.679688-31.921875-10c.960937-16.71875 14.882813-30 31.921875-30zm0 0" fill="#a0d468"/><path d="m464 440c0 13.199219-10.800781 24-24 24s-24-10.800781-24-24 10.800781-24 24-24 24 10.800781 24 24zm0 0" fill="#eac6bb"/><path d="m440 384c-2.0625 0-4.097656.121094-6.097656.34375-.015625 0-.03125.007812-.046875.007812-1.984375.222657-3.933594.542969-5.855469.96875 25.167969 5.488282 44 27.847657 44 54.679688 0 10.152344-2.710938 19.585938-7.398438 27.769531 4.160157 5.046875 6.886719 11.300781 7.320313 18.230469 2.71875-1.921875 5.277344-4 7.679687-6.398438 10.160157-10.160156 16.398438-24.082031 16.398438-39.601562 0-30.960938-25.039062-56-56-56zm0 0" fill="#434a54"/><path d="m455.601562 479.601562c-2.402343 2.398438-4.960937 4.476563-7.679687 6.398438-5.890625 4.121094-12.65625 6.96875-19.914063 8.558594.015626 0 .03125.007812.054688.007812 1.691406.371094 3.410156.664063 5.152344.90625 2.234375.28125 4.472656.527344 6.785156.527344 11.921875 0 22.878906-3.679688 31.921875-10-.433594-6.929688-3.167969-13.183594-7.320313-18.230469-2.472656 4.328125-5.480468 8.320313-9 11.832031zm0 0" fill="#8cc152"/><path d="m320 208v24.238281l-24-16.238281s-16.078125 8-44 8-52-8-52-8l-24 16.238281v-24.238281c0-35.359375 28.640625-64 64-64h48v32c17.679688 0 32 14.320312 32 32zm0 0" fill="#656d78"/><path d="m288 176v-32h-32v48c17.679688 0 32 6.320312 32 24v2.953125c5.144531-1.585937 8-2.953125 8-2.953125l24 16.238281v-24.238281c0-17.679688-14.320312-32-32-32zm0 0" fill="#434a54"/><path d="m248 344-16 8-16-8v-23.519531c9.601562 4.800781 20.558594 7.519531 32 7.519531s22.398438-2.71875 32-7.519531v23.519531l-16 8zm0 0" fill="#f5f7fa"/><path d="m320 232.238281v23.761719c0 28.238281-16.320312 52.71875-40 64.480469-9.601562 4.800781-20.558594 7.519531-32 7.519531s-22.398438-2.71875-32-7.519531c-23.601562-11.679688-39.839844-36-40-64.082031v-24.160157l24-16.238281s24.078125 8 52 8 44-8 44-8zm0 0" fill="#eac6bb"/><path d="m296 216s-2.855469 1.367188-8 2.953125v37.046875c0 28.238281-16.320312 52.71875-40 64.480469-5 2.503906-10.382812 4.40625-16 5.6875 5.167969 1.175781 10.519531 1.832031 16 1.832031 11.441406 0 22.398438-2.71875 32-7.519531 23.679688-11.761719 40-36.234375 40-64.480469v-23.761719zm0 0" fill="#d3b1a9"/><path d="m264 352 16-8h24c22.078125 0 40 17.921875 40 40v1.839844c-27.199219 19.039062-60.320312 30.160156-96 30.160156s-68.800781-11.121094-96-30.160156v-1.839844c0-22.078125 17.839844-40 40-40h24l16 8 16-8zm0 0" fill="#e6e9ed"/><path d="m304 344h-24l-1.34375.671875c18.894531 3.183594 33.34375 19.527344 33.34375 39.328125v19.335938c11.34375-4.679688 22.070312-10.542969 32-17.496094v-1.839844c0-22.078125-17.921875-40-40-40zm0 0" fill="#ccd1d9"/></svg>