<svg height="496pt" viewBox="0 -75 496 495" width="496pt" xmlns="http://www.w3.org/2000/svg"><path d="m336 304.5c-17.679688 0-32-14.320312-32-32s14.320312-32 32-32h88c17.679688 0 32 14.320312 32 32s-14.320312 32-32 32zm0 0" fill="#5d9cec"/><path d="m416 108.421875c13.601562-10.160156 22.71875-25.921875 23.761719-43.921875h56.238281v280h-232v-280h56.238281c1.042969 18 10.160157 33.769531 23.761719 43.921875 10 7.597656 22.480469 12.078125 36 12.078125s26-4.480469 36-12.078125zm40 164.078125c0-17.679688-14.320312-32-32-32h-88c-17.679688 0-32 14.320312-32 32s14.320312 32 32 32h88c17.679688 0 32-14.320312 32-32zm0 0" fill="#e6e9ed"/><path d="m380 72.5c19.839844 0 35.921875 16.089844 36 35.921875-10 7.597656-22.480469 12.078125-36 12.078125s-26-4.480469-36-12.078125c.078125-19.832031 16.160156-35.921875 36-35.921875zm0 0" fill="#ac92ec"/><path d="m440 60.5c0 1.359375-.078125 2.640625-.238281 4-1.042969 18-10.160157 33.769531-23.761719 43.921875-.078125-19.832031-16.160156-35.921875-36-35.921875 11.039062 0 20-8.960938 20-20s-8.960938-20-20-20-20 8.960938-20 20 8.960938 20 20 20c-19.839844 0-35.921875 16.089844-36 35.921875-13.601562-10.160156-22.71875-25.921875-23.761719-43.921875-.160156-1.359375-.238281-2.640625-.238281-4 0-33.121094 26.878906-60 60-60s60 26.878906 60 60zm0 0" fill="#656d78"/><path d="m392 108.421875c-6.945312 5.277344-15.144531 8.917969-24 10.734375 1.425781.289062 2.878906.503906 4.335938.710938 2.519531.328124 5.054687.632812 7.664062.632812 13.519531 0 26-4.480469 36-12.078125-.03125-7.691406-2.511719-14.785156-6.640625-20.625-4.160156 8.128906-10.085937 15.199219-17.359375 20.625zm0 0" fill="#967adc"/><path d="m380 .5c-2.0625 0-4.105469.105469-6.113281.3125-.789063.078125-1.542969.238281-2.328125.351562-1.183594.167969-2.390625.304688-3.550782.535157 27.367188 5.585937 47.992188 29.792969 47.992188 58.800781 0 1.359375-.078125 2.640625-.238281 4-.488281 8.375-2.777344 16.230469-6.402344 23.296875 4.128906 5.839844 6.609375 12.933594 6.640625 20.625 13.601562-10.160156 22.71875-25.921875 23.761719-43.921875.160156-1.359375.238281-2.640625.238281-4 0-33.121094-26.878906-60-60-60zm0 0" fill="#434a54"/><path d="m176 60.5c0 1.359375-.078125 2.640625-.238281 4-1.042969 18-10.160157 33.769531-23.761719 43.921875-.078125-19.832031-16.160156-35.921875-36-35.921875 11.039062 0 20-8.960938 20-20s-8.960938-20-20-20-20 8.960938-20 20 8.960938 20 20 20c-19.839844 0-35.921875 16.089844-36 35.921875-13.601562-10.160156-22.71875-25.921875-23.761719-43.921875-.160156-1.359375-.238281-2.640625-.238281-4 0-33.121094 26.878906-60 60-60s60 26.878906 60 60zm0 0" fill="#656d78"/><path d="m116 72.5c19.839844 0 35.921875 16.089844 36 35.921875-10 7.597656-22.480469 12.078125-36 12.078125s-26-4.480469-36-12.078125c.078125-19.832031 16.160156-35.921875 36-35.921875zm0 0" fill="#48cfad"/><path d="m152 108.421875c13.601562-10.160156 22.71875-25.921875 23.761719-43.921875h56.238281v280h-232v-280h56.238281c1.042969 18 10.160157 33.769531 23.761719 43.921875 10 7.597656 22.480469 12.078125 36 12.078125s26-4.480469 36-12.078125zm40 164.078125c0-17.679688-14.320312-32-32-32h-88c-17.679688 0-32 14.320312-32 32s14.320312 32 32 32h88c17.679688 0 32-14.320312 32-32zm0 0" fill="#e6e9ed"/><path d="m72 304.5c-17.679688 0-32-14.320312-32-32s14.320312-32 32-32h88c17.679688 0 32 14.320312 32 32s-14.320312 32-32 32zm0 0" fill="#5d9cec"/><path d="m128 108.421875c-6.945312 5.277344-15.144531 8.917969-24 10.734375 1.425781.289062 2.878906.503906 4.335938.710938 2.519531.328124 5.054687.632812 7.664062.632812 13.519531 0 26-4.480469 36-12.078125-.03125-7.691406-2.511719-14.785156-6.640625-20.625-4.160156 8.128906-10.085937 15.199219-17.359375 20.625zm0 0" fill="#37bc9b"/><path d="m116 .5c-2.0625 0-4.105469.105469-6.113281.3125-.789063.078125-1.542969.238281-2.328125.351562-1.183594.167969-2.390625.304688-3.550782.535157 27.367188 5.585937 47.992188 29.792969 47.992188 58.800781 0 1.359375-.078125 2.640625-.238281 4-.488281 8.375-2.777344 16.230469-6.402344 23.296875 4.128906 5.839844 6.609375 12.933594 6.640625 20.625 13.601562-10.160156 22.71875-25.921875 23.761719-43.921875.160156-1.359375.238281-2.640625.238281-4 0-33.121094-26.878906-60-60-60zm0 0" fill="#434a54"/><path d="m192 152.5h-152c-4.425781 0-8 3.574219-8 8s3.574219 8 8 8h152c4.425781 0 8-3.574219 8-8s-3.574219-8-8-8zm0 0" fill="#ccd1d9"/><path d="m152 192.5c0-4.425781-3.574219-8-8-8h-56c-4.425781 0-8 3.574219-8 8s3.574219 8 8 8h56c4.425781 0 8-3.574219 8-8zm0 0" fill="#ccd1d9"/><path d="m80 264.5c0-4.425781-3.574219-8-8-8s-8 3.574219-8 8c-4.425781 0-8 3.574219-8 8s3.574219 8 8 8c0 4.425781 3.574219 8 8 8s8-3.574219 8-8c4.425781 0 8-3.574219 8-8s-3.574219-8-8-8zm0 0" fill="#4a89dc"/><path d="m160 264.5h-48c-4.425781 0-8 3.574219-8 8s3.574219 8 8 8h48c4.425781 0 8-3.574219 8-8s-3.574219-8-8-8zm0 0" fill="#4a89dc"/><path d="m456 152.5h-152c-4.425781 0-8 3.574219-8 8s3.574219 8 8 8h152c4.425781 0 8-3.574219 8-8s-3.574219-8-8-8zm0 0" fill="#ccd1d9"/><path d="m416 192.5c0-4.425781-3.574219-8-8-8h-56c-4.425781 0-8 3.574219-8 8s3.574219 8 8 8h56c4.425781 0 8-3.574219 8-8zm0 0" fill="#ccd1d9"/><path d="m344 264.5c0-4.425781-3.574219-8-8-8s-8 3.574219-8 8c-4.425781 0-8 3.574219-8 8s3.574219 8 8 8c0 4.425781 3.574219 8 8 8s8-3.574219 8-8c4.425781 0 8-3.574219 8-8s-3.574219-8-8-8zm0 0" fill="#4a89dc"/><path d="m424 264.5h-48c-4.425781 0-8 3.574219-8 8s3.574219 8 8 8h48c4.425781 0 8-3.574219 8-8s-3.574219-8-8-8zm0 0" fill="#4a89dc"/><g fill="#eac6bb"><path d="m404 52.5c0 13.253906-10.746094 24-24 24s-24-10.746094-24-24 10.746094-24 24-24 24 10.746094 24 24zm0 0"/><path d="m140 52.5c0 13.253906-10.746094 24-24 24s-24-10.746094-24-24 10.746094-24 24-24 24 10.746094 24 24zm0 0"/></g></svg>