<svg height="504pt" viewBox="0 -96 504.224 504" width="504pt" xmlns="http://www.w3.org/2000/svg"><path d="m496.222656 192.113281h-32c-4.421875 0-8 3.574219-8 8 0 4.421875 3.578125 8 8 8h24v64h-24c-4.421875 0-8 3.574219-8 8 0 4.421875 3.578125 8 8 8h32c4.425782 0 8-3.578125 8-8v-80c0-4.425781-3.582031-8-8-8zm0 0" fill="#da4453"/><path d="m464.160156 44.191406-5.441406 31.519532-23.679688-4.078126 5.527344-31.519531zm0 0" fill="#ec87c0"/><path d="m458.71875 75.710938-5.511719 31.519531-23.597656-4.078125 5.429687-31.519532zm0 0" fill="#e6e9ed"/><path d="m453.207031 107.230469-11.925781 68.882812h-24.394531l12.722656-72.960937zm0 0" fill="#ffce54"/><path d="m464 280.113281v16c0 8.796875-7.121094 16-16 16h-88c-8.800781 0-16-7.203125-16-16v-120h120zm-40-36c0-11.042969-8.960938-20-20-20s-20 8.957031-20 20c0 11.039063 8.960938 20 20 20s20-8.960937 20-20zm0 0" fill="#ed5565"/><path d="m312 16.113281v16h-312v-16c0-8.882812 7.121094-16 16-16h280c8.800781 0 16 7.117188 16 16zm0 0" fill="#ccd1d9"/><path d="m39.929688 72.113281h232v64h-232zm0 0" fill="#ac92ec"/><path d="m312.078125 32.113281v280h-312v-280zm-40.148437 104v-64h-232v64zm0 0" fill="#e6e9ed"/><g fill="#ccd1d9"><path d="m160.078125 184.113281h-112c-4.421875 0-8-3.578125-8-8 0-4.425781 3.578125-8 8-8h112c4.425781 0 8 3.574219 8 8 0 4.421875-3.574219 8-8 8zm0 0"/><path d="m112.078125 216.113281h-64c-4.421875 0-8-3.578125-8-8 0-4.425781 3.578125-8 8-8h64c4.425781 0 8 3.574219 8 8 0 4.421875-3.574219 8-8 8zm0 0"/><path d="m264.078125 216.113281h-120c-4.421875 0-8-3.578125-8-8 0-4.425781 3.578125-8 8-8h120c4.425781 0 8 3.574219 8 8 0 4.421875-3.574219 8-8 8zm0 0"/><path d="m144.078125 280.113281h-96c-4.421875 0-8-3.578125-8-8 0-4.425781 3.578125-8 8-8h96c4.425781 0 8 3.574219 8 8 0 4.421875-3.574219 8-8 8zm0 0"/><path d="m264.078125 280.113281h-88c-4.421875 0-8-3.578125-8-8 0-4.425781 3.578125-8 8-8h88c4.425781 0 8 3.574219 8 8 0 4.421875-3.574219 8-8 8zm0 0"/><path d="m200.078125 248.113281h-152c-4.421875 0-8-3.578125-8-8 0-4.425781 3.578125-8 8-8h152c4.425781 0 8 3.574219 8 8 0 4.421875-3.574219 8-8 8zm0 0"/><path d="m264.078125 248.113281h-32c-4.421875 0-8-3.578125-8-8 0-4.425781 3.578125-8 8-8h32c4.425781 0 8 3.574219 8 8 0 4.421875-3.574219 8-8 8zm0 0"/><path d="m264.078125 184.113281h-72c-4.421875 0-8-3.578125-8-8 0-4.425781 3.578125-8 8-8h72c4.425781 0 8 3.574219 8 8 0 4.421875-3.574219 8-8 8zm0 0"/></g><path d="m216.222656 112.113281h-120c-4.421875 0-8-3.578125-8-8 0-4.425781 3.578125-8 8-8h120c4.425782 0 8 3.574219 8 8 0 4.421875-3.582031 8-8 8zm0 0" fill="#967adc"/><path d="m24.398438 24.113281c-4.421876 0-8.039063-3.578125-8.039063-8 0-4.425781 3.535156-8 7.953125-8h.085938c4.417968 0 8 3.574219 8 8 0 4.421875-3.582032 8-8 8zm0 0" fill="#ed5565"/><path d="m48.398438 24.113281c-4.421876 0-8.039063-3.578125-8.039063-8 0-4.425781 3.535156-8 7.953125-8h.085938c4.417968 0 8 3.574219 8 8 0 4.421875-3.582032 8-8 8zm0 0" fill="#ffce54"/><path d="m72.398438 24.113281c-4.421876 0-8.039063-3.578125-8.039063-8 0-4.425781 3.535156-8 7.953125-8h.085938c4.417968 0 8 3.574219 8 8 0 4.421875-3.582032 8-8 8zm0 0" fill="#8cc152"/><path d="m428 244.113281c0 13.253907-10.746094 24-24 24s-24-10.746093-24-24c0-13.257812 10.746094-24 24-24s24 10.742188 24 24zm0 0" fill="#ffce54"/></svg>