<svg height="497pt" viewBox="-16 0 497 497.36" width="497pt" xmlns="http://www.w3.org/2000/svg"><path d="m280.179688 344.007812c-4.421876 0-8 3.578126-8 8h-16c-4.421876 0-8 3.578126-8 8 0 4.425782 3.578124 8 8 8h16c0 4.425782 3.578124 8 8 8 4.425781 0 8-3.574218 8-8v-16c0-4.421874-3.574219-8-8-8zm0 0" fill="#656d78"/><path d="m208.179688 352.007812h-8c-4.421876 0-8 3.578126-8 8 0 4.425782 3.578124 8 8 8h8c4.425781 0 8-3.574218 8-8 0-4.421874-3.574219-8-8-8zm0 0" fill="#656d78"/><path d="m424.179688 8.007812h-384c-22.054688 0-40 17.953126-40 40v192c0 22.054688 17.945312 40 40 40h384c22.054687 0 40-17.945312 40-40v-192c0-22.046874-17.945313-40-40-40zm0 0" fill="#656d78"/><path d="m64.179688 24.007812h336v240h-336zm0 0" fill="#5d9cec"/><path d="m432.261719 128c8.878906 0 16 7.199219 16 16 0 8.878906-7.121094 16-16 16-8.800781 0-16-7.121094-16-16 0-8.800781 7.199219-16 16-16zm0 0" fill="#aab2bd"/><path d="m352.179688 56c8.800781 0 16 7.199219 16 16 0 8.808594-7.199219 16-16 16-8.800782 0-16-7.191406-16-16 0-8.800781 7.199218-16 16-16zm0 0" fill="#ffce54"/><path d="m232.179688 408c-9.601563 0-18.160157 4.238281-24 10.878906v-18.878906c0-13.28125 10.71875-24 24-24s24 10.71875 24 24v18.878906c-5.839844-6.640625-14.398438-10.878906-24-10.878906zm0 0" fill="#e6e9ed"/><path d="m264.179688 496v1.359375h-64v-57.359375c0-8.078125 3.039062-15.441406 8-21.121094 5.839843-6.640625 14.398437-10.878906 24-10.878906 9.601562 0 18.160156 4.238281 24 10.878906 4.960937 5.679688 8 13.042969 8 21.121094zm0 0" fill="#5d9cec"/><path d="m208.179688 360v-24l-16-32h80l-16 32v64c0-13.28125-10.71875-24-24-24s-24 10.71875-24 24zm0 0" fill="#ccd1d9"/><path d="m312.179688 272v32h-160v-32c0-8.871094 7.121093-16 16-16h128c8.878906 0 16 7.128906 16 16zm0 0" fill="#e6e9ed"/><path d="m192.179688 224h16l8 8 16-8 16 8 8-8h16c13.28125 0 24 10.71875 24 24v8h-128v-8c0-13.28125 10.71875-24 24-24zm0 0" fill="#a0d468"/><path d="m232.179688 208c8.558593 0 16.71875-1.921875 24-5.441406v21.441406l-8 8-16-8-16 8-8-8v-21.441406c7.28125 3.519531 15.441406 5.441406 24 5.441406zm0 0" fill="#f5f7fa"/><path d="m288.179688 136v16c0 22.398438-13.039063 41.601562-32 50.558594-7.28125 3.511718-15.441407 5.441406-24 5.441406-8.558594 0-16.71875-1.921875-24-5.441406-18.960938-8.957032-32-28.167969-32-50.558594v-16l16-15.832031v-.167969s22.320312 8 44 8c20.398437 0 34.160156-7.121094 35.839843-8l.160157.078125zm0 0" fill="#eac6bb"/><path d="m272.179688 120.078125-.160157-.078125c-.6875.359375-3.488281 1.769531-7.839843 3.304688v28.695312c0 22.398438-13.039063 41.601562-32 50.558594-3.785157 1.832031-7.816407 3.203125-12 4.121094 3.871093.847656 7.878906 1.320312 12 1.320312 8.558593 0 16.71875-1.921875 24-5.441406 18.960937-8.957032 32-28.167969 32-50.558594v-16zm0 0" fill="#d3b1a9"/><path d="m192.179688 120v.167969l-16 15.832031v-24c0-26.550781 21.441406-48 48-48h40v24c13.28125 0 24 10.71875 24 24v24l-16-15.921875-.160157-.078125c-1.6875.878906-15.449219 8-35.839843 8-21.679688 0-44-8-44-8zm0 0" fill="#965353"/><path d="m264.179688 88v-24h-24v40c13.28125 0 24 2.71875 24 16v3.304688c4.359374-1.535157 7.160156-2.945313 7.839843-3.304688l.160157.078125 16 15.921875v-24c0-13.28125-10.71875-24-24-24zm0 0" fill="#844646"/><path d="m152.179688 0h160v16c0 8.878906-7.121094 16-16 16h-128c-8.878907 0-16-7.121094-16-16zm0 0" fill="#e6e9ed"/><path d="m360.179688 264.007812v-88c0-4.414062-3.574219-8-8-8-4.421876 0-8 3.585938-8 8v88zm0 0" fill="#965353"/><path d="m120.179688 264.007812v-112c0-4.414062-3.574219-8-8-8-4.421876 0-8 3.585938-8 8v112zm0 0" fill="#965353"/><path d="m200.179688 448.007812h64v16h-64zm0 0" fill="#4a89dc"/><g fill="#a0d468"><path d="m336.179688 200.007812c2.046874 0 4.097656-.785156 5.65625-2.34375l10.34375-10.34375 10.34375 10.34375c1.5625 1.558594 3.609374 2.34375 5.65625 2.34375 2.046874 0 4.097656-.785156 5.65625-2.34375 3.128906-3.128906 3.128906-8.183593 0-11.3125l-16-16c-3.128907-3.128906-8.183594-3.128906-11.3125 0l-16 16c-3.128907 3.128907-3.128907 8.183594 0 11.3125 1.5625 1.558594 3.609374 2.34375 5.65625 2.34375zm0 0"/><path d="m357.835938 202.351562c-3.128907-3.128906-8.183594-3.128906-11.3125 0l-16 16c-3.128907 3.128907-3.128907 8.183594 0 11.3125 1.5625 1.558594 3.609374 2.34375 5.65625 2.34375 2.046874 0 4.097656-.785156 5.65625-2.34375l10.34375-10.34375 10.34375 10.34375c1.5625 1.558594 3.609374 2.34375 5.65625 2.34375 2.046874 0 4.097656-.785156 5.65625-2.34375 3.128906-3.128906 3.128906-8.183593 0-11.3125zm0 0"/><path d="m96.179688 168.007812c2.046874 0 4.097656-.785156 5.65625-2.34375l10.34375-10.34375 10.34375 10.34375c1.5625 1.558594 3.609374 2.34375 5.65625 2.34375 2.046874 0 4.097656-.785156 5.65625-2.34375 3.128906-3.128906 3.128906-8.183593 0-11.3125l-16-16c-3.128907-3.128906-8.183594-3.128906-11.3125 0l-16 16c-3.128907 3.128907-3.128907 8.183594 0 11.3125 1.5625 1.558594 3.609374 2.34375 5.65625 2.34375zm0 0"/><path d="m117.835938 170.351562c-3.128907-3.128906-8.183594-3.128906-11.3125 0l-16 16c-3.128907 3.128907-3.128907 8.183594 0 11.3125 1.5625 1.558594 3.609374 2.34375 5.65625 2.34375 2.046874 0 4.097656-.785156 5.65625-2.34375l10.34375-10.34375 10.34375 10.34375c1.5625 1.558594 3.609374 2.34375 5.65625 2.34375 2.046874 0 4.097656-.785156 5.65625-2.34375 3.128906-3.128906 3.128906-8.183593 0-11.3125zm0 0"/><path d="m117.835938 202.351562c-3.128907-3.128906-8.183594-3.128906-11.3125 0l-16 16c-3.128907 3.128907-3.128907 8.183594 0 11.3125 1.5625 1.558594 3.609374 2.34375 5.65625 2.34375 2.046874 0 4.097656-.785156 5.65625-2.34375l10.34375-10.34375 10.34375 10.34375c1.5625 1.558594 3.609374 2.34375 5.65625 2.34375 2.046874 0 4.097656-.785156 5.65625-2.34375 3.128906-3.128906 3.128906-8.183593 0-11.3125zm0 0"/></g><path d="m32.421875 176.007812c-4.425781 0-8.042969-3.574218-8.042969-8 0-4.414062 3.535156-8 7.953125-8h.089844c4.414063 0 8 3.585938 8 8 0 4.425782-3.585937 8-8 8zm0 0" fill="#5d9cec"/><path d="m32.179688 152.007812c-4.421876 0-8-3.574218-8-8v-24c0-4.414062 3.578124-8 8-8 4.425781 0 8 3.585938 8 8v24c0 4.425782-3.574219 8-8 8zm0 0" fill="#434a54"/></svg>