<svg height="496pt" viewBox="0 0 496 496" width="496pt" xmlns="http://www.w3.org/2000/svg"><path d="m104 416v21.6875c-62.886719-43.199219-104-115.609375-104-197.6875 0-132.558594 107.441406-240 240-240 132.488281 0 239.921875 107.441406 240 240 0 34.488281-7.28125 67.199219-20.40625 96.800781-24.5625-17.832031-56.160156-21.441406-83.59375-10.800781v-142c0-33.511719-12.078125-64.160156-32.246094-87.839844-24.953125-29.441406-62.160156-48.160156-103.753906-48.160156-75.128906 0-136 60.886719-136 136zm0 0" fill="#ac92ec"/><path d="m240 0c-5.390625 0-10.71875.246094-16 .59375 125.015625 8.230469 223.921875 112.230469 224 239.40625 0 29.511719-5.375 57.71875-15.144531 83.800781 9.425781 2.785157 18.488281 7.015625 26.738281 13 13.125-29.59375 20.40625-62.3125 20.40625-96.800781-.078125-132.558594-107.511719-240-240-240zm0 0" fill="#967adc"/><path d="m376 326c-11.046875 4.246094-21.359375 10.886719-30.246094 19.769531-8.875 8.871094-15.515625 19.199219-19.753906 30.230469h-46v-31.359375c42.078125-16.160156 72-56.871094 72-104.640625v-46.71875l24 14.71875zm0 0" fill="#e29f33"/><path d="m128 240c0 47.769531 29.839844 88.558594 72 104.640625v31.359375h-56c-22.160156 0-40 17.921875-40 40v-208l24-11.199219zm0 0" fill="#e29f33"/><path d="m128 196.800781-24 11.199219v-24c0-75.113281 60.871094-136 136-136 41.59375 0 78.800781 18.71875 103.753906 48.160156l-85.363281 39.839844zm0 0" fill="#ffce54"/><path d="m376 184v24l-24-14.71875-93.609375-57.28125 85.363281-39.839844c20.167969 23.679688 32.246094 54.328125 32.246094 87.839844zm0 0" fill="#f6bb42"/><path d="m224.214844 48.984375c-.015625.015625-.03125.015625-.046875.015625 35 4.160156 65.902343 21.59375 87.574219 47.160156 3 3.511719 5.753906 7.230469 8.378906 11.03125l23.621094-11.03125c-24.941407-29.441406-62.148438-48.160156-103.742188-48.160156-3.769531 0-7.472656.265625-11.167969.558594-1.535156.144531-3.078125.257812-4.617187.425781zm0 0" fill="#f6bb42"/><path d="m343.753906 96.160156-23.625 11.03125c15.046875 21.855469 23.871094 48.265625 23.871094 76.816406v4.390626l8 4.890624 24 14.71875v-24c0-33.519531-12.078125-64.167968-32.246094-87.847656zm0 0" fill="#edab37"/><path d="m352 193.28125v46.71875c0 47.769531-29.921875 88.488281-72 104.640625-12.40625 4.71875-25.921875 7.359375-40 7.359375s-27.609375-2.640625-40-7.359375c-42.160156-16.082031-72-56.871094-72-104.640625v-43.199219l130.390625-60.800781zm0 0" fill="#eac6bb"/><path d="m320 173.703125v66.296875c0 47.769531-29.921875 88.488281-72 104.640625-7.609375 2.902344-15.671875 4.902344-24 6.09375 5.230469.769531 10.558594 1.265625 16 1.265625 14.078125 0 27.59375-2.640625 40-7.359375 42.078125-16.160156 72-56.871094 72-104.640625v-46.71875zm0 0" fill="#d3b1a9"/><path d="m280 376h16c0 22.078125-25.046875 40-56 40-30.886719 0-56-17.921875-56-40h16v-31.359375c12.390625 4.71875 25.921875 7.359375 40 7.359375s27.59375-2.640625 40-7.359375zm0 0" fill="#eac6bb"/><path d="m296 376h30c-10.71875 27.441406-7.128906 59.128906 10.71875 83.6875-29.605469 13.03125-62.328125 20.3125-96.71875 20.3125-50.488281 0-97.359375-15.59375-136-42.3125v-21.6875c0-22.078125 17.839844-40 40-40h40c0 22.078125 25.113281 40 56 40 30.953125 0 56-17.921875 56-40zm0 0" fill="#48cfad"/><path d="m470.152344 345.769531c-3.359375-3.363281-6.871094-6.328125-10.558594-8.96875-24.5625-17.832031-56.160156-21.441406-83.59375-10.800781-11.046875 4.246094-21.359375 10.886719-30.246094 19.769531-8.875 8.871094-15.515625 19.199219-19.753906 30.230469-10.71875 27.441406-7.128906 59.128906 10.71875 83.6875 2.722656 3.671875 5.671875 7.199219 9.035156 10.558594 34.324219 34.3125 90.09375 34.3125 124.40625 0 34.398438-34.40625 34.398438-90.085938-.007812-124.476563zm0 0" fill="#f5f7fa"/><path d="m470.199219 345.785156c-17.183594-17.191406-39.703125-25.785156-62.214844-25.785156-22.527344 0-45.046875 8.59375-62.230469 25.785156-34.363281 34.359375-34.363281 90.078125 0 124.453125 17.183594 17.167969 39.703125 25.761719 62.230469 25.761719 22.511719 0 45.03125-8.59375 62.214844-25.769531 34.359375-34.375 34.359375-90.085938 0-124.445313zm-113.136719 113.136719c-13.589844-13.609375-21.078125-31.691406-21.078125-50.921875 0-16.527344 5.558594-32.199219 15.769531-44.921875l101.15625 101.160156c-12.726562 10.1875-28.398437 15.761719-44.925781 15.761719-19.230469 0-37.328125-7.488281-50.921875-21.078125zm107.152344-6-101.152344-101.152344c12.722656-10.210937 28.378906-15.769531 44.921875-15.769531 19.214844 0 37.296875 7.488281 50.902344 21.097656 13.59375 13.589844 21.082031 31.671875 21.082031 50.902344 0 16.527344-5.5625 32.199219-15.753906 44.921875zm0 0" fill="#ed5565"/></svg>