<svg height="496pt" viewBox="-64 0 496 496" width="496pt" xmlns="http://www.w3.org/2000/svg"><path d="m336 432c-12.160156 0-22.632812 6.878906-28 16.800781-5.441406-9.921875-15.910156-16.800781-28-16.800781-1.59375 0-3.273438.160156-4.800781.398438-.640625.082031-1.199219.167968-1.757813.320312-.722656.167969-1.519531.320312-2.242187.5625-.640625.160156-1.277344.398438-1.917969.640625-2 .71875-3.832031 1.679687-5.679688 2.71875v-.082031c-1.761718-16.078125-15.113281-28.558594-31.601562-28.558594-6 0-11.59375 1.761719-16.398438 4.640625-.722656-6.71875-3.441406-12.808594-7.601562-17.601563v-75.039062h-48v75.039062c-4.230469 4.800782-6.953125 10.800782-7.679688 17.519532v.082031c-2.320312-1.441406-4.871093-2.5625-7.511718-3.359375-.808594-.242188-1.519532-.402344-2.242188-.5625-.558594-.160156-1.191406-.238281-1.757812-.320312-1.527344-.238282-3.207032-.398438-4.808594-.398438-16.550781 0-30 12.558594-31.679688 28.640625-4.800781-2.878906-10.320312-4.640625-16.320312-4.640625-12.160156 0-22.632812 6.878906-28 16.800781-5.441406-9.921875-15.910156-16.800781-28-16.800781-17.679688 0-32 14.320312-32 32s14.238281 32 32 32h304c17.6875 0 32-14.320312 32-32s-14.398438-32-32-32zm0 0" fill="#e6e9ed"/><path d="m184 360c-4.425781 0-8-3.574219-8-8v-32c0-4.425781 3.574219-8 8-8s8 3.574219 8 8v32c0 4.425781-3.574219 8-8 8zm0 0" fill="#ccd1d9"/><path d="m288 256v24h-48v-72c26.488281 0 48 21.511719 48 48zm0 0" fill="#da4453"/><path d="m224 296v8c0 8.878906-7.191406 16-16 16h-48c-8.871094 0-16-7.121094-16-16h.089844v-8zm0 0" fill="#656d78"/><path d="m128 208v72h-48v-24c0-26.488281 21.449219-48 48-48zm0 0" fill="#ed5565"/><path d="m240 280v16h-112v-120h32l24 16 24-16h32zm0 0" fill="#e6e9ed"/><path d="m288 0v176h-80l-24 16-24-16h-80v-176zm0 0" fill="#ffce54"/><g fill="#f5f7fa"><path d="m368 463.664062c0 17.671876-14.328125 32-32 32s-32-14.328124-32-32c0-17.671874 14.328125-32 32-32s32 14.328126 32 32zm0 0"/><path d="m264 439.664062c0 17.671876-14.328125 32-32 32s-32-14.328124-32-32c0-17.671874 14.328125-32 32-32s32 14.328126 32 32zm0 0"/><path d="m64 463.664062c0 17.671876-14.328125 32-32 32s-32-14.328124-32-32c0-17.671874 14.328125-32 32-32s32 14.328126 32 32zm0 0"/><path d="m168 439.664062c0 17.671876-14.328125 32-32 32s-32-14.328124-32-32c0-17.671874 14.328125-32 32-32s32 14.328126 32 32zm0 0"/></g><path d="m248 48h-128c-4.425781 0-8-3.574219-8-8s3.574219-8 8-8h128c4.425781 0 8 3.574219 8 8s-3.574219 8-8 8zm0 0" fill="#f6bb42"/><path d="m248 80h-128c-4.425781 0-8-3.574219-8-8s3.574219-8 8-8h128c4.425781 0 8 3.574219 8 8s-3.574219 8-8 8zm0 0" fill="#f6bb42"/><path d="m248 112h-128c-4.425781 0-8-3.574219-8-8s3.574219-8 8-8h128c4.425781 0 8 3.574219 8 8s-3.574219 8-8 8zm0 0" fill="#f6bb42"/><path d="m216 144h-64c-4.425781 0-8-3.574219-8-8s3.574219-8 8-8h64c4.425781 0 8 3.574219 8 8s-3.574219 8-8 8zm0 0" fill="#f6bb42"/></svg>