<svg height="496pt" viewBox="0 -15 496 495" width="496pt" xmlns="http://www.w3.org/2000/svg"><path d="m496 .5v144h-32v24l-48-24h-48v-64h-240v-80zm0 0" fill="#f6bb42"/><path d="m306.238281 224.5c-14.636719 8.078125-27.519531 19.039062-38 32-17.519531 21.921875-28.085937 49.761719-28.085937 80h-136.152344l-64 32v-32h-40v-256h368v128.078125c-22.320312 0-43.359375 5.761719-61.679688 15.921875zm0 0" fill="#ffce54"/><g fill="#f6bb42"><path d="m208.128906 136.5h-160c-4.425781 0-8-3.574219-8-8s3.574219-8 8-8h160c4.421875 0 8 3.574219 8 8s-3.585937 8-8 8zm0 0"/><path d="m112.128906 168.5h-64c-4.425781 0-8-3.574219-8-8s3.574219-8 8-8h64c4.421875 0 8 3.574219 8 8s-3.585937 8-8 8zm0 0"/><path d="m320 168.5h-175.871094c-4.425781 0-8-3.574219-8-8s3.574219-8 8-8h175.871094c4.425781 0 8 3.574219 8 8s-3.574219 8-8 8zm0 0"/><path d="m136.128906 232.5h-88c-4.425781 0-8-3.574219-8-8s3.574219-8 8-8h88c4.421875 0 8 3.574219 8 8s-3.585937 8-8 8zm0 0"/><path d="m320 232.5h-151.871094c-4.425781 0-8-3.574219-8-8s3.574219-8 8-8h151.871094c4.425781 0 8 3.574219 8 8s-3.574219 8-8 8zm0 0"/><path d="m232.097656 200.5h-183.96875c-4.425781 0-8-3.574219-8-8s3.574219-8 8-8h183.96875c4.421875 0 8 3.574219 8 8s-3.585937 8-8 8zm0 0"/><path d="m320 200.5h-55.902344c-4.425781 0-8-3.574219-8-8s3.574219-8 8-8h55.902344c4.425781 0 8 3.574219 8 8s-3.574219 8-8 8zm0 0"/><path d="m320 136.5h-79.871094c-4.425781 0-8-3.574219-8-8s3.574219-8 8-8h79.871094c4.425781 0 8 3.574219 8 8s-3.574219 8-8 8zm0 0"/><path d="m208.128906 264.5h-160c-4.425781 0-8-3.574219-8-8s3.574219-8 8-8h160c4.421875 0 8 3.574219 8 8s-3.585937 8-8 8zm0 0"/><path d="m112.128906 296.5h-64c-4.425781 0-8-3.574219-8-8s3.574219-8 8-8h64c4.421875 0 8 3.574219 8 8s-3.585937 8-8 8zm0 0"/><path d="m265.472656 296.5h-121.34375c-4.425781 0-8-3.574219-8-8s3.574219-8 8-8h121.34375c4.421875 0 8 3.574219 8 8s-3.585937 8-8 8zm0 0"/><path d="m284.273438 264.5h-44.152344c-4.425782 0-8-3.574219-8-8s3.574218-8 8-8h44.152344c4.421874 0 8 3.574219 8 8s-3.578126 8-8 8zm0 0"/></g><path d="m368.078125 208.578125c70.640625 0 127.921875 57.28125 127.921875 127.921875 0 70.71875-57.28125 128-127.921875 128-70.636719 0-127.917969-57.28125-127.917969-128 0-30.238281 10.558594-58.078125 28.085938-80 10.480468-12.960938 23.363281-23.921875 38-32h.082031c18.320313-10.167969 39.359375-15.921875 61.679687-15.921875zm0 0" fill="#ed5565"/><path d="m368.078125 208.578125h-.078125c-5.527344 0-10.976562.363281-16.328125 1.050781 63.273437 7.703125 112.328125 61.519532 112.328125 126.871094 0 65.28125-48.847656 119-111.921875 126.886719 5.25.65625 10.570313 1.113281 16 1.113281 70.640625 0 127.921875-57.28125 127.921875-128 0-70.640625-57.28125-127.921875-127.921875-127.921875zm0 0" fill="#da4453"/><path d="m379.3125 336.5 42.34375-42.34375c3.128906-3.128906 3.128906-8.183594 0-11.3125s-8.183594-3.128906-11.3125 0l-42.34375 42.34375-42.34375-42.34375c-3.128906-3.128906-8.183594-3.128906-11.3125 0s-3.128906 8.183594 0 11.3125l42.34375 42.34375-42.34375 42.34375c-3.128906 3.128906-3.128906 8.183594 0 11.3125 1.558594 1.558594 3.609375 2.34375 5.65625 2.34375s4.097656-.785156 5.65625-2.34375l42.34375-42.34375 42.34375 42.34375c1.558594 1.558594 3.609375 2.34375 5.65625 2.34375s4.097656-.785156 5.65625-2.34375c3.128906-3.128906 3.128906-8.183594 0-11.3125zm0 0" fill="#fff"/></svg>