<svg height="496pt" viewBox="-64 0 496 496" width="496pt" xmlns="http://www.w3.org/2000/svg"><path d="m368 416.078125v71.921875c0 4.480469-3.519531 8-8 8h-144l48-80-16-16 32-31.921875-16-16h40c35.359375 0 64 28.5625 64 64zm0 0" fill="#434a54"/><path d="m304 352.078125h-32c35.359375 0 64 28.5625 64 64v71.921875c0 4.480469-3.519531 8-8 8h32c4.480469 0 8-3.519531 8-8v-71.921875c0-35.4375-28.640625-64-64-64zm0 0" fill="#353b44"/><path d="m235.199219 368 12.800781-32 16 16.078125 16 16-32 31.921875 16 16-48 80h-32l32-79.921875zm0 0" fill="#656d78"/><path d="m104 416 48 80h-144c-4.398438 0-8-3.519531-8-8v-71.921875c0-35.4375 28.640625-64.078125 64-64.078125h40l-16 16.078125 32 31.921875zm0 0" fill="#434a54"/><path d="m132.800781 368 19.199219 48.078125 32 79.921875h-32l-48-80 16-16-32-31.921875 16-16.078125 16-16zm0 0" fill="#656d78"/><path d="m192 376.078125 24 40-32 79.921875-32-79.921875 24-40zm0 0" fill="#da4453"/><path d="m160 355.28125 16 20.796875-24 40-19.199219-48.078125zm0 0" fill="#e6e9ed"/><path d="m235.199219 368-19.199219 48.078125-24-40v-.078125l16-20.71875zm0 0" fill="#e6e9ed"/><path d="m184 344 24 11.28125-16 20.71875v.078125h-16l-16-20.796875zm0 0" fill="#ed5565"/><path d="m184 320 24-16h40v32l-12.800781 32-27.199219-12.71875-24-11.28125-24 11.28125-27.199219 12.71875-12.800781-32v-32h40zm0 0" fill="#f5f7fa"/><path d="m360 0v304h-152l-24 16-24-16h-152v-304zm0 0" fill="#ffce54"/><g fill="#f6bb42"><path d="m208.0625 112h-160c-4.421875 0-8-3.574219-8-8s3.578125-8 8-8h160c4.425781 0 8 3.574219 8 8s-3.574219 8-8 8zm0 0"/><path d="m112.0625 144h-64c-4.421875 0-8-3.574219-8-8s3.578125-8 8-8h64c4.425781 0 8 3.574219 8 8s-3.574219 8-8 8zm0 0"/><path d="m319.9375 144h-175.875c-4.421875 0-8-3.574219-8-8s3.578125-8 8-8h175.875c4.421875 0 8 3.574219 8 8s-3.578125 8-8 8zm0 0"/><path d="m136.0625 208h-88c-4.421875 0-8-3.574219-8-8s3.578125-8 8-8h88c4.425781 0 8 3.574219 8 8s-3.574219 8-8 8zm0 0"/><path d="m319.9375 208h-151.875c-4.421875 0-8-3.574219-8-8s3.578125-8 8-8h151.875c4.421875 0 8 3.574219 8 8s-3.578125 8-8 8zm0 0"/><path d="m232.03125 176h-183.96875c-4.421875 0-8-3.574219-8-8s3.578125-8 8-8h183.96875c4.425781 0 8 3.574219 8 8s-3.574219 8-8 8zm0 0"/><path d="m319.9375 176h-55.90625c-4.421875 0-8-3.574219-8-8s3.578125-8 8-8h55.90625c4.421875 0 8 3.574219 8 8s-3.578125 8-8 8zm0 0"/><path d="m319.9375 112h-79.875c-4.421875 0-8-3.574219-8-8s3.578125-8 8-8h79.875c4.421875 0 8 3.574219 8 8s-3.578125 8-8 8zm0 0"/><path d="m112.0625 48h-64c-4.421875 0-8-3.574219-8-8s3.578125-8 8-8h64c4.425781 0 8 3.574219 8 8s-3.574219 8-8 8zm0 0"/><path d="m319.9375 48h-175.875c-4.421875 0-8-3.574219-8-8s3.578125-8 8-8h175.875c4.421875 0 8 3.574219 8 8s-3.578125 8-8 8zm0 0"/><path d="m232.03125 80h-183.96875c-4.421875 0-8-3.574219-8-8s3.578125-8 8-8h183.96875c4.425781 0 8 3.574219 8 8s-3.574219 8-8 8zm0 0"/><path d="m319.9375 80h-55.90625c-4.421875 0-8-3.574219-8-8s3.578125-8 8-8h55.90625c4.421875 0 8 3.574219 8 8s-3.578125 8-8 8zm0 0"/><path d="m208.0625 240h-160c-4.421875 0-8-3.574219-8-8s3.578125-8 8-8h160c4.425781 0 8 3.574219 8 8s-3.574219 8-8 8zm0 0"/><path d="m112.0625 272h-64c-4.421875 0-8-3.574219-8-8s3.578125-8 8-8h64c4.425781 0 8 3.574219 8 8s-3.574219 8-8 8zm0 0"/><path d="m319.9375 272h-175.875c-4.421875 0-8-3.574219-8-8s3.578125-8 8-8h175.875c4.421875 0 8 3.574219 8 8s-3.578125 8-8 8zm0 0"/><path d="m319.9375 240h-79.875c-4.421875 0-8-3.574219-8-8s3.578125-8 8-8h79.875c4.421875 0 8 3.574219 8 8s-3.578125 8-8 8zm0 0"/></g></svg>