<svg height="512pt" viewBox="-20 0 512 512" width="512pt" xmlns="http://www.w3.org/2000/svg"><g fill="#ffce54"><path d="m144 96c13.28125 0 24 10.71875 24 24s-10.71875 24-24 24-24-10.71875-24-24 10.71875-24 24-24zm0 0"/><path d="m136 200c0 17.671875-14.328125 32-32 32s-32-14.328125-32-32 14.328125-32 32-32 32 14.328125 32 32zm0 0"/><path d="m144 256c13.28125 0 24 10.71875 24 24s-10.71875 24-24 24-24-10.71875-24-24 10.71875-24 24-24zm0 0"/></g><path d="m168 120c0-13.28125-10.71875-24-24-24s-24 10.71875-24 24 10.71875 24 24 24 24-10.71875 24-24zm0 160c0-13.28125-10.71875-24-24-24s-24 10.71875-24 24 10.71875 24 24 24 24-10.71875 24-24zm24-224v295.679688c-83.921875 0-152-68.078126-152-152 0-83.917969 68.078125-152 152-152v.320312zm-56 144c0-17.679688-14.320312-32-32-32s-32 14.320312-32 32 14.320312 32 32 32 32-14.320312 32-32zm0 0" fill="#e6e9ed"/><path d="m219.441406 10c-15.832031 5.28125-27.28125 20.078125-27.441406 37.679688-83.921875 0-152 68.082031-152 152 0 83.921874 68.078125 152 152 152v40.320312c-106 0-192-86-192-192s86-192 192-192c9.28125 0 18.480469.640625 27.441406 2zm0 0" fill="#f5f7fa"/><path d="m472 80c-.015625-26.425781-21.488281-47.921875-47.894531-47.976562-.035157 0-.066407-.023438-.105469-.023438h-192c-26.472656 0-48 21.527344-48 48v376c0 30.871094 25.128906 56 56 56h176c30.871094 0 56-25.128906 56-56zm0 0" fill="#434a54"/><path d="m472 48c-.015625-26.425781-21.488281-47.921875-47.894531-47.9765625-.035157 0-.066407-.0234375-.105469-.0234375h-192c-26.472656 0-48 21.527344-48 48v376c0 30.871094 25.128906 56 56 56h176c30.871094 0 56-25.128906 56-56zm0 0" fill="#656d78"/><path d="m200 64.015625h256v335.984375h-256zm0 0" fill="#ac92ec"/><path d="m328 424c8.878906 0 16 7.199219 16 16 0 8.871094-7.121094 16-16 16-8.800781 0-16-7.128906-16-16 0-8.800781 7.199219-16 16-16zm0 0" fill="#aab2bd"/><path d="m304.238281 40c-4.421875 0-8.039062-3.585938-8.039062-8 0-4.425781 3.535156-8 7.953125-8h.085937c4.417969 0 8 3.574219 8 8 0 4.414062-3.582031 8-8 8zm0 0" fill="#5d9cec"/><path d="m352 40h-24c-4.425781 0-8-3.585938-8-8 0-4.425781 3.574219-8 8-8h24c4.425781 0 8 3.574219 8 8 0 4.414062-3.574219 8-8 8zm0 0" fill="#434a54"/><path d="m274.71875 339.679688c4.882812 4.800781 4.882812 12.71875 0 17.601562l-18.71875 18.71875-17.601562-17.679688-1.117188-1.039062c-4.882812-4.882812-4.882812-12.808594 0-17.601562 4.796875-4.878907 12.71875-4.878907 17.597656 0l1.121094 1.039062 1.121094-1.039062c4.878906-4.878907 12.800781-4.878907 17.597656 0zm0 0" fill="#ed5565"/><path d="m346.71875 339.679688c4.882812 4.800781 4.882812 12.71875 0 17.601562l-18.71875 18.71875-17.601562-17.679688-1.117188-1.039062c-4.882812-4.882812-4.882812-12.808594 0-17.601562 4.796875-4.878907 12.71875-4.878907 17.597656 0l1.121094 1.039062 1.121094-1.039062c4.878906-4.878907 12.800781-4.878907 17.597656 0zm0 0" fill="#ed5565"/><path d="m418.71875 339.679688c4.882812 4.800781 4.882812 12.71875 0 17.601562l-18.71875 18.71875-17.601562-17.679688-1.117188-1.039062c-4.882812-4.882812-4.882812-12.808594 0-17.601562 4.796875-4.878907 12.71875-4.878907 17.597656 0l1.121094 1.039062 1.121094-1.039062c4.878906-4.878907 12.800781-4.878907 17.597656 0zm0 0" fill="#ed5565"/><path d="m364 144c36 0 44 24.078125 44 44s-24 68-56 68c-19.921875 0-.640625-33.679688-16-64-20.238281-40 16-48 28-48zm0 0" fill="#965353"/><path d="m312 132c0 6.628906-5.371094 12-12 12s-12-5.371094-12-12 5.371094-12 12-12 12 5.371094 12 12zm0 0" fill="#ffce54"/><path d="m312 244c0 6.628906-5.371094 12-12 12s-12-5.371094-12-12 5.371094-12 12-12 12 5.371094 12 12zm0 0" fill="#ffce54"/><path d="m296 188c0 11.046875-8.953125 20-20 20s-20-8.953125-20-20 8.953125-20 20-20 20 8.953125 20 20zm0 0" fill="#ffce54"/><path d="m328 88c57.441406 0 104 46.558594 104 104s-46.558594 104-104 104-104-46.558594-104-104 46.558594-104 104-104zm80 100c0-19.921875-8-44-44-44-12 0-48.238281 8-28 48 15.359375 30.320312-3.921875 64 16 64 32 0 56-48.078125 56-68zm-96-56c0-6.640625-5.359375-12-12-12s-12 5.359375-12 12 5.359375 12 12 12 12-5.359375 12-12zm0 112c0-6.640625-5.359375-12-12-12s-12 5.359375-12 12 5.359375 12 12 12 12-5.359375 12-12zm-16-56c0-11.039062-8.960938-20-20-20s-20 8.960938-20 20 8.960938 20 20 20 20-8.960938 20-20zm0 0" fill="#e6e9ed"/><path d="m376 168h-16c-4.425781 0-8 3.574219-8 8s3.574219 8 8 8v32c0 4.425781 3.574219 8 8 8s8-3.574219 8-8v-32c4.425781 0 8-3.574219 8-8s-3.574219-8-8-8zm0 0" fill="#844646"/></svg>