<svg height="496pt" viewBox="0 -8 496 496" width="496pt" xmlns="http://www.w3.org/2000/svg"><path d="m413.511719 105.199219 11.28125 11.273437-34.488281 34.40625c-9.921876-19.351562-23.671876-36.40625-40.3125-50.167968l29.527343-29.511719 11.359375 11.359375zm0 0" fill="#656d78"/><path d="m411.113281 84.878906c-4-4-6.953125-8.726562-8.875-13.679687-5.671875-14.320313-2.71875-31.277344 8.890625-42.878907 16.949219-17.039062 84.871094-28.320312 84.871094-28.320312s-11.28125 67.921875-28.3125 84.878906c-11.609375 11.59375-28.574219 14.554688-42.886719 8.875-4.960937-1.914062-9.6875-4.875-13.6875-8.875zm0 0" fill="#e6e9ed"/><path d="m424.800781 93.839844-11.28125 11.28125v.078125l-22.625-22.640625-.015625-.085938 11.28125-11.273437h.078125c1.921875 4.953125 4.875 9.679687 8.875 13.679687s8.734375 6.960938 13.6875 8.875zm0 0" fill="#ccd1d9"/><path d="m372.542969 123.558594c-1.183594 16.441406 12.785156 17.59375 17.769531 27.320312l34.488281-34.40625-11.28125-11.273437-11.296875-11.304688zm0 0" fill="#434a54"/><path d="m433.777344 50.921875-27.707032 27.703125c1.449219 2.207031 3.113282 4.328125 5.042969 6.253906 1.933594 1.9375 4.054688 3.601563 6.269531 5.058594l27.707032-27.707031c3.125-3.125 3.125-8.183594 0-11.308594-3.128906-3.128906-8.195313-3.121094-11.3125 0zm0 0" fill="#ccd1d9"/><path d="m27.625 7.511719-20.121094 20.121093-7.503906-27.632812zm0 0" fill="#656d78"/><path d="m62.230469 16.960938-5.671875 39.597656-39.605469 5.679687-9.449219-34.605469 20.121094-20.121093zm0 0" fill="#ffd2a6"/><path d="m56.558594 56.558594 66.96875 66.960937c-6.816406 8.402344-12.816406 17.59375-17.855469 27.359375l-88.71875-88.640625zm0 0" fill="#ed5565"/><path d="m62.230469 16.960938 83.769531 83.757812c-8.246094 6.808594-15.753906 14.402344-22.472656 22.808594l-66.96875-66.96875zm0 0" fill="#da4453"/><path d="m408 224c0 55.921875-28.640625 105.039062-72.078125 133.601562-25.203125 16.71875-55.457031 26.398438-87.921875 26.40625-32.488281-.007812-62.71875-9.6875-87.921875-26.40625-43.4375-28.5625-72.078125-77.679687-72.078125-133.59375 0-26.328124 6.390625-51.207031 17.671875-73.128906 5.046875-9.765625 11.046875-18.957031 17.855469-27.359375 6.71875-8.40625 14.214844-16 22.472656-22.808593 27.6875-22.871094 63.28125-36.71875 102-36.71875s74.3125 13.839843 102 36.71875c16.640625 13.761718 30.390625 30.816406 40.3125 50.167968 11.28125 21.921875 17.6875 46.800782 17.6875 73.121094zm0 0" fill="#ffce54"/><path d="m335.921875 357.601562c-25.203125 16.71875-55.457031 26.398438-87.921875 26.40625-32.488281-.007812-62.71875-9.6875-87.921875-26.40625-43.4375-28.5625-72.078125-77.679687-72.078125-133.59375v47.992188c0 26.398438 6.40625 51.28125 17.769531 73.199219 9.902344 19.359375 23.671875 36.410156 40.308594 50.160156 4.488281 3.601563 9.128906 7.039063 13.921875 10.242187 25.28125 16.71875 55.511719 26.40625 88 26.398438 32.472656.007812 62.71875-9.679688 88-26.398438 4.871094-3.203124 9.511719-6.640624 14-10.320312 8.230469-6.808594 15.769531-14.402344 22.472656-22.808594 6.816406-8.402344 12.816406-17.59375 17.839844-27.359375 11.28125-21.914062 17.6875-46.800781 17.6875-73.121093v-48c0 55.929687-28.640625 105.046874-72.078125 133.609374zm0 0" fill="#f6bb42"/><path d="m146.078125 395.359375-75.359375 75.28125c-12.488281 12.488281-32.71875 12.488281-45.277344-.007813-12.488281-12.480468-12.472656-32.792968 0-45.273437l80.160156-80.078125.167969-.082031c9.902344 19.359375 23.671875 36.410156 40.308594 50.160156zm0 0" fill="#656d78"/><path d="m477.671875 432.398438c3.128906 3.128906 3.128906 8.167968.015625 11.28125l-34.015625 34.007812c-3.113281 3.113281-8.160156 3.113281-11.28125-.007812l-22.636719-22.640626 45.277344-45.277343zm0 0" fill="#656d78"/><path d="m372.472656 372.480469c6.816406-8.402344 12.816406-17.59375 17.839844-27.359375l64.71875 64.640625-45.277344 45.277343-59.753906-59.757812c8.230469-6.800781 15.769531-14.402344 22.472656-22.800781zm0 0" fill="#ed5565"/><path d="m455.03125 409.761719-64.71875-64.640625c-5.03125 9.765625-11.03125 18.957031-17.839844 27.359375l59.917969 59.917969zm0 0" fill="#da4453"/><path d="m460.6875 460.679688 17-17c3.113281-3.113282 3.113281-8.160157-.015625-11.28125l-22.640625-22.636719-22.640625 22.636719zm0 0" fill="#434a54"/><path d="m25.457031 470.65625c12.574219 12.464844 32.800781 12.464844 45.261719-.015625l75.359375-75.28125c-8.261719-6.824219-15.796875-14.472656-22.527344-22.800781zm0 0" fill="#434a54"/><g fill="#edab37"><path d="m240 383.710938v47.992187c2.65625.136719 5.3125.296875 8 .296875s5.34375-.167969 8-.296875v-47.992187c-2.65625.128906-5.3125.296874-8 .296874s-5.34375-.167968-8-.296874zm0 0"/><path d="m328 362.464844v48.03125c2.703125-1.566406 5.398438-3.167969 8-4.886719 2.792969-1.832031 5.351562-3.914063 8-5.898437v-47.78125c-2.632812 1.964843-5.320312 3.863281-8.078125 5.679687-2.578125 1.703125-5.242187 3.285156-7.921875 4.855469zm0 0"/><path d="m152 351.921875v47.796875c2.65625 1.976562 5.238281 4.042969 8 5.882812 2.601562 1.71875 5.296875 3.320313 8 4.886719v-48.03125c-2.679688-1.5625-5.34375-3.152343-7.921875-4.855469-2.757813-1.808593-5.445313-3.714843-8.078125-5.679687zm0 0"/><path d="m280 272.007812h-8v-128c0-.246093-.121094-.464843-.144531-.703124-.046875-.535157-.160157-1.046876-.320313-1.578126-.160156-.527343-.351562-1.015624-.605468-1.496093-.121094-.214844-.136719-.453125-.273438-.664063-.152344-.214844-.375-.335937-.527344-.527344-.359375-.4375-.738281-.816406-1.167968-1.167968-.394532-.3125-.785157-.582032-1.21875-.824219-.453126-.238281-.902344-.421875-1.398438-.574219-.519531-.167968-1.03125-.265625-1.574219-.3125-.273437-.023437-.503906-.152344-.769531-.152344-.257812 0-.472656.128907-.71875.152344-.527344.046875-1.035156.160156-1.554688.3125-.527343.160156-1.023437.351563-1.503906.605469-.214844.121094-.460937.136719-.664062.273437l-48 32c-3.679688 2.457032-4.671875 7.417969-2.214844 11.097657 1.535156 2.3125 4.082031 3.558593 6.664062 3.558593 1.519532 0 3.0625-.441406 4.433594-1.34375l3.558594-2.375v91.71875h-8c-4.425781 0-8 3.578126-8 8 0 4.425782 3.574219 8 8 8h64c4.425781 0 8-3.574218 8-8 0-4.421874-3.574219-8-8-8zm-40-102.382812 16-10.671875v113.054687h-16zm0 0"/></g></svg>