<svg height="495pt" viewBox="0 -31 495.92 495" width="495pt" xmlns="http://www.w3.org/2000/svg"><path d="m376 16.460938v16h-376v-16c0-8.882813 7.128906-16 16-16h344c8.800781 0 16 7.117187 16 16zm0 0" fill="#ccd1d9"/><path d="m447.921875 328.460938-71.84375-71.839844-.15625-.160156-72 72-48-24v128h240v-128zm-88 24 8-16h16l8 16v8l-8 16h-16l-8-16zm0 0" fill="#ffce54"/><path d="m463.921875 320.460938v112h32v-128zm0 0" fill="#f6bb42"/><path d="m391.921875 352.460938v8l-8 16h-16l-8-16v-8l8-16h16zm0 0" fill="#ed5565"/><path d="m55.921875 184.460938h264v24h-264zm0 0" fill="#aab2bd"/><path d="m376.160156 256.460938-.089844.160156-.148437-.160156-72 72-48-24v88h-255.761719v-360h376zm-56.238281-48v-24h-264v24zm0-56v-64h-264v64zm0 0" fill="#e6e9ed"/><path d="m55.921875 88.460938h264v64h-264zm0 0" fill="#ed5565"/><g fill="#ccd1d9"><path d="m191.929688 248.460938h-128c-4.425782 0-8-3.578126-8-8 0-4.425782 3.574218-8 8-8h128c4.421874 0 8 3.574218 8 8 0 4.421874-3.578126 8-8 8zm0 0"/><path d="m119.929688 280.460938h-56c-4.425782 0-8-3.578126-8-8 0-4.425782 3.574218-8 8-8h56c4.421874 0 8 3.574218 8 8 0 4.421874-3.578126 8-8 8zm0 0"/><path d="m311.929688 280.460938h-160c-4.425782 0-8-3.578126-8-8 0-4.425782 3.574218-8 8-8h160c4.421874 0 8 3.574218 8 8 0 4.421874-3.578126 8-8 8zm0 0"/><path d="m159.929688 344.460938h-96c-4.425782 0-8-3.578126-8-8 0-4.425782 3.574218-8 8-8h96c4.421874 0 8 3.574218 8 8 0 4.421874-3.578126 8-8 8zm0 0"/><path d="m223.992188 344.460938h-32.0625c-4.425782 0-8-3.578126-8-8 0-4.425782 3.574218-8 8-8h32.0625c4.421874 0 8 3.574218 8 8 0 4.421874-3.578126 8-8 8zm0 0"/><path d="m223.929688 312.460938h-160c-4.425782 0-8-3.578126-8-8 0-4.425782 3.574218-8 8-8h160c4.421874 0 8 3.574218 8 8 0 4.421874-3.578126 8-8 8zm0 0"/><path d="m311.929688 248.460938h-88c-4.425782 0-8-3.578126-8-8 0-4.425782 3.574218-8 8-8h88c4.421874 0 8 3.574218 8 8 0 4.421874-3.578126 8-8 8zm0 0"/></g><path d="m264.070312 128.460938h-152c-4.421874 0-8-3.578126-8-8 0-4.425782 3.578126-8 8-8h152c4.425782 0 8 3.574218 8 8 0 4.421874-3.582031 8-8 8zm0 0" fill="#da4453"/><path d="m255.929688 400.460938h-.007813v16h240v-16zm0 0" fill="#f6bb42"/><path d="m24.230469 24.460938c-4.421875 0-8.039063-3.578126-8.039063-8 0-4.425782 3.535156-8 7.953125-8h.085938c4.417969 0 8 3.574218 8 8 0 4.421874-3.582031 8-8 8zm0 0" fill="#ed5565"/><path d="m48.230469 24.460938c-4.421875 0-8.039063-3.578126-8.039063-8 0-4.425782 3.535156-8 7.953125-8h.085938c4.417969 0 8 3.574218 8 8 0 4.421874-3.582031 8-8 8zm0 0" fill="#ffce54"/><path d="m72.230469 24.460938c-4.421875 0-8.039063-3.578126-8.039063-8 0-4.425782 3.535156-8 7.953125-8h.085938c4.417969 0 8 3.574218 8 8 0 4.421874-3.582031 8-8 8zm0 0" fill="#8cc152"/><path d="m463.921875 400.460938h32v16h-32zm0 0" fill="#edab37"/></svg>