<svg height="512pt" viewBox="0 -100 512 512" width="512pt" xmlns="http://www.w3.org/2000/svg"><path d="m48 23.792969c-26.425781.015625-47.921875 21.488281-47.9765625 47.894531 0 .039062-.0234375.066406-.0234375.105469v192c0 26.472656 21.527344 48 48 48h408c30.871094 0 56-25.128907 56-56v-176c0-30.871094-25.128906-56-56-56zm0 0" fill="#434a54"/><path d="m48 0c-26.425781.015625-47.921875 21.488281-47.9765625 47.894531 0 .035157-.0234375.066407-.0234375.105469v192c0 26.472656 21.527344 48 48 48h408c30.871094 0 56-25.128906 56-56v-176c0-30.871094-25.128906-56-56-56zm0 0" fill="#656d78"/><path d="m64.015625 16h367.984375v256h-367.984375zm0 0" fill="#5d9cec"/><path d="m456 144c0-8.878906 7.199219-16 16-16 8.871094 0 16 7.121094 16 16 0 8.800781-7.128906 16-16 16-8.800781 0-16-7.207031-16-16zm0 0" fill="#aab2bd"/><path d="m40 167.753906c0 4.421875-3.585938 8.039063-8 8.039063-4.425781 0-8-3.535157-8-7.953125v-.085938c0-4.417968 3.574219-8 8-8 4.414062 0 8 3.589844 8 8zm0 0" fill="#5d9cec"/><path d="m40 120v24c0 4.425781-3.585938 8-8 8-4.425781 0-8-3.574219-8-8v-24c0-4.425781 3.574219-8 8-8 4.414062 0 8 3.574219 8 8zm0 0" fill="#434a54"/><path d="m144 39.894531v32l-16-8v-16zm0 0" fill="#434a54"/><path d="m128 63.894531v8h-40v-32h40zm0 0" fill="#656d78"/><path d="m384 71.894531c-4.425781 0-8-3.574219-8-8v-16c0-4.421875 3.574219-8 8-8s8 3.578125 8 8v16c0 4.425781-3.574219 8-8 8zm0 0" fill="#fff"/><path d="m408 71.894531c-4.425781 0-8-3.574219-8-8v-16c0-4.421875 3.574219-8 8-8s8 3.578125 8 8v16c0 4.425781-3.574219 8-8 8zm0 0" fill="#fff"/><path d="m392 272v-88.105469c0-4.421875-3.574219-8-8-8s-8 3.578125-8 8v88.105469zm0 0" fill="#965353"/><path d="m368 207.894531c2.046875 0 4.097656-.78125 5.65625-2.34375l10.34375-10.34375 10.34375 10.34375c1.558594 1.5625 3.609375 2.34375 5.65625 2.34375s4.097656-.78125 5.65625-2.34375c3.128906-3.125 3.128906-8.183593 0-11.3125l-16-16c-3.128906-3.125-8.183594-3.125-11.3125 0l-16 16c-3.128906 3.128907-3.128906 8.1875 0 11.3125 1.558594 1.5625 3.609375 2.34375 5.65625 2.34375zm0 0" fill="#a0d468"/><path d="m389.65625 210.238281c-3.128906-3.125-8.183594-3.125-11.3125 0l-16 16c-3.128906 3.128907-3.128906 8.1875 0 11.3125 1.558594 1.5625 3.609375 2.34375 5.65625 2.34375s4.097656-.78125 5.65625-2.34375l10.34375-10.34375 10.34375 10.34375c1.558594 1.5625 3.609375 2.34375 5.65625 2.34375s4.097656-.78125 5.65625-2.34375c3.128906-3.125 3.128906-8.183593 0-11.3125zm0 0" fill="#a0d468"/><path d="m320 248v24h-144v-24c0-13.28125 10.71875-24 24-24h24l24 16 24-16h24c13.28125 0 24 10.71875 24 24zm0 0" fill="#e6e9ed"/><path d="m296 224h-24c13.28125 0 24 10.71875 24 24v24h24v-24c0-13.28125-10.71875-24-24-24zm0 0" fill="#ccd1d9"/><path d="m272 202.558594v21.441406l-24 16-24-16v-21.527344c7.28125 3.519532 15.359375 5.449219 24 5.449219s16.71875-1.921875 24-5.449219zm0 0" fill="#eac6bb"/><path d="m240 128h16c19.121094 0 36.320312 8.398438 48 21.679688v2.320312c0 22.320312-13.039062 41.601562-32 50.480469-7.28125 3.519531-15.359375 5.449219-24 5.449219s-16.71875-1.921876-24-5.449219c-18.960938-8.871094-32-28.160157-32-50.480469v-24c13.28125 0 24-10.71875 24-24 0 13.28125 10.71875 24 24 24zm0 0" fill="#eac6bb"/><path d="m280 132.742188v19.25c0 22.320312-13.039062 41.601562-32 50.480468-3.792969 1.832032-7.816406 3.207032-12 4.136719 3.855469.839844 7.855469 1.3125 12 1.3125 8.640625 0 16.71875-1.921875 24-5.449219 18.960938-8.871094 32-28.160156 32-50.480468v-2.320313c-6.488281-7.367187-14.71875-13.167969-24-16.929687zm0 0" fill="#d3b1a9"/><path d="m216 64v40c0 13.28125-10.71875 24-24 24v-40c0-13.28125 10.71875-24 24-24zm0 0" fill="#da4453"/><path d="m256 48c-15.121094 0-29.039062 7.199219-40 16v40c0 13.28125 10.71875 24 24 24h16c19.121094 0 36.320312 8.398438 48 21.679688 3.167969 3.566406 5.929688 7.496093 8.230469 11.695312l.050781-.007812c.566406 1.503906 2.007812 2.59375 3.71875 2.59375 2.207031 0 3.992188-1.785157 4-3.992188v-47.96875c0-35.359375-28.640625-64-64-64zm0 0" fill="#ed5565"/><path d="m256 48c-5.167969 0-10.183594.886719-15 2.351562 27.089844 7.449219 47 32.183594 47 61.648438v24.601562c6.023438 3.496094 11.449219 7.894532 16 13.078126 3.167969 3.566406 5.929688 7.496093 8.230469 11.695312l.050781-.007812c.566406 1.503906 2.007812 2.59375 3.71875 2.59375 2.207031 0 3.992188-1.785157 4-3.992188v-47.96875c0-35.359375-28.640625-64-64-64zm0 0" fill="#da4453"/><path d="m120 272v-112.105469c0-4.421875-3.574219-8-8-8s-8 3.578125-8 8v112.105469zm0 0" fill="#965353"/><g fill="#a0d468"><path d="m96 175.894531c2.046875 0 4.097656-.78125 5.65625-2.34375l10.34375-10.34375 10.34375 10.34375c1.558594 1.5625 3.609375 2.34375 5.65625 2.34375s4.097656-.78125 5.65625-2.34375c3.128906-3.125 3.128906-8.183593 0-11.3125l-16-16c-3.128906-3.125-8.183594-3.125-11.3125 0l-16 16c-3.128906 3.128907-3.128906 8.1875 0 11.3125 1.558594 1.5625 3.609375 2.34375 5.65625 2.34375zm0 0"/><path d="m117.65625 178.238281c-3.128906-3.125-8.183594-3.125-11.3125 0l-16 16c-3.128906 3.128907-3.128906 8.1875 0 11.3125 1.558594 1.5625 3.609375 2.34375 5.65625 2.34375s4.097656-.78125 5.65625-2.34375l10.34375-10.34375 10.34375 10.34375c1.558594 1.5625 3.609375 2.34375 5.65625 2.34375s4.097656-.78125 5.65625-2.34375c3.128906-3.125 3.128906-8.183593 0-11.3125zm0 0"/><path d="m117.65625 210.238281c-3.128906-3.125-8.183594-3.125-11.3125 0l-16 16c-3.128906 3.128907-3.128906 8.1875 0 11.3125 1.558594 1.5625 3.609375 2.34375 5.65625 2.34375s4.097656-.78125 5.65625-2.34375l10.34375-10.34375 10.34375 10.34375c1.558594 1.5625 3.609375 2.34375 5.65625 2.34375s4.097656-.78125 5.65625-2.34375c3.128906-3.125 3.128906-8.183593 0-11.3125zm0 0"/></g></svg>