<svg height="496pt" viewBox="0 -27 496 495" width="496pt" xmlns="http://www.w3.org/2000/svg"><path d="m496 424.5c0 8.800781-7.199219 16-16 16h-464c-8.800781 0-16-7.199219-16-16v-184c0-8.800781 7.199219-16 16-16h464c8.800781 0 16 7.199219 16 16zm0 0" fill="#ccd1d9"/><path d="m496 408.5c0 8.800781-7.199219 16-16 16h-464c-8.800781 0-16-7.199219-16-16v-184c0-8.800781 7.199219-16 16-16h464c8.800781 0 16 7.199219 16 16zm0 0" fill="#e6e9ed"/><g fill="#ccd1d9"><path d="m432 256.5h24v80h-24zm0 0"/><path d="m432 368.5h24v24h-24zm0 0"/><path d="m376 368.5h24v24h-24zm0 0"/><path d="m376 312.5h24v24h-24zm0 0"/><path d="m376 256.5h24v24h-24zm0 0"/><path d="m320 312.5h24v24h-24zm0 0"/><path d="m320 256.5h24v24h-24zm0 0"/><path d="m264 312.5h24v24h-24zm0 0"/><path d="m264 256.5h24v24h-24zm0 0"/><path d="m208 256.5h24v24h-24zm0 0"/><path d="m208 312.5h24v24h-24zm0 0"/><path d="m152 368.5h192v24h-192zm0 0"/><path d="m40 368.5h24v24h-24zm0 0"/><path d="m96 368.5h24v24h-24zm0 0"/><path d="m152 312.5h24v24h-24zm0 0"/><path d="m40 312.5h80v24h-80zm0 0"/><path d="m152 256.5h24v24h-24zm0 0"/><path d="m96 256.5h24v24h-24zm0 0"/><path d="m40 256.5h24v24h-24zm0 0"/></g><path d="m232 40.5v136l-32-24h-184v-112zm0 0" fill="#ffce54"/><path d="m480 .5v112h-184l-32 24v-136zm0 0" fill="#f6bb42"/><path d="m432 248.5h24v80h-24zm0 0" fill="#fff"/><path d="m432 360.5h24v24h-24zm0 0" fill="#fff"/><path d="m376 360.5h24v24h-24zm0 0" fill="#fff"/><path d="m376 304.5h24v24h-24zm0 0" fill="#fff"/><path d="m376 248.5h24v24h-24zm0 0" fill="#fff"/><path d="m320 304.5h24v24h-24zm0 0" fill="#fff"/><path d="m320 248.5h24v24h-24zm0 0" fill="#fff"/><path d="m264 304.5h24v24h-24zm0 0" fill="#fff"/><path d="m264 248.5h24v24h-24zm0 0" fill="#fff"/><path d="m208 248.5h24v24h-24zm0 0" fill="#fff"/><path d="m208 304.5h24v24h-24zm0 0" fill="#fff"/><path d="m152 360.5h192v24h-192zm0 0" fill="#fff"/><path d="m40 360.5h24v24h-24zm0 0" fill="#fff"/><path d="m96 360.5h24v24h-24zm0 0" fill="#fff"/><path d="m152 304.5h24v24h-24zm0 0" fill="#fff"/><path d="m40 304.5h80v24h-80zm0 0" fill="#fff"/><path d="m152 248.5h24v24h-24zm0 0" fill="#fff"/><path d="m96 248.5h24v24h-24zm0 0" fill="#fff"/><path d="m40 248.5h24v24h-24zm0 0" fill="#fff"/><path d="m184 88.5h-120c-4.425781 0-8-3.574219-8-8s3.574219-8 8-8h120c4.425781 0 8 3.574219 8 8s-3.574219 8-8 8zm0 0" fill="#f6bb42"/><path d="m184 120.5h-120c-4.425781 0-8-3.574219-8-8s3.574219-8 8-8h120c4.425781 0 8 3.574219 8 8s-3.574219 8-8 8zm0 0" fill="#f6bb42"/><path d="m432 48.5h-120c-4.425781 0-8-3.574219-8-8s3.574219-8 8-8h120c4.425781 0 8 3.574219 8 8s-3.574219 8-8 8zm0 0" fill="#edab37"/><path d="m432 80.5h-120c-4.425781 0-8-3.574219-8-8s3.574219-8 8-8h120c4.425781 0 8 3.574219 8 8s-3.574219 8-8 8zm0 0" fill="#edab37"/></svg>