<svg height="512pt" viewBox="-112 0 512 512" width="512pt" xmlns="http://www.w3.org/2000/svg"><path d="m288 80c-.015625-26.433594-21.488281-47.921875-47.894531-47.976562-.035157 0-.066407-.023438-.105469-.023438h-192c-26.472656 0-48 21.527344-48 48v376c0 30.871094 25.128906 56 56 56h176c30.871094 0 56-25.128906 56-56zm0 0" fill="#434a54"/><path d="m288 48c-.015625-26.433594-21.488281-47.921875-47.894531-47.9765625-.035157 0-.066407-.0234375-.105469-.0234375h-192c-26.472656 0-48 21.527344-48 48v376c0 30.871094 25.128906 56 56 56h176c30.871094 0 56-25.128906 56-56zm0 0" fill="#656d78"/><path d="m16 64.015625h256v335.984375h-256zm0 0" fill="#e6e9ed"/><path d="m144 424c8.878906 0 16 7.199219 16 16 0 8.871094-7.121094 16-16 16-8.800781 0-16-7.128906-16-16 0-8.800781 7.199219-16 16-16zm0 0" fill="#aab2bd"/><path d="m240 96v136h-16l-48-64-40.230469 53.679688-23.769531-29.679688-32 40h-32v-136zm0 0" fill="#ac92ec"/><path d="m112 192 23.769531 29.679688-7.769531 10.320312h-48zm0 0" fill="#434a54"/><path d="m135.769531 221.679688 40.230469-53.679688 48 64h-96zm0 0" fill="#656d78"/><path d="m120.238281 39.992188c-4.421875 0-8.039062-3.578126-8.039062-8 0-4.417969 3.535156-8 7.953125-8h.085937c4.417969 0 8 3.582031 8 8 0 4.421874-3.582031 8-8 8zm0 0" fill="#5d9cec"/><path d="m168 39.992188h-24c-4.425781 0-8-3.578126-8-8 0-4.417969 3.574219-8 8-8h24c4.425781 0 8 3.582031 8 8 0 4.421874-3.574219 8-8 8zm0 0" fill="#434a54"/><path d="m96.257812 151.960938c-8.824218 0-16.042968-7.152344-16.042968-15.960938s7.066406-15.96875 15.875-15.96875h.167968c8.8125 0 15.957032 7.160156 15.957032 15.96875s-7.144532 15.960938-15.957032 15.960938zm0 0" fill="#ffce54"/><g fill="#ccd1d9"><path d="m176 280h-120c-4.425781 0-8-3.574219-8-8s3.574219-8 8-8h120c4.425781 0 8 3.574219 8 8s-3.574219 8-8 8zm0 0"/><path d="m104 312h-48c-4.425781 0-8-3.574219-8-8s3.574219-8 8-8h48c4.425781 0 8 3.574219 8 8s-3.574219 8-8 8zm0 0"/><path d="m232 312h-96c-4.425781 0-8-3.574219-8-8s3.574219-8 8-8h96c4.425781 0 8 3.574219 8 8s-3.574219 8-8 8zm0 0"/><path d="m152 344h-96c-4.425781 0-8-3.574219-8-8s3.574219-8 8-8h96c4.425781 0 8 3.574219 8 8s-3.574219 8-8 8zm0 0"/><path d="m232 344h-48c-4.425781 0-8-3.574219-8-8s3.574219-8 8-8h48c4.425781 0 8 3.574219 8 8s-3.574219 8-8 8zm0 0"/><path d="m232 280h-24c-4.425781 0-8-3.574219-8-8s3.574219-8 8-8h24c4.425781 0 8 3.574219 8 8s-3.574219 8-8 8zm0 0"/><path d="m176 376h-120c-4.425781 0-8-3.574219-8-8s3.574219-8 8-8h120c4.425781 0 8 3.574219 8 8s-3.574219 8-8 8zm0 0"/><path d="m232 376h-24c-4.425781 0-8-3.574219-8-8s3.574219-8 8-8h24c4.425781 0 8 3.574219 8 8s-3.574219 8-8 8zm0 0"/></g></svg>