<svg height="496pt" viewBox="0 0 496 496" width="496pt" xmlns="http://www.w3.org/2000/svg"><path d="m351.921875 80h-304v104h304zm-5.042969 208c-12.320312 8.238281-22.640625 19.199219-30.085937 32-8.160157 14.078125-12.800781 30.480469-12.800781 48h-303.824219v-336h399.910156v240h-.078125c-19.679688 0-37.921875 5.921875-53.121094 16zm0 0" fill="#e6e9ed"/><g fill="#ccd1d9"><path d="m199.9375 296h-144c-4.425781 0-8-3.574219-8-8s3.574219-8 8-8h144c4.421875 0 8 3.574219 8 8s-3.578125 8-8 8zm0 0"/><path d="m119.9375 328h-64c-4.425781 0-8-3.574219-8-8s3.574219-8 8-8h64c4.421875 0 8 3.574219 8 8s-3.578125 8-8 8zm0 0"/><path d="m340.847656 328h-188.910156c-4.425781 0-8-3.574219-8-8s3.574219-8 8-8h188.910156c4.425782 0 8 3.574219 8 8s-3.574218 8-8 8zm0 0"/><path d="m119.9375 232h-64c-4.425781 0-8-3.574219-8-8s3.574219-8 8-8h64c4.421875 0 8 3.574219 8 8s-3.578125 8-8 8zm0 0"/><path d="m343.9375 232h-192c-4.425781 0-8-3.574219-8-8s3.574219-8 8-8h192c4.421875 0 8 3.574219 8 8s-3.578125 8-8 8zm0 0"/><path d="m255.9375 264h-200c-4.425781 0-8-3.574219-8-8s3.574219-8 8-8h200c4.421875 0 8 3.574219 8 8s-3.578125 8-8 8zm0 0"/><path d="m343.9375 264h-56c-4.425781 0-8-3.574219-8-8s3.574219-8 8-8h56c4.421875 0 8 3.574219 8 8s-3.578125 8-8 8zm0 0"/><path d="m343.921875 296h-111.984375c-4.425781 0-8-3.574219-8-8s3.574219-8 8-8h111.984375c4.421875 0 8 3.574219 8 8s-3.578125 8-8 8zm0 0"/></g><path d="m456 446c-15.761719 11.359375-35.121094 18-56 18-20.960938 0-40.238281-6.640625-56-18-24.238281-17.441406-40-45.839844-40-78v32c0 32.160156 15.761719 60.558594 40 78 15.761719 11.359375 35.039062 18 56 18 20.878906 0 40.238281-6.640625 56-18v-.078125c24.238281-17.363281 40-45.84375 40-77.921875v-32c0 32.078125-15.761719 60.558594-40 78zm0 0" fill="#f6bb42"/><path d="m496 368c0 32.078125-15.761719 60.558594-40 78-15.761719 11.359375-35.121094 18-56 18-20.960938 0-40.238281-6.640625-56-18-24.238281-17.441406-40-45.839844-40-78 0-17.519531 4.640625-33.921875 12.800781-48 7.445313-12.800781 17.765625-23.761719 30.085938-32 15.191406-10.078125 33.441406-16 53.121093-16h.082032c52.949218.078125 95.910156 42.960938 95.910156 96zm0 0" fill="#ffce54"/><path d="m400.078125 16v16h-400.078125v-16c0-8.878906 7.121094-16 16-16h368.078125c8.800781 0 16 7.121094 16 16zm0 0" fill="#ccd1d9"/><path d="m175.921875 144 23.757813 29.679688-7.757813 10.320312h-48zm0 0" fill="#434a54"/><path d="m199.679688 173.679688 40.242187-53.679688 48 64h-96zm0 0" fill="#656d78"/><path d="m351.921875 80v104h-64l-48-64-40.242187 53.679688-23.757813-29.679688-32 40h-96v-104zm0 0" fill="#ac92ec"/><path d="m128.191406 135.960938c-8.824218 0-16.039062-7.144532-16.039062-15.960938s7.0625-15.960938 15.871094-15.960938h.167968c8.816406 0 15.960938 7.144532 15.960938 15.960938s-7.144532 15.960938-15.960938 15.960938zm0 0" fill="#ffce54"/><path d="m392 463.664062v32c2.640625.214844 5.304688.335938 8 .335938s5.359375-.121094 8-.335938v-32c-2.640625.214844-5.304688.335938-8 .335938s-5.359375-.121094-8-.335938zm0 0" fill="#edab37"/><path d="m472 463.425781v-31.96875c-4.777344 5.421875-10.128906 10.320313-16 14.542969v31.921875c5.871094-4.203125 11.222656-9.089844 16-14.496094zm0 0" fill="#edab37"/><path d="m328 431.472656v32c4.777344 5.40625 10.128906 10.304688 16 14.527344v-32c-5.871094-4.222656-11.222656-9.128906-16-14.527344zm0 0" fill="#edab37"/><path d="m400.128906 407.992188c-4.417968 0-7.992187-3.566407-8-7.984376l-.128906-63.984374c-.007812-4.421876 3.558594-8.007813 7.984375-8.015626h.007813c4.421874 0 8 3.566407 8.007812 7.984376l.128906 63.984374c.007813 4.421876-3.5625 8.007813-7.984375 8.015626 0 0-.007812 0-.015625 0zm0 0" fill="#edab37"/><path d="m24.238281 24c-4.414062 0-8.039062-3.574219-8.039062-8s3.542969-8 7.960937-8h.078125c4.417969 0 8 3.574219 8 8s-3.582031 8-8 8zm0 0" fill="#ed5565"/><path d="m48.238281 24c-4.414062 0-8.039062-3.574219-8.039062-8s3.542969-8 7.960937-8h.078125c4.417969 0 8 3.574219 8 8s-3.582031 8-8 8zm0 0" fill="#ffce54"/><path d="m72.238281 24c-4.414062 0-8.039062-3.574219-8.039062-8s3.535156-8 7.953125-8h.085937c4.417969 0 8 3.574219 8 8s-3.582031 8-8 8zm0 0" fill="#8cc152"/></svg>