<svg height="496pt" viewBox="-8 0 496 496" width="496pt" xmlns="http://www.w3.org/2000/svg"><path d="m264 144 23.761719 29.679688-7.761719 10.320312h-48zm0 0" fill="#434a54"/><path d="m287.761719 173.679688 40.238281-53.679688 48 64h-96zm0 0" fill="#656d78"/><path d="m144 224h288v24h-288zm0 0" fill="#aab2bd"/><path d="m48 128h-48v-16c0-8.871094 7.191406-16 16-16h32.078125v32zm0 0" fill="#aab2bd"/><path d="m384.160156 456.640625v39.359375h-384v-368h47.917969v320h336.082031zm0 0" fill="#ccd1d9"/><path d="m95.921875 80h-48v-16c0-8.871094 7.199219-16 16-16h32.316406v32zm0 0" fill="#ccd1d9"/><path d="m432.078125 408.640625v39.359375h-384v-368h48.160156v320h335.839844zm0 0" fill="#e6e9ed"/><path d="m432 80v104h-56l-48-64-40.238281 53.679688-23.761719-29.679688-32 40h-88v-104zm0 0" fill="#a0d468"/><path d="m480.078125 16v16h-384v-16c0-8.878906 7.195313-16 16-16h352c8.875 0 16 7.121094 16 16zm0 0" fill="#e6e9ed"/><path d="m480.238281 32v368h-384v-368zm-48.238281 216v-24h-288v24zm0-64v-104h-288v104zm0 0" fill="#f5f7fa"/><path d="m120.328125 24c-4.425781 0-8.039063-3.585938-8.039063-8s3.535157-8 7.949219-8h.089844c4.414063 0 8 3.585938 8 8s-3.585937 8-8 8zm0 0" fill="#ed5565"/><path d="m144.328125 24c-4.425781 0-8.039063-3.585938-8.039063-8s3.535157-8 7.949219-8h.089844c4.414063 0 8 3.585938 8 8s-3.585937 8-8 8zm0 0" fill="#ffce54"/><path d="m168.328125 24c-4.425781 0-8.039063-3.585938-8.039063-8s3.535157-8 7.949219-8h.089844c4.414063 0 8 3.585938 8 8s-3.585937 8-8 8zm0 0" fill="#8cc152"/><path d="m72.191406 72c-4.421875 0-8.039062-3.574219-8.039062-8s3.535156-8 7.953125-8h.085937c4.417969 0 8 3.574219 8 8s-3.582031 8-8 8zm0 0" fill="#ed5565"/><path d="m24.257812 120c-4.425781 0-8.042968-3.574219-8.042968-8s3.539062-8 7.953125-8h.089843c4.414063 0 8 3.574219 8 8s-3.59375 8-8 8zm0 0" fill="#ed5565"/><g fill="#ccd1d9"><path d="m296.007812 296h-144c-4.421874 0-8-3.574219-8-8s3.578126-8 8-8h144c4.425782 0 8 3.574219 8 8s-3.574218 8-8 8zm0 0"/><path d="m216.007812 328h-64c-4.421874 0-8-3.574219-8-8s3.578126-8 8-8h64c4.425782 0 8 3.574219 8 8s-3.574218 8-8 8zm0 0"/><path d="m424.007812 328h-176c-4.421874 0-8-3.574219-8-8s3.578126-8 8-8h176c4.425782 0 8 3.574219 8 8s-3.574218 8-8 8zm0 0"/><path d="m352.007812 360h-200c-4.421874 0-8-3.574219-8-8s3.578126-8 8-8h200c4.425782 0 8 3.574219 8 8s-3.574218 8-8 8zm0 0"/><path d="m424.007812 360h-40c-4.421874 0-8-3.574219-8-8s3.578126-8 8-8h40c4.425782 0 8 3.574219 8 8s-3.574218 8-8 8zm0 0"/><path d="m424.007812 296h-96c-4.421874 0-8-3.574219-8-8s3.578126-8 8-8h96c4.425782 0 8 3.574219 8 8s-3.574218 8-8 8zm0 0"/></g><path d="m208.273438 135.96875c-8.824219 0-16.042969-7.160156-16.042969-15.96875s7.066406-15.96875 15.875-15.96875h.167969c8.816406 0 15.957031 7.160156 15.957031 15.96875s-7.152344 15.96875-15.957031 15.96875zm0 0" fill="#ffce54"/></svg>