<svg height="496pt" viewBox="0 0 496.038 496" width="496pt" xmlns="http://www.w3.org/2000/svg"><path d="m96 424.019531v8c-58.328125-43.839843-96-113.511719-96-192 0-132.558593 107.441406-239.9999998 240-239.9999998 132.542969 0 240 107.4414068 240 239.9999998 0 34.398438-7.199219 67.121094-20.328125 96.710938-34.390625-25.03125-82.871094-22-113.839844 9.046875-6.71875 6.722656-12.078125 14.234375-16.160156 22.234375h-41.671875v-34.800781c37.832031-18 64-56.558594 64-101.199219v-88c0-26.5625-21.457031-48-48-48v-40h-80c-53.046875 0-96 42.886719-96 96v79.992187c0 44.640625 26.160156 83.199219 64 101.199219v34.800781h-40c-30.96875.015625-56 25.0625-56 56.015625zm0 0" fill="#ac92ec"/><path d="m240 .0195312c-5.390625 0-10.703125.2460938-16 .5898438 125.078125 8.234375 224 112.25 224 239.410156 0 127.167969-98.921875 231.167969-224 239.398438 5.296875.359375 10.609375.59375 16 .59375 132.542969 0 240-107.457031 240-240 0-132.535157-107.457031-239.9921878-240-239.9921878zm0 0" fill="#967adc"/><path d="m459.671875 336.738281c3.6875 2.722657 7.199219 5.6875 10.558594 9.046875 34.410156 34.3125 34.410156 90.082032 0 124.394532-34.328125 34.40625-90.078125 34.40625-124.40625 0-3.28125-3.265626-6.3125-6.800782-9.03125-10.472657-19.609375-26.96875-22-62.558593-7.128907-91.6875 4.078126-8 9.441407-15.511719 16.160157-22.234375 30.976562-31.046875 79.457031-34.078125 113.847656-9.046875zm0 0" fill="#a0d468"/><path d="m329.59375 368.019531h.078125c-14.871094 29.128907-12.488281 64.71875 7.128906 91.6875-29.609375 13.03125-62.328125 20.3125-96.800781 20.3125-54.097656 0-103.921875-17.839843-144-48v-8c0-30.953125 25.03125-56 56-56h40l24 16 24-8 24 8 24-16zm0 0" fill="#e6e9ed"/><path d="m288 333.21875v34.800781l-24 16-24-8-24 8-24-16v-34.800781c14.542969 6.953125 30.800781 10.800781 48 10.800781 17.183594 0 33.441406-3.847656 48-10.800781zm0 0" fill="#f5f7fa"/><path d="m352 192.019531v40c0 44.640625-26.167969 83.199219-64 101.199219-14.558594 6.953125-30.816406 10.800781-48 10.800781-17.199219 0-33.457031-3.839843-48-10.800781-37.839844-18-64-56.558594-64-101.199219v-40.152343l32-31.839844s36.542969 16 80 16c43.441406 0 80-16 80-16zm0 0" fill="#eac6bb"/><path d="m320 160.019531v72c0 44.640625-26.167969 83.199219-64 101.199219-9.953125 4.753906-20.71875 7.921875-32 9.527344 5.230469.753906 10.542969 1.265625 16 1.265625 17.183594 0 33.441406-3.839844 48-10.800781 37.832031-18 64-56.558594 64-101.199219v-40zm0 0" fill="#d3b1a9"/><path d="m352 144.019531v48l-32-32s-36.558594 16-80 16c-43.457031 0-80-16-80-16l-32 31.839844v-39.839844c0-53.113281 42.953125-96 96-96h80v40c26.542969 0 48 21.441407 48 48zm0 0" fill="#965353"/><path d="m304 96.019531v-40h-32v56c26.542969 0 48 13.441407 48 40v8l32 32v-48c0-26.558593-21.457031-48-48-48zm0 0" fill="#844646"/><path d="m240.246094 424.003906c-4.421875 0-8.03125-3.578125-8.03125-8 0-4.425781 3.527344-8 7.953125-8h.078125c4.425781 0 8 3.574219 8 8 0 4.421875-3.574219 8-8 8zm0 0" fill="#ccd1d9"/><path d="m240.246094 456.003906c-4.421875 0-8.03125-3.578125-8.03125-8 0-4.425781 3.527344-8 7.953125-8h.078125c4.425781 0 8 3.574219 8 8 0 4.421875-3.574219 8-8 8zm0 0" fill="#ccd1d9"/><path d="m448.015625 400.003906h-32v-32c0-4.425781-3.574219-8-8-8-4.421875 0-8 3.574219-8 8v32h-32c-4.421875 0-8 3.574219-8 8 0 4.421875 3.578125 8 8 8h32v32c0 4.421875 3.578125 8 8 8 4.425781 0 8-3.578125 8-8v-32h32c4.425781 0 8-3.578125 8-8 0-4.425781-3.574219-8-8-8zm0 0" fill="#fff"/></svg>