<svg height="496pt" viewBox="0 -11 496 495" width="496pt" xmlns="http://www.w3.org/2000/svg"><path d="m496 272.503906c0 39.761719-32.234375 72-72 72s-72-32.238281-72-72c0-39.765625 32.234375-72 72-72s72 32.234375 72 72zm0 0" fill="#48cfad"/><path d="m424 200.503906c-5.503906 0-10.839844.671875-16 1.839844 32.046875 7.285156 56 35.902344 56 70.160156 0 34.253906-23.953125 62.863282-56 70.148438 5.160156 1.167968 10.496094 1.851562 16 1.851562 39.761719 0 72-32.242187 72-72 0-39.769531-32.238281-72-72-72zm0 0" fill="#37bc9b"/><path d="m389.679688 18.734375c24.398437 24.328125 24.398437 63.769531 0 88.167969l-5.441407 5.449218-88.238281 88.152344-88.238281-88.160156-5.523438-5.441406c-24.316406-24.398438-24.316406-63.832032 0-88.167969 24.402344-24.3125 63.832031-24.3125 88.234375 0l5.527344 5.535156 5.519531-5.527343c24.320313-24.320313 63.839844-24.320313 88.160157-.007813zm0 0" fill="#ed5565"/><path d="m389.679688 18.734375c-16.265626-16.257813-39.3125-21.585937-60.078126-16.097656 10.285157 2.722656 20.023438 8.050781 28.078126 16.097656 24.398437 24.328125 24.398437 63.769531 0 88.167969l-5.441407 5.449218-72.238281 72.167969 16 15.984375 88.238281-88.160156 5.441407-5.449219c24.398437-24.390625 24.398437-63.832031 0-88.160156zm0 0" fill="#da4453"/><path d="m280 320.503906c13.28125 0 24 10.71875 24 24 0 13.277344-10.71875 24-24 24h-8c13.28125 0 24 10.71875 24 24 0 13.277344-10.71875 24-24 24h-8c13.28125 0 24 10.71875 24 24 0 13.277344-10.71875 24-24 24h-144l-32-16h-16v-152h24l32-64v-64h24c13.28125 0 24 10.71875 24 24v80h112c13.28125 0 24 10.71875 24 24 0 13.277344-10.71875 24-24 24zm0 0" fill="#eac6bb"/><path d="m72 448.503906v24h-72v-200h72zm0 0" fill="#656d78"/><g fill="#d3b1a9"><path d="m305.792969 312.503906h-25.792969c-4.425781 0-8 3.574219-8 8 0 4.421875 3.574219 8 8 8h17.792969c-4.394531-4.882812-10.6875-8-17.792969-8h8c7.105469 0 13.398438-3.121094 17.792969-8zm0 0"/><path d="m297.792969 360.503906h-25.792969c-4.425781 0-8 3.574219-8 8 0 4.421875 3.574219 8 8 8h17.792969c-4.394531-4.882812-10.6875-8-17.792969-8h8c7.105469 0 13.398438-3.121094 17.792969-8zm0 0"/><path d="m289.792969 408.503906h-25.792969c-4.425781 0-8 3.574219-8 8 0 4.421875 3.574219 8 8 8h17.792969c-4.394531-4.882812-10.6875-8-17.792969-8h8c7.105469 0 13.398438-3.121094 17.792969-8zm0 0"/></g><path d="m456 264.503906h-24v-24c0-4.425781-3.574219-8-8-8s-8 3.574219-8 8v24h-24c-4.425781 0-8 3.574219-8 8 0 4.421875 3.574219 8 8 8h24v24c0 4.421875 3.574219 8 8 8s8-3.578125 8-8v-24h24c4.425781 0 8-3.578125 8-8 0-4.425781-3.574219-8-8-8zm0 0" fill="#fff"/></svg>