<svg height="503pt" viewBox="0 -55 503.864 503" width="503pt" xmlns="http://www.w3.org/2000/svg"><path d="m384.160156 32.433594v360h-384v-360zm0 0" fill="#e6e9ed"/><path d="m384.007812 16.433594v16h-384.007812v-16c0-8.800782 7.199219-16 16-16h352c8.886719 0 16.007812 7.199218 16.007812 16zm0 0" fill="#ccd1d9"/><path d="m47.929688 80.433594h288v64h-288zm0 0" fill="#fc6e51"/><path d="m47.929688 184.433594h288v24h-288zm0 0" fill="#aab2bd"/><g fill="#ccd1d9"><path d="m199.792969 256.433594h-144c-4.425781 0-8-3.578125-8-8 0-4.425782 3.574219-8 8-8h144c4.421875 0 8 3.574218 8 8 0 4.421875-3.578125 8-8 8zm0 0"/><path d="m119.792969 288.433594h-64c-4.425781 0-8-3.578125-8-8 0-4.425782 3.574219-8 8-8h64c4.421875 0 8 3.574218 8 8 0 4.421875-3.578125 8-8 8zm0 0"/><path d="m327.792969 288.433594h-176c-4.425781 0-8-3.578125-8-8 0-4.425782 3.574219-8 8-8h176c4.421875 0 8 3.574218 8 8 0 4.421875-3.578125 8-8 8zm0 0"/><path d="m167.792969 352.433594h-112c-4.425781 0-8-3.578125-8-8 0-4.425782 3.574219-8 8-8h112c4.421875 0 8 3.574218 8 8 0 4.421875-3.578125 8-8 8zm0 0"/><path d="m327.792969 352.433594h-128c-4.425781 0-8-3.578125-8-8 0-4.425782 3.574219-8 8-8h128c4.421875 0 8 3.574218 8 8 0 4.421875-3.578125 8-8 8zm0 0"/><path d="m255.792969 320.433594h-200c-4.425781 0-8-3.578125-8-8 0-4.425782 3.574219-8 8-8h200c4.421875 0 8 3.574218 8 8 0 4.421875-3.578125 8-8 8zm0 0"/><path d="m327.792969 320.433594h-40c-4.425781 0-8-3.578125-8-8 0-4.425782 3.574219-8 8-8h40c4.421875 0 8 3.574218 8 8 0 4.421875-3.578125 8-8 8zm0 0"/><path d="m327.792969 256.433594h-96c-4.425781 0-8-3.578125-8-8 0-4.425782 3.574219-8 8-8h96c4.421875 0 8 3.574218 8 8 0 4.421875-3.578125 8-8 8zm0 0"/></g><path d="m271.9375 120.433594h-160c-4.425781 0-8-3.578125-8-8 0-4.425782 3.574219-8 8-8h160c4.421875 0 8 3.574218 8 8 0 4.421875-3.578125 8-8 8zm0 0" fill="#e9573f"/><path d="m24.105469 24.433594c-4.425781 0-8.042969-3.578125-8.042969-8 0-4.425782 3.539062-8 7.953125-8h.089844c4.414062 0 8 3.574218 8 8 0 4.421875-3.585938 8-8 8zm0 0" fill="#ed5565"/><path d="m48.105469 24.433594c-4.425781 0-8.042969-3.578125-8.042969-8 0-4.425782 3.539062-8 7.953125-8h.089844c4.414062 0 8 3.574218 8 8 0 4.421875-3.585938 8-8 8zm0 0" fill="#ffce54"/><path d="m72.105469 24.433594c-4.425781 0-8.042969-3.578125-8.042969-8 0-4.425782 3.539062-8 7.953125-8h.089844c4.414062 0 8 3.574218 8 8 0 4.421875-3.585938 8-8 8zm0 0" fill="#8cc152"/><path d="m447.863281 328.433594-8 16 20 32 20-32-8-16v-8h-24zm0 0" fill="#ffce54"/><path d="m459.863281 16.433594c11.039063 0 20 8.957031 20 20v284h-40v-284c0-11.042969 8.960938-20 20-20zm0 0" fill="#656d78"/><path d="m471.863281 320.433594v8l8 16-20 32v-56zm0 0" fill="#f6bb42"/><path d="m479.863281 36.433594v284h-20v-304c11.039063 0 20 8.957031 20 20zm0 0" fill="#434a54"/><path d="m479.863281 144.433594h-40v16h40zm0 0" fill="#434a54"/><path d="m479.863281 288.433594h-40v16h40zm0 0" fill="#434a54"/><path d="m487.863281 40.433594h-48v16h48v112c0 4.421875 3.578125 8 8 8 4.425781 0 8-3.578125 8-8v-112c0-8.832032-7.175781-16-16-16zm0 0" fill="#ffce54"/><path d="m459.863281 288.433594h20v16h-20zm0 0" fill="#353b44"/><path d="m459.863281 144.433594h20v16h-20zm0 0" fill="#353b44"/></svg>