<?xml version="1.0" encoding="UTF-8"?>
<svg xmlns="http://www.w3.org/2000/svg" xmlns:xlink="http://www.w3.org/1999/xlink" width="96pt" height="96pt" viewBox="0 0 96 96" version="1.1">
<g id="surface8694305">
<path style=" stroke:none;fill-rule:evenodd;fill:rgb(0%,30.196078%,25.098039%);fill-opacity:1;" d="M 16 32 L 16 57.292969 C 13.308594 57.800781 11.898438 58 9.757812 58 C 3.339844 57.992188 0 55.128906 0 49.632812 C 0 44.335938 3.542969 40.894531 9.03125 40.894531 C 9.882812 40.894531 10.53125 40.960938 11.316406 41.164062 L 11.316406 32 Z M 11.316406 45.34375 C 10.703125 45.144531 10.195312 45.074219 9.546875 45.074219 C 6.890625 45.074219 5.355469 46.695312 5.355469 49.53125 C 5.355469 52.292969 6.820312 53.816406 9.511719 53.816406 C 10.09375 53.816406 10.566406 53.785156 11.316406 53.683594 Z M 11.316406 45.34375 "/>
<path style=" stroke:none;fill-rule:evenodd;fill:rgb(0%,30.196078%,25.098039%);fill-opacity:1;" d="M 24 40.09375 L 24 53.328125 C 24 57.480469 23.691406 59.777344 22.777344 61.496094 C 21.925781 63.148438 20.800781 64.195312 18.484375 65.347656 L 13.609375 63.046875 C 15.929688 61.96875 17.050781 61.019531 17.769531 59.5625 C 18.519531 58.078125 18.757812 56.054688 18.757812 51.53125 L 18.757812 40.089844 L 24 40.089844 Z M 24 40.09375 "/>
<path style=" stroke:none;fill-rule:evenodd;fill:rgb(0%,30.196078%,25.098039%);fill-opacity:1;" d="M 18.753906 32 L 24 32 L 24 37.425781 L 18.753906 37.425781 Z M 18.753906 32 "/>
<path style=" stroke:none;fill-rule:evenodd;fill:rgb(0%,30.196078%,25.098039%);fill-opacity:1;" d="M 27.46875 41.753906 C 29.738281 40.648438 31.914062 40.160156 34.285156 40.160156 C 36.925781 40.160156 38.660156 40.886719 39.429688 42.308594 C 39.859375 43.101562 40 44.136719 40 46.351562 L 40 57.164062 C 37.695312 57.507812 34.789062 57.753906 32.652344 57.753906 C 28.34375 57.753906 26.40625 56.195312 26.40625 52.742188 C 26.40625 49.007812 28.976562 47.28125 35.289062 46.730469 L 35.289062 45.558594 C 35.289062 44.59375 34.820312 44.242188 33.523438 44.242188 C 31.621094 44.242188 29.480469 44.800781 27.472656 45.867188 Z M 35.523438 50.214844 C 32.117188 50.554688 31.011719 51.113281 31.011719 52.496094 C 31.011719 53.53125 31.648438 54.019531 33.050781 54.019531 C 33.820312 54.019531 34.523438 53.949219 35.523438 53.777344 Z M 35.523438 50.214844 "/>
<path style=" stroke:none;fill-rule:evenodd;fill:rgb(0%,30.196078%,25.098039%);fill-opacity:1;" d="M 42.835938 41.386719 C 45.875 40.542969 48.378906 40.160156 50.917969 40.160156 C 53.554688 40.160156 55.464844 40.792969 56.597656 42.019531 C 57.660156 43.175781 58 44.445312 58 47.144531 L 58 57.753906 L 52.851562 57.753906 L 52.851562 47.363281 C 52.851562 45.285156 52.183594 44.515625 50.347656 44.515625 C 49.644531 44.515625 49.011719 44.585938 47.976562 44.902344 L 47.976562 57.753906 L 42.835938 57.753906 Z M 42.835938 41.386719 "/>
<path style=" stroke:none;fill-rule:evenodd;fill:rgb(0%,30.196078%,25.098039%);fill-opacity:1;" d="M 60.355469 60.011719 C 62.191406 60.984375 64.03125 61.433594 65.976562 61.433594 C 69.421875 61.433594 70.886719 60.484375 70.886719 57.078125 L 70.886719 56.976562 C 69.867188 57.492188 68.835938 57.707031 67.476562 57.707031 C 62.875 57.707031 60 54.613281 60 49.714844 C 60 43.628906 64.28125 40.191406 71.949219 40.191406 C 74.199219 40.191406 76.28125 40.433594 78.800781 40.957031 L 77.003906 44.816406 C 75.605469 44.539062 76.890625 44.773438 75.835938 44.671875 L 75.835938 45.230469 L 75.902344 47.488281 L 75.9375 50.410156 C 75.972656 51.144531 75.972656 51.871094 76.007812 52.605469 L 76.007812 54.0625 C 76.007812 58.652344 75.625 60.324219 74.503906 62.105469 C 72.867188 64.707031 70.035156 65.996094 66.011719 65.996094 C 63.964844 65.996094 62.191406 65.6875 60.355469 64.957031 Z M 70.785156 44.503906 L 70.234375 44.503906 C 69.214844 44.46875 68.019531 44.742188 67.199219 45.269531 C 65.941406 45.996094 65.292969 47.320312 65.292969 49.195312 C 65.292969 51.871094 66.589844 53.398438 68.90625 53.398438 C 69.625 53.398438 70.207031 53.261719 70.882812 53.054688 L 70.882812 51.210938 C 70.882812 50.582031 70.847656 49.886719 70.847656 49.15625 L 70.8125 46.6875 L 70.78125 44.917969 L 70.78125 44.503906 Z M 70.785156 44.503906 "/>
<path style=" stroke:none;fill-rule:evenodd;fill:rgb(0%,30.196078%,25.098039%);fill-opacity:1;" d="M 87.132812 40.09375 C 92.636719 40.09375 96 43.410156 96 48.789062 C 96 54.300781 92.496094 57.753906 86.910156 57.753906 C 81.398438 57.753906 78 54.4375 78 49.09375 C 78.011719 43.546875 81.515625 40.09375 87.132812 40.09375 Z M 87.019531 53.503906 C 89.132812 53.503906 90.378906 51.828125 90.378906 48.914062 C 90.378906 46.039062 89.164062 44.328125 87.054688 44.328125 C 84.867188 44.328125 83.617188 46.003906 83.617188 48.914062 C 83.621094 51.828125 84.875 53.503906 87.019531 53.503906 Z M 87.019531 53.503906 "/>
<path style=" stroke:none;fill-rule:nonzero;fill:rgb(58.431373%,64.705882%,65.098039%);fill-opacity:1;" d="M 59.007812 79.726562 L 57.070312 79.726562 L 57.070312 83.496094 L 54.859375 83.496094 L 54.859375 72.78125 L 59.039062 72.78125 C 59.84375 72.78125 60.550781 72.929688 61.167969 73.226562 C 61.777344 73.523438 62.246094 73.9375 62.574219 74.476562 C 62.902344 75.019531 63.0625 75.640625 63.0625 76.332031 C 63.0625 77.378906 62.707031 78.207031 61.988281 78.816406 C 61.269531 79.421875 60.273438 79.726562 59.007812 79.726562 Z M 57.070312 74.574219 L 57.070312 77.933594 L 59.039062 77.933594 C 59.625 77.933594 60.070312 77.796875 60.375 77.519531 C 60.683594 77.25 60.835938 76.859375 60.835938 76.347656 C 60.835938 75.820312 60.683594 75.394531 60.375 75.070312 C 60.066406 74.746094 59.636719 74.582031 59.089844 74.574219 Z M 66.785156 72.78125 L 66.785156 81.722656 L 71.476562 81.722656 L 71.476562 83.496094 L 64.582031 83.496094 L 64.582031 72.78125 Z M 78.457031 72.78125 L 80.671875 72.78125 L 80.671875 79.84375 C 80.671875 81.015625 80.308594 81.941406 79.574219 82.621094 C 78.839844 83.300781 77.839844 83.644531 76.570312 83.644531 C 75.316406 83.644531 74.324219 83.3125 73.589844 82.648438 C 72.855469 81.988281 72.476562 81.078125 72.464844 79.921875 L 72.464844 72.78125 L 74.667969 72.78125 L 74.667969 79.851562 C 74.667969 80.554688 74.835938 81.066406 75.175781 81.386719 C 75.511719 81.710938 75.976562 81.875 76.570312 81.875 C 77.808594 81.875 78.4375 81.21875 78.457031 79.914062 Z M 88.039062 80.683594 C 88.039062 80.269531 87.894531 79.949219 87.601562 79.726562 C 87.304688 79.5 86.777344 79.265625 86.007812 79.019531 C 85.242188 78.773438 84.636719 78.527344 84.191406 78.289062 C 82.972656 77.632812 82.363281 76.746094 82.363281 75.632812 C 82.363281 75.054688 82.527344 74.535156 82.855469 74.082031 C 83.183594 73.628906 83.652344 73.273438 84.261719 73.019531 C 84.871094 72.765625 85.558594 72.636719 86.316406 72.636719 C 87.082031 72.636719 87.765625 72.777344 88.363281 73.054688 C 88.964844 73.332031 89.429688 73.722656 89.761719 74.226562 C 90.089844 74.734375 90.257812 75.304688 90.257812 75.945312 L 88.046875 75.945312 C 88.046875 75.457031 87.890625 75.078125 87.582031 74.800781 C 87.273438 74.53125 86.839844 74.394531 86.28125 74.394531 C 85.742188 74.394531 85.324219 74.507812 85.019531 74.734375 C 84.722656 74.964844 84.574219 75.265625 84.574219 75.640625 C 84.574219 75.988281 84.75 76.28125 85.097656 76.515625 C 85.449219 76.75 85.964844 76.972656 86.652344 77.179688 C 87.90625 77.554688 88.820312 78.023438 89.390625 78.582031 C 89.96875 79.140625 90.257812 79.839844 90.257812 80.671875 C 90.257812 81.601562 89.90625 82.328125 89.203125 82.855469 C 88.503906 83.378906 87.558594 83.644531 86.371094 83.644531 C 85.546875 83.644531 84.792969 83.492188 84.117188 83.191406 C 83.441406 82.890625 82.925781 82.476562 82.570312 81.953125 C 82.214844 81.425781 82.035156 80.820312 82.035156 80.125 L 84.25 80.125 C 84.25 81.308594 84.957031 81.902344 86.371094 81.902344 C 86.898438 81.902344 87.304688 81.796875 87.601562 81.582031 C 87.894531 81.367188 88.039062 81.066406 88.039062 80.683594 Z M 88.039062 80.683594 "/>
</g>
</svg>
