<?xml version="1.0" encoding="UTF-8"?>
<svg xmlns="http://www.w3.org/2000/svg" xmlns:xlink="http://www.w3.org/1999/xlink" width="96pt" height="96pt" viewBox="0 0 96 96" version="1.1">
<g id="surface2920366">
<path style=" stroke:none;fill-rule:nonzero;fill:rgb(100%,83.921569%,0%);fill-opacity:1;" d="M 12 84 L 12 12 L 84 12 L 84 84 Z M 12 84 "/>
<path style=" stroke:none;fill-rule:nonzero;fill:rgb(0%,0%,0.392157%);fill-opacity:1;" d="M 59.074219 65.894531 C 60.460938 68.140625 61.964844 70.296875 65.148438 70.296875 C 67.824219 70.296875 69.230469 68.964844 69.230469 67.125 C 69.230469 64.925781 67.777344 64.140625 64.835938 62.859375 L 63.21875 62.171875 C 58.5625 60.195312 55.464844 57.71875 55.464844 52.488281 C 55.464844 47.671875 59.152344 44.003906 64.921875 44.003906 C 69.027344 44.003906 71.976562 45.425781 74.105469 49.148438 L 69.074219 52.363281 C 67.96875 50.386719 66.773438 49.609375 64.921875 49.609375 C 63.027344 49.609375 61.828125 50.800781 61.828125 52.363281 C 61.828125 54.289062 63.03125 55.070312 65.800781 56.265625 L 67.414062 56.953125 C 72.902344 59.289062 76 61.679688 76 67.046875 C 76 72.828125 71.433594 76 65.300781 76 C 59.300781 76 55.894531 72.988281 54 69.265625 Z M 35.902344 66.058594 C 36.914062 67.871094 38.453125 69.265625 40.664062 69.265625 C 42.78125 69.265625 44 68.429688 44 65.179688 L 44 44 L 50.664062 44 L 50.664062 66.203125 C 50.664062 72.9375 46.761719 76 41.054688 76 C 35.902344 76 32.183594 72.507812 30.664062 69.265625 Z M 35.902344 66.058594 "/>
<path style=" stroke:none;fill-rule:nonzero;fill:rgb(0%,67.45098%,75.686275%);fill-opacity:1;" d="M 40.746094 20.1875 C 40.746094 31.1875 31.746094 40.1875 20.746094 40.1875 C 9.746094 40.1875 0.746094 31.1875 0.746094 20.1875 C 0.746094 9.1875 9.746094 0.1875 20.746094 0.1875 C 31.746094 0.1875 40.746094 9.1875 40.746094 20.1875 "/>
<path style=" stroke:none;fill-rule:nonzero;fill:rgb(93.333333%,93.333333%,93.333333%);fill-opacity:1;" d="M 34.746094 20.1875 C 34.746094 27.984375 28.542969 34.1875 20.746094 34.1875 C 12.945312 34.1875 6.746094 27.984375 6.746094 20.1875 C 6.746094 12.386719 12.945312 6.1875 20.746094 6.1875 C 28.542969 6.1875 34.746094 12.386719 34.746094 20.1875 "/>
<path style=" stroke:none;fill-rule:nonzero;fill:rgb(0%,0%,0%);fill-opacity:1;" d="M 29.542969 26.386719 L 23.746094 20.585938 C 23.746094 20.386719 23.746094 20.386719 23.746094 20.1875 C 23.746094 19.386719 23.34375 18.585938 22.746094 17.984375 L 22.746094 10.1875 L 18.746094 10.1875 L 18.746094 17.984375 C 18.144531 18.585938 17.746094 19.386719 17.746094 20.1875 C 17.746094 21.785156 19.144531 23.1875 20.746094 23.1875 L 20.945312 23.1875 L 26.746094 28.984375 Z M 29.542969 26.386719 "/>
</g>
</svg>
