<?xml version="1.0" encoding="UTF-8"?>
<svg xmlns="http://www.w3.org/2000/svg" xmlns:xlink="http://www.w3.org/1999/xlink" width="96pt" height="96pt" viewBox="0 0 96 96" version="1.1">
<g id="surface2968174">
<path style=" stroke:none;fill-rule:nonzero;fill:rgb(100%,83.921569%,0%);fill-opacity:1;" d="M 12 84 L 12 12 L 84 12 L 84 84 Z M 12 84 "/>
<path style=" stroke:none;fill-rule:nonzero;fill:rgb(0%,0%,0.392157%);fill-opacity:1;" d="M 59.074219 65.894531 C 60.460938 68.140625 61.964844 70.296875 65.148438 70.296875 C 67.824219 70.296875 69.230469 68.964844 69.230469 67.125 C 69.230469 64.925781 67.777344 64.140625 64.835938 62.859375 L 63.21875 62.171875 C 58.5625 60.195312 55.464844 57.71875 55.464844 52.488281 C 55.464844 47.671875 59.152344 44.003906 64.921875 44.003906 C 69.027344 44.003906 71.976562 45.425781 74.105469 49.148438 L 69.074219 52.363281 C 67.96875 50.386719 66.773438 49.609375 64.921875 49.609375 C 63.027344 49.609375 61.828125 50.800781 61.828125 52.363281 C 61.828125 54.289062 63.03125 55.070312 65.800781 56.265625 L 67.414062 56.953125 C 72.902344 59.289062 76 61.679688 76 67.046875 C 76 72.828125 71.433594 76 65.300781 76 C 59.300781 76 55.894531 72.988281 54 69.265625 Z M 35.902344 66.058594 C 36.914062 67.871094 38.453125 69.265625 40.664062 69.265625 C 42.78125 69.265625 44 68.429688 44 65.179688 L 44 44 L 50.664062 44 L 50.664062 66.203125 C 50.664062 72.9375 46.761719 76 41.054688 76 C 35.902344 76 32.183594 72.507812 30.664062 69.265625 Z M 35.902344 66.058594 "/>
<path style=" stroke:none;fill-rule:nonzero;fill:rgb(0%,0%,0%);fill-opacity:1;" d="M 16.921875 21.796875 L 16.921875 23.011719 L 13.941406 23.011719 L 13.941406 25.027344 L 17.441406 25.027344 L 17.441406 26.277344 L 12.390625 26.277344 L 12.390625 18.738281 L 17.429688 18.738281 L 17.429688 20 L 13.941406 20 L 13.941406 21.796875 Z M 22.714844 23.765625 L 24.273438 23.765625 C 24.214844 24.578125 23.914062 25.214844 23.375 25.679688 C 22.835938 26.148438 22.121094 26.382812 21.238281 26.382812 C 20.269531 26.382812 19.507812 26.058594 18.953125 25.40625 C 18.402344 24.753906 18.128906 23.863281 18.128906 22.726562 L 18.128906 22.265625 C 18.128906 21.539062 18.253906 20.902344 18.507812 20.351562 C 18.765625 19.796875 19.128906 19.371094 19.601562 19.078125 C 20.078125 18.785156 20.628906 18.636719 21.257812 18.636719 C 22.128906 18.636719 22.828125 18.867188 23.359375 19.332031 C 23.890625 19.800781 24.199219 20.453125 24.285156 21.296875 L 22.726562 21.296875 C 22.691406 20.8125 22.554688 20.457031 22.320312 20.238281 C 22.089844 20.019531 21.734375 19.910156 21.257812 19.910156 C 20.742188 19.910156 20.355469 20.09375 20.097656 20.46875 C 19.839844 20.835938 19.707031 21.410156 19.703125 22.191406 L 19.703125 22.761719 C 19.703125 23.574219 19.824219 24.171875 20.070312 24.546875 C 20.316406 24.921875 20.707031 25.109375 21.238281 25.109375 C 21.71875 25.109375 22.078125 25 22.3125 24.78125 C 22.550781 24.5625 22.683594 24.222656 22.714844 23.765625 Z M 25.292969 18.738281 L 27.320312 18.738281 L 29.257812 24.207031 L 31.183594 18.738281 L 33.226562 18.738281 L 33.226562 26.277344 L 31.667969 26.277344 L 31.667969 24.21875 L 31.820312 20.65625 L 29.789062 26.277344 L 28.722656 26.277344 L 26.691406 20.664062 L 26.847656 24.21875 L 26.847656 26.277344 L 25.292969 26.277344 Z M 39.453125 26.277344 L 38.929688 24.726562 L 36.207031 24.726562 L 35.6875 26.277344 L 34.035156 26.277344 L 36.84375 18.738281 L 38.28125 18.738281 L 41.105469 26.277344 Z M 37.5625 20.644531 L 36.625 23.464844 L 38.511719 23.464844 Z M 45.71875 24.300781 C 45.71875 24.007812 45.613281 23.78125 45.410156 23.625 C 45.203125 23.464844 44.828125 23.296875 44.289062 23.125 C 43.753906 22.953125 43.328125 22.78125 43.011719 22.609375 C 42.15625 22.148438 41.726562 21.527344 41.726562 20.742188 C 41.726562 20.335938 41.84375 19.972656 42.074219 19.652344 C 42.304688 19.332031 42.632812 19.082031 43.058594 18.902344 C 43.492188 18.726562 43.972656 18.636719 44.507812 18.636719 C 45.046875 18.636719 45.527344 18.734375 45.945312 18.925781 C 46.367188 19.121094 46.695312 19.394531 46.929688 19.753906 C 47.164062 20.109375 47.28125 20.511719 47.28125 20.964844 L 45.722656 20.964844 C 45.722656 20.617188 45.613281 20.351562 45.398438 20.160156 C 45.179688 19.964844 44.875 19.871094 44.484375 19.871094 C 44.105469 19.871094 43.808594 19.953125 43.597656 20.117188 C 43.382812 20.273438 43.277344 20.484375 43.277344 20.746094 C 43.277344 20.992188 43.402344 21.199219 43.652344 21.367188 C 43.898438 21.53125 44.261719 21.683594 44.742188 21.828125 C 45.625 22.097656 46.269531 22.425781 46.671875 22.816406 C 47.078125 23.210938 47.28125 23.703125 47.28125 24.289062 C 47.28125 24.941406 47.03125 25.453125 46.539062 25.824219 C 46.042969 26.195312 45.378906 26.382812 44.546875 26.382812 C 43.964844 26.382812 43.4375 26.273438 42.960938 26.058594 C 42.484375 25.847656 42.121094 25.558594 41.871094 25.1875 C 41.617188 24.820312 41.492188 24.390625 41.492188 23.90625 L 43.054688 23.90625 C 43.054688 24.738281 43.550781 25.15625 44.546875 25.15625 C 44.914062 25.15625 45.203125 25.078125 45.410156 24.925781 C 45.613281 24.777344 45.71875 24.570312 45.71875 24.300781 Z M 50.5625 25.171875 C 50.835938 25.171875 51.058594 25.097656 51.230469 24.949219 C 51.40625 24.796875 51.496094 24.59375 51.503906 24.339844 L 52.90625 24.339844 C 52.902344 24.71875 52.796875 25.066406 52.59375 25.382812 C 52.390625 25.699219 52.117188 25.945312 51.761719 26.121094 C 51.410156 26.296875 51.019531 26.382812 50.589844 26.382812 C 49.785156 26.382812 49.152344 26.128906 48.691406 25.617188 C 48.230469 25.109375 48 24.40625 48 23.507812 L 48 23.410156 C 48 22.546875 48.230469 21.855469 48.6875 21.34375 C 49.144531 20.828125 49.773438 20.574219 50.578125 20.574219 C 51.277344 20.574219 51.839844 20.773438 52.265625 21.171875 C 52.683594 21.570312 52.898438 22.097656 52.90625 22.761719 L 51.503906 22.761719 C 51.496094 22.46875 51.40625 22.234375 51.230469 22.050781 C 51.058594 21.875 50.832031 21.785156 50.550781 21.785156 C 50.199219 21.785156 49.9375 21.910156 49.765625 22.164062 C 49.585938 22.417969 49.496094 22.828125 49.496094 23.398438 L 49.496094 23.554688 C 49.496094 24.128906 49.582031 24.546875 49.757812 24.796875 C 49.933594 25.046875 50.199219 25.171875 50.5625 25.171875 Z M 56.929688 20.640625 L 56.90625 22.078125 C 56.707031 22.050781 56.527344 22.035156 56.371094 22.035156 C 55.804688 22.035156 55.433594 22.226562 55.253906 22.609375 L 55.253906 26.277344 L 53.761719 26.277344 L 53.761719 20.671875 L 55.171875 20.671875 L 55.214844 21.34375 C 55.519531 20.828125 55.933594 20.574219 56.460938 20.574219 C 56.628906 20.574219 56.785156 20.59375 56.929688 20.640625 Z M 59.207031 20.671875 L 59.207031 26.277344 L 57.707031 26.277344 L 57.707031 20.671875 Z M 57.617188 19.222656 C 57.617188 19 57.691406 18.816406 57.84375 18.667969 C 57.996094 18.523438 58.199219 18.453125 58.460938 18.453125 C 58.710938 18.453125 58.914062 18.523438 59.066406 18.667969 C 59.21875 18.816406 59.296875 19 59.296875 19.222656 C 59.296875 19.453125 59.21875 19.640625 59.066406 19.785156 C 58.910156 19.929688 58.707031 20.003906 58.460938 20.003906 C 58.207031 20.003906 58.003906 19.929688 57.851562 19.785156 C 57.695312 19.640625 57.617188 19.453125 57.617188 19.222656 Z M 65.488281 23.449219 L 65.488281 23.527344 C 65.488281 24.390625 65.289062 25.082031 64.894531 25.601562 C 64.503906 26.121094 63.976562 26.382812 63.308594 26.382812 C 62.746094 26.382812 62.285156 26.1875 61.9375 25.792969 L 61.9375 28.429688 L 60.441406 28.429688 L 60.441406 20.671875 L 61.832031 20.671875 L 61.882812 21.226562 C 62.242188 20.789062 62.714844 20.574219 63.296875 20.574219 C 63.992188 20.574219 64.527344 20.828125 64.910156 21.335938 C 65.292969 21.847656 65.488281 22.550781 65.488281 23.449219 Z M 63.984375 23.417969 C 63.984375 22.898438 63.894531 22.496094 63.710938 22.214844 C 63.527344 21.929688 63.257812 21.789062 62.90625 21.789062 C 62.433594 21.789062 62.113281 21.96875 61.9375 22.324219 L 61.9375 24.621094 C 62.117188 24.988281 62.445312 25.171875 62.914062 25.171875 C 63.628906 25.171875 63.984375 24.589844 63.984375 23.417969 Z M 66.707031 19.292969 L 68.203125 19.292969 L 68.203125 20.671875 L 69.160156 20.671875 L 69.160156 21.773438 L 68.203125 21.773438 L 68.203125 24.570312 C 68.203125 24.777344 68.242188 24.925781 68.320312 25.015625 C 68.398438 25.105469 68.550781 25.148438 68.78125 25.148438 C 68.941406 25.148438 69.089844 25.136719 69.214844 25.109375 L 69.214844 26.242188 C 68.925781 26.335938 68.625 26.382812 68.3125 26.382812 C 67.261719 26.382812 66.726562 25.851562 66.707031 24.792969 L 66.707031 21.773438 L 65.886719 21.773438 L 65.886719 20.671875 L 66.707031 20.671875 Z M 76.382812 18.660156 L 76.632812 18.660156 L 76.632812 19.890625 L 76.488281 19.890625 C 75.808594 19.902344 75.265625 20.078125 74.851562 20.421875 C 74.4375 20.765625 74.191406 21.238281 74.109375 21.84375 C 74.511719 21.4375 75.019531 21.230469 75.628906 21.230469 C 76.28125 21.230469 76.804688 21.46875 77.191406 21.941406 C 77.578125 22.410156 77.769531 23.027344 77.769531 23.792969 C 77.769531 24.28125 77.664062 24.722656 77.453125 25.121094 C 77.242188 25.519531 76.941406 25.828125 76.554688 26.046875 C 76.164062 26.273438 75.726562 26.382812 75.238281 26.382812 C 74.441406 26.382812 73.800781 26.105469 73.3125 25.550781 C 72.824219 25 72.582031 24.265625 72.582031 23.339844 L 72.582031 22.800781 C 72.582031 21.984375 72.734375 21.261719 73.042969 20.632812 C 73.351562 20.007812 73.796875 19.527344 74.371094 19.183594 C 74.949219 18.835938 75.617188 18.664062 76.382812 18.660156 Z M 75.171875 22.4375 C 74.929688 22.4375 74.710938 22.5 74.515625 22.621094 C 74.320312 22.746094 74.175781 22.914062 74.082031 23.125 L 74.082031 23.582031 C 74.082031 24.078125 74.179688 24.46875 74.378906 24.753906 C 74.570312 25.03125 74.847656 25.171875 75.203125 25.171875 C 75.523438 25.171875 75.785156 25.046875 75.984375 24.792969 C 76.183594 24.539062 76.28125 24.210938 76.28125 23.804688 C 76.28125 23.394531 76.179688 23.0625 75.980469 22.8125 C 75.777344 22.5625 75.507812 22.4375 75.171875 22.4375 Z M 81.738281 20.03125 L 81.738281 22.058594 L 83.609375 22.058594 L 83.609375 23.410156 L 81.738281 23.410156 L 81.738281 25.523438 L 80.316406 25.523438 L 80.316406 23.410156 L 78.441406 23.410156 L 78.441406 22.058594 L 80.316406 22.058594 L 80.316406 20.03125 Z M 81.738281 20.03125 "/>
</g>
</svg>
